G04 #@! TF.GenerationSoftware,KiCad,Pcbnew,5.1.4-5.1.4*
G04 #@! TF.CreationDate,2019-09-27T17:33:58+02:00*
G04 #@! TF.ProjectId,Backcover,4261636b-636f-4766-9572-2e6b69636164,rev?*
G04 #@! TF.SameCoordinates,Original*
G04 #@! TF.FileFunction,Copper,L1,Top*
G04 #@! TF.FilePolarity,Positive*
%FSLAX46Y46*%
G04 Gerber Fmt 4.6, Leading zero omitted, Abs format (unit mm)*
G04 Created by KiCad (PCBNEW 5.1.4-5.1.4) date 2019-09-27 17:33:58*
%MOMM*%
%LPD*%
G04 APERTURE LIST*
%ADD10C,3.000000*%
%ADD11R,1.600000X1.600000*%
%ADD12C,1.600000*%
%ADD13R,1.100000X2.500000*%
%ADD14O,1.900000X3.500000*%
%ADD15C,0.800000*%
%ADD16C,0.250000*%
G04 APERTURE END LIST*
D10*
X8720000Y2630000D03*
X8720000Y15770000D03*
D11*
X11430000Y12700000D03*
D12*
X11430000Y10200000D03*
X11430000Y8200000D03*
X11430000Y5700000D03*
D13*
X49000000Y10670000D03*
X51000000Y10670000D03*
X46500000Y10670000D03*
X53500000Y10670000D03*
D14*
X44300000Y13420000D03*
X55700000Y13420000D03*
D15*
X20250000Y50000000D03*
X20310000Y48250000D03*
X20250000Y46500000D03*
X20250000Y44750000D03*
X20250000Y43000000D03*
D16*
X20250000Y45823002D02*
X21000000Y45073002D01*
X20250000Y46500000D02*
X20250000Y45823002D01*
X21000000Y15270000D02*
X11430000Y5700000D01*
X21000000Y45073002D02*
X21000000Y15750000D01*
X21000000Y15750000D02*
X21000000Y15270000D01*
X53500000Y9970000D02*
X53500000Y10670000D01*
X21000000Y15750000D02*
X22000000Y14750000D01*
X22000000Y14750000D02*
X39000000Y14750000D01*
X45000000Y8750000D02*
X52280000Y8750000D01*
X52280000Y8750000D02*
X53500000Y9970000D01*
X8720000Y8410000D02*
X8720000Y2630000D01*
X8720000Y15770000D02*
X8720000Y8410000D01*
X11430000Y5340000D02*
X11430000Y5700000D01*
X8720000Y2630000D02*
X11430000Y5340000D01*
X55550000Y13420000D02*
X55700000Y13420000D01*
X53500000Y11370000D02*
X55550000Y13420000D01*
X53500000Y10670000D02*
X53500000Y11370000D01*
X42180000Y12500000D02*
X41250000Y12500000D01*
X43100000Y13420000D02*
X42180000Y12500000D01*
X44300000Y13420000D02*
X43100000Y13420000D01*
X39000000Y14750000D02*
X41250000Y12500000D01*
X41250000Y12500000D02*
X45000000Y8750000D01*
X17000000Y48500000D02*
X18500000Y50000000D01*
X17000000Y19320000D02*
X17000000Y48500000D01*
X18500000Y50000000D02*
X20250000Y50000000D01*
X11430000Y12700000D02*
X11430000Y13750000D01*
X11430000Y13750000D02*
X17000000Y19320000D01*
X11430000Y10200000D02*
X14450000Y10200000D01*
X14450000Y10200000D02*
X20250000Y16000000D01*
X20250000Y16000000D02*
X20250000Y41750000D01*
X20250000Y41750000D02*
X20250000Y43000000D01*
X19250000Y43750000D02*
X20250000Y44750000D01*
X18250000Y42750000D02*
X19250000Y43750000D01*
X10304999Y9325001D02*
X10304999Y11639999D01*
X14324999Y11574999D02*
X18250000Y15500000D01*
X18250000Y15500000D02*
X18250000Y42750000D01*
X11430000Y8200000D02*
X10304999Y9325001D01*
X10304999Y11639999D02*
X10369999Y11574999D01*
X10369999Y11574999D02*
X14324999Y11574999D01*
X46500000Y12170000D02*
X46000000Y12670000D01*
X46500000Y10670000D02*
X46500000Y12170000D01*
X46000000Y14323136D02*
X44573136Y15750000D01*
X46000000Y12670000D02*
X46000000Y14323136D01*
X44573136Y15750000D02*
X22500000Y15750000D01*
X22500000Y15750000D02*
X21500000Y16750000D01*
X21500000Y16750000D02*
X21500000Y47500000D01*
X21060000Y47500000D02*
X20310000Y48250000D01*
X21500000Y47500000D02*
X21060000Y47500000D01*
M02*
