G04 #@! TF.GenerationSoftware,KiCad,Pcbnew,5.1.4-5.1.4*
G04 #@! TF.CreationDate,2019-09-27T17:33:58+02:00*
G04 #@! TF.ProjectId,Backcover,4261636b-636f-4766-9572-2e6b69636164,rev?*
G04 #@! TF.SameCoordinates,Original*
G04 #@! TF.FileFunction,Soldermask,Top*
G04 #@! TF.FilePolarity,Negative*
%FSLAX46Y46*%
G04 Gerber Fmt 4.6, Leading zero omitted, Abs format (unit mm)*
G04 Created by KiCad (PCBNEW 5.1.4-5.1.4) date 2019-09-27 17:33:58*
%MOMM*%
%LPD*%
G04 APERTURE LIST*
%ADD10C,0.100000*%
G04 APERTURE END LIST*
D10*
G36*
X9022585Y4151198D02*
G01*
X9172410Y4121396D01*
X9454674Y4004479D01*
X9708705Y3834741D01*
X9924741Y3618705D01*
X10094479Y3364674D01*
X10211396Y3082410D01*
X10271000Y2782760D01*
X10271000Y2477240D01*
X10211396Y2177590D01*
X10094479Y1895326D01*
X9924741Y1641295D01*
X9708705Y1425259D01*
X9454674Y1255521D01*
X9172410Y1138604D01*
X9022585Y1108802D01*
X8872761Y1079000D01*
X8567239Y1079000D01*
X8417415Y1108802D01*
X8267590Y1138604D01*
X7985326Y1255521D01*
X7731295Y1425259D01*
X7515259Y1641295D01*
X7345521Y1895326D01*
X7228604Y2177590D01*
X7169000Y2477240D01*
X7169000Y2782760D01*
X7228604Y3082410D01*
X7345521Y3364674D01*
X7515259Y3618705D01*
X7731295Y3834741D01*
X7985326Y4004479D01*
X8267590Y4121396D01*
X8417415Y4151198D01*
X8567239Y4181000D01*
X8872761Y4181000D01*
X9022585Y4151198D01*
X9022585Y4151198D01*
G37*
G36*
X11678228Y6518297D02*
G01*
X11833100Y6454147D01*
X11972481Y6361015D01*
X12091015Y6242481D01*
X12184147Y6103100D01*
X12248297Y5948228D01*
X12281000Y5783816D01*
X12281000Y5616184D01*
X12248297Y5451772D01*
X12184147Y5296900D01*
X12091015Y5157519D01*
X11972481Y5038985D01*
X11833100Y4945853D01*
X11678228Y4881703D01*
X11513816Y4849000D01*
X11346184Y4849000D01*
X11181772Y4881703D01*
X11026900Y4945853D01*
X10887519Y5038985D01*
X10768985Y5157519D01*
X10675853Y5296900D01*
X10611703Y5451772D01*
X10579000Y5616184D01*
X10579000Y5783816D01*
X10611703Y5948228D01*
X10675853Y6103100D01*
X10768985Y6242481D01*
X10887519Y6361015D01*
X11026900Y6454147D01*
X11181772Y6518297D01*
X11346184Y6551000D01*
X11513816Y6551000D01*
X11678228Y6518297D01*
X11678228Y6518297D01*
G37*
G36*
X11678228Y9018297D02*
G01*
X11833100Y8954147D01*
X11972481Y8861015D01*
X12091015Y8742481D01*
X12184147Y8603100D01*
X12248297Y8448228D01*
X12281000Y8283816D01*
X12281000Y8116184D01*
X12248297Y7951772D01*
X12184147Y7796900D01*
X12091015Y7657519D01*
X11972481Y7538985D01*
X11833100Y7445853D01*
X11678228Y7381703D01*
X11513816Y7349000D01*
X11346184Y7349000D01*
X11181772Y7381703D01*
X11026900Y7445853D01*
X10887519Y7538985D01*
X10768985Y7657519D01*
X10675853Y7796900D01*
X10611703Y7951772D01*
X10579000Y8116184D01*
X10579000Y8283816D01*
X10611703Y8448228D01*
X10675853Y8603100D01*
X10768985Y8742481D01*
X10887519Y8861015D01*
X11026900Y8954147D01*
X11181772Y9018297D01*
X11346184Y9051000D01*
X11513816Y9051000D01*
X11678228Y9018297D01*
X11678228Y9018297D01*
G37*
G36*
X11678228Y11018297D02*
G01*
X11833100Y10954147D01*
X11972481Y10861015D01*
X12091015Y10742481D01*
X12184147Y10603100D01*
X12248297Y10448228D01*
X12281000Y10283816D01*
X12281000Y10116184D01*
X12248297Y9951772D01*
X12184147Y9796900D01*
X12091015Y9657519D01*
X11972481Y9538985D01*
X11833100Y9445853D01*
X11678228Y9381703D01*
X11513816Y9349000D01*
X11346184Y9349000D01*
X11181772Y9381703D01*
X11026900Y9445853D01*
X10887519Y9538985D01*
X10768985Y9657519D01*
X10675853Y9796900D01*
X10611703Y9951772D01*
X10579000Y10116184D01*
X10579000Y10283816D01*
X10611703Y10448228D01*
X10675853Y10603100D01*
X10768985Y10742481D01*
X10887519Y10861015D01*
X11026900Y10954147D01*
X11181772Y11018297D01*
X11346184Y11051000D01*
X11513816Y11051000D01*
X11678228Y11018297D01*
X11678228Y11018297D01*
G37*
G36*
X54101000Y9369000D02*
G01*
X52899000Y9369000D01*
X52899000Y11971000D01*
X54101000Y11971000D01*
X54101000Y9369000D01*
X54101000Y9369000D01*
G37*
G36*
X49601000Y9369000D02*
G01*
X48399000Y9369000D01*
X48399000Y11971000D01*
X49601000Y11971000D01*
X49601000Y9369000D01*
X49601000Y9369000D01*
G37*
G36*
X51601000Y9369000D02*
G01*
X50399000Y9369000D01*
X50399000Y11971000D01*
X51601000Y11971000D01*
X51601000Y9369000D01*
X51601000Y9369000D01*
G37*
G36*
X47101000Y9369000D02*
G01*
X45899000Y9369000D01*
X45899000Y11971000D01*
X47101000Y11971000D01*
X47101000Y9369000D01*
X47101000Y9369000D01*
G37*
G36*
X44496227Y15206517D02*
G01*
X44684921Y15149277D01*
X44858815Y15056329D01*
X45011239Y14931239D01*
X45136329Y14778815D01*
X45229277Y14604922D01*
X45286517Y14416228D01*
X45301000Y14269175D01*
X45301000Y12570825D01*
X45286517Y12423772D01*
X45229277Y12235078D01*
X45136329Y12061185D01*
X45011239Y11908761D01*
X44858815Y11783671D01*
X44684922Y11690723D01*
X44496228Y11633483D01*
X44300000Y11614157D01*
X44103773Y11633483D01*
X43915079Y11690723D01*
X43741186Y11783671D01*
X43588762Y11908761D01*
X43463672Y12061185D01*
X43370722Y12235081D01*
X43313483Y12423769D01*
X43299000Y12570825D01*
X43299000Y14269174D01*
X43313483Y14416227D01*
X43370723Y14604921D01*
X43463671Y14778815D01*
X43588761Y14931239D01*
X43741185Y15056329D01*
X43915078Y15149277D01*
X44103772Y15206517D01*
X44300000Y15225843D01*
X44496227Y15206517D01*
X44496227Y15206517D01*
G37*
G36*
X55896227Y15206517D02*
G01*
X56084921Y15149277D01*
X56258815Y15056329D01*
X56411239Y14931239D01*
X56536329Y14778815D01*
X56629277Y14604922D01*
X56686517Y14416228D01*
X56701000Y14269175D01*
X56701000Y12570825D01*
X56686517Y12423772D01*
X56629277Y12235078D01*
X56536329Y12061185D01*
X56411239Y11908761D01*
X56258815Y11783671D01*
X56084922Y11690723D01*
X55896228Y11633483D01*
X55700000Y11614157D01*
X55503773Y11633483D01*
X55315079Y11690723D01*
X55141186Y11783671D01*
X54988762Y11908761D01*
X54863672Y12061185D01*
X54770722Y12235081D01*
X54713483Y12423769D01*
X54699000Y12570825D01*
X54699000Y14269174D01*
X54713483Y14416227D01*
X54770723Y14604921D01*
X54863671Y14778815D01*
X54988761Y14931239D01*
X55141185Y15056329D01*
X55315078Y15149277D01*
X55503772Y15206517D01*
X55700000Y15225843D01*
X55896227Y15206517D01*
X55896227Y15206517D01*
G37*
G36*
X12281000Y11849000D02*
G01*
X10579000Y11849000D01*
X10579000Y13551000D01*
X12281000Y13551000D01*
X12281000Y11849000D01*
X12281000Y11849000D01*
G37*
G36*
X47836601Y14005603D02*
G01*
X47875305Y13997904D01*
X47907340Y13984635D01*
X47984680Y13952600D01*
X48083115Y13886827D01*
X48166827Y13803115D01*
X48232600Y13704680D01*
X48277904Y13595304D01*
X48301000Y13479195D01*
X48301000Y13360805D01*
X48277904Y13244696D01*
X48232600Y13135320D01*
X48166827Y13036885D01*
X48083115Y12953173D01*
X47984680Y12887400D01*
X47907340Y12855365D01*
X47875305Y12842096D01*
X47836601Y12834397D01*
X47759195Y12819000D01*
X47640805Y12819000D01*
X47563399Y12834397D01*
X47524695Y12842096D01*
X47492660Y12855365D01*
X47415320Y12887400D01*
X47316885Y12953173D01*
X47233173Y13036885D01*
X47167400Y13135320D01*
X47122096Y13244696D01*
X47099000Y13360805D01*
X47099000Y13479195D01*
X47122096Y13595304D01*
X47167400Y13704680D01*
X47233173Y13803115D01*
X47316885Y13886827D01*
X47415320Y13952600D01*
X47492660Y13984635D01*
X47524695Y13997904D01*
X47563399Y14005603D01*
X47640805Y14021000D01*
X47759195Y14021000D01*
X47836601Y14005603D01*
X47836601Y14005603D01*
G37*
G36*
X52436601Y14005603D02*
G01*
X52475305Y13997904D01*
X52507340Y13984635D01*
X52584680Y13952600D01*
X52683115Y13886827D01*
X52766827Y13803115D01*
X52832600Y13704680D01*
X52877904Y13595304D01*
X52901000Y13479195D01*
X52901000Y13360805D01*
X52877904Y13244696D01*
X52832600Y13135320D01*
X52766827Y13036885D01*
X52683115Y12953173D01*
X52584680Y12887400D01*
X52507340Y12855365D01*
X52475305Y12842096D01*
X52436601Y12834397D01*
X52359195Y12819000D01*
X52240805Y12819000D01*
X52163399Y12834397D01*
X52124695Y12842096D01*
X52092660Y12855365D01*
X52015320Y12887400D01*
X51916885Y12953173D01*
X51833173Y13036885D01*
X51767400Y13135320D01*
X51722096Y13244696D01*
X51699000Y13360805D01*
X51699000Y13479195D01*
X51722096Y13595304D01*
X51767400Y13704680D01*
X51833173Y13803115D01*
X51916885Y13886827D01*
X52015320Y13952600D01*
X52092660Y13984635D01*
X52124695Y13997904D01*
X52163399Y14005603D01*
X52240805Y14021000D01*
X52359195Y14021000D01*
X52436601Y14005603D01*
X52436601Y14005603D01*
G37*
G36*
X9022585Y17291198D02*
G01*
X9172410Y17261396D01*
X9454674Y17144479D01*
X9708705Y16974741D01*
X9924741Y16758705D01*
X10094479Y16504674D01*
X10211396Y16222410D01*
X10271000Y15922760D01*
X10271000Y15617240D01*
X10211396Y15317590D01*
X10094479Y15035326D01*
X9924741Y14781295D01*
X9708705Y14565259D01*
X9454674Y14395521D01*
X9172410Y14278604D01*
X9022585Y14248802D01*
X8872761Y14219000D01*
X8567239Y14219000D01*
X8417415Y14248802D01*
X8267590Y14278604D01*
X7985326Y14395521D01*
X7731295Y14565259D01*
X7515259Y14781295D01*
X7345521Y15035326D01*
X7228604Y15317590D01*
X7169000Y15617240D01*
X7169000Y15922760D01*
X7228604Y16222410D01*
X7345521Y16504674D01*
X7515259Y16758705D01*
X7731295Y16974741D01*
X7985326Y17144479D01*
X8267590Y17261396D01*
X8417415Y17291198D01*
X8567239Y17321000D01*
X8872761Y17321000D01*
X9022585Y17291198D01*
X9022585Y17291198D01*
G37*
M02*
