G04 #@! TF.GenerationSoftware,KiCad,Pcbnew,5.1.4-5.1.4*
G04 #@! TF.CreationDate,2019-09-27T17:33:58+02:00*
G04 #@! TF.ProjectId,Backcover,4261636b-636f-4766-9572-2e6b69636164,rev?*
G04 #@! TF.SameCoordinates,Original*
G04 #@! TF.FileFunction,Legend,Top*
G04 #@! TF.FilePolarity,Positive*
%FSLAX46Y46*%
G04 Gerber Fmt 4.6, Leading zero omitted, Abs format (unit mm)*
G04 Created by KiCad (PCBNEW 5.1.4-5.1.4) date 2019-09-27 17:33:58*
%MOMM*%
%LPD*%
G04 APERTURE LIST*
%ADD10C,0.010000*%
%ADD11C,0.120000*%
%ADD12C,0.150000*%
G04 APERTURE END LIST*
D10*
G36*
X31639878Y15962224D02*
G01*
X31745612Y15961645D01*
X31822132Y15960078D01*
X31874372Y15957028D01*
X31907263Y15952004D01*
X31925737Y15944511D01*
X31934727Y15934056D01*
X31939163Y15920147D01*
X31939594Y15918346D01*
X31946333Y15885855D01*
X31958808Y15821748D01*
X31975719Y15732849D01*
X31995771Y15625981D01*
X32017664Y15507967D01*
X32018429Y15503822D01*
X32040359Y15388169D01*
X32060877Y15285986D01*
X32078659Y15203402D01*
X32092381Y15146544D01*
X32100718Y15121542D01*
X32101116Y15121099D01*
X32125677Y15108890D01*
X32176315Y15088544D01*
X32242095Y15064455D01*
X32242461Y15064326D01*
X32325317Y15033182D01*
X32423000Y14993509D01*
X32515077Y14953619D01*
X32519434Y14951647D01*
X32669407Y14883580D01*
X33001498Y15110361D01*
X33103374Y15179496D01*
X33195657Y15241303D01*
X33273003Y15292267D01*
X33330064Y15328873D01*
X33361495Y15347606D01*
X33364479Y15348996D01*
X33387321Y15342810D01*
X33429982Y15312965D01*
X33494128Y15258053D01*
X33581421Y15176666D01*
X33670535Y15090078D01*
X33756441Y15004753D01*
X33833327Y14926892D01*
X33896564Y14861303D01*
X33941523Y14812795D01*
X33963576Y14786175D01*
X33964396Y14784805D01*
X33966834Y14766537D01*
X33957650Y14736705D01*
X33934574Y14691279D01*
X33895337Y14626230D01*
X33837670Y14537530D01*
X33760795Y14423343D01*
X33692570Y14322838D01*
X33631582Y14232697D01*
X33581356Y14158151D01*
X33545416Y14104435D01*
X33527287Y14076782D01*
X33526146Y14074905D01*
X33528359Y14048410D01*
X33545138Y13996914D01*
X33573142Y13930149D01*
X33583122Y13908828D01*
X33626672Y13813841D01*
X33673134Y13706063D01*
X33710877Y13612808D01*
X33738073Y13543594D01*
X33759675Y13490994D01*
X33772158Y13463503D01*
X33773709Y13461384D01*
X33796668Y13457876D01*
X33850786Y13448262D01*
X33928868Y13433911D01*
X34023719Y13416193D01*
X34128143Y13396475D01*
X34234944Y13376126D01*
X34336926Y13356514D01*
X34426894Y13339009D01*
X34497653Y13324978D01*
X34542006Y13315791D01*
X34552885Y13313193D01*
X34564122Y13306782D01*
X34572605Y13292303D01*
X34578714Y13264867D01*
X34582832Y13219589D01*
X34585341Y13151580D01*
X34586621Y13055953D01*
X34587054Y12927820D01*
X34587077Y12875299D01*
X34587077Y12448155D01*
X34484500Y12427909D01*
X34427431Y12416930D01*
X34342269Y12400905D01*
X34239372Y12381767D01*
X34129096Y12361449D01*
X34098615Y12355868D01*
X33996855Y12336083D01*
X33908205Y12316627D01*
X33840108Y12299303D01*
X33800004Y12285912D01*
X33793323Y12281921D01*
X33776919Y12253658D01*
X33753399Y12198891D01*
X33727316Y12128412D01*
X33722142Y12113231D01*
X33687956Y12019104D01*
X33645523Y11912899D01*
X33603997Y11817527D01*
X33603792Y11817084D01*
X33534640Y11667475D01*
X33989512Y10998383D01*
X33697500Y10705884D01*
X33609180Y10618830D01*
X33528625Y10542091D01*
X33460360Y10479763D01*
X33408908Y10435944D01*
X33378794Y10414730D01*
X33374474Y10413384D01*
X33349111Y10423984D01*
X33297358Y10453453D01*
X33224868Y10498295D01*
X33137294Y10555016D01*
X33042612Y10618538D01*
X32946516Y10683332D01*
X32860837Y10739713D01*
X32791016Y10784212D01*
X32742494Y10813361D01*
X32720782Y10823692D01*
X32694293Y10814950D01*
X32644062Y10791913D01*
X32580451Y10759369D01*
X32573708Y10755751D01*
X32488046Y10712790D01*
X32429306Y10691721D01*
X32392772Y10691497D01*
X32373731Y10711072D01*
X32373620Y10711346D01*
X32364102Y10734528D01*
X32341403Y10789559D01*
X32307282Y10872178D01*
X32263500Y10978128D01*
X32211816Y11103148D01*
X32153992Y11242980D01*
X32097991Y11378363D01*
X32036447Y11527766D01*
X31979939Y11666168D01*
X31930161Y11789327D01*
X31888806Y11892998D01*
X31857568Y11972941D01*
X31838141Y12024912D01*
X31832154Y12044308D01*
X31847168Y12066557D01*
X31886439Y12102018D01*
X31938807Y12141113D01*
X32087941Y12264755D01*
X32204511Y12406478D01*
X32287118Y12563296D01*
X32334366Y12732225D01*
X32344857Y12910278D01*
X32337231Y12992461D01*
X32295682Y13162969D01*
X32224123Y13313541D01*
X32126995Y13442691D01*
X32008734Y13548936D01*
X31873780Y13630790D01*
X31726571Y13686768D01*
X31571544Y13715385D01*
X31413139Y13715156D01*
X31255794Y13684595D01*
X31103946Y13622218D01*
X30962035Y13526540D01*
X30902803Y13472428D01*
X30789203Y13333480D01*
X30710106Y13181639D01*
X30664986Y13021333D01*
X30653316Y12856988D01*
X30674569Y12693029D01*
X30728220Y12533882D01*
X30813740Y12383975D01*
X30930605Y12247733D01*
X31061193Y12141113D01*
X31115588Y12100358D01*
X31154014Y12065282D01*
X31167846Y12044274D01*
X31160603Y12021365D01*
X31140005Y11966635D01*
X31107746Y11884328D01*
X31065521Y11778685D01*
X31015023Y11653950D01*
X30957948Y11514364D01*
X30901854Y11378330D01*
X30839967Y11228799D01*
X30782644Y11090233D01*
X30731644Y10966893D01*
X30688727Y10863036D01*
X30655653Y10782920D01*
X30634181Y10730805D01*
X30626225Y10711346D01*
X30607429Y10691577D01*
X30571074Y10691635D01*
X30512479Y10712559D01*
X30426968Y10755387D01*
X30426292Y10755751D01*
X30361907Y10788988D01*
X30309861Y10813198D01*
X30280512Y10823596D01*
X30279217Y10823692D01*
X30257124Y10813145D01*
X30208348Y10783816D01*
X30138331Y10739173D01*
X30052514Y10682686D01*
X29957388Y10618538D01*
X29860540Y10553589D01*
X29773253Y10497104D01*
X29701181Y10452579D01*
X29649977Y10423510D01*
X29625526Y10413384D01*
X29603010Y10426693D01*
X29557742Y10463888D01*
X29494244Y10520872D01*
X29417039Y10593551D01*
X29330651Y10677829D01*
X29302399Y10705984D01*
X29010287Y10998584D01*
X29232631Y11324896D01*
X29300202Y11425103D01*
X29359507Y11515037D01*
X29407217Y11589490D01*
X29440007Y11643249D01*
X29454548Y11671106D01*
X29454974Y11673088D01*
X29447308Y11699345D01*
X29426689Y11752163D01*
X29396685Y11822690D01*
X29375625Y11869907D01*
X29336248Y11960306D01*
X29299165Y12051634D01*
X29270415Y12128800D01*
X29262605Y12152308D01*
X29240417Y12215084D01*
X29218727Y12263589D01*
X29206813Y12281921D01*
X29180523Y12293141D01*
X29123142Y12309046D01*
X29042118Y12327833D01*
X28944895Y12347701D01*
X28901385Y12355868D01*
X28790896Y12376171D01*
X28684916Y12395830D01*
X28593801Y12412912D01*
X28527908Y12425482D01*
X28515500Y12427909D01*
X28412923Y12448155D01*
X28412923Y12875299D01*
X28413153Y13015754D01*
X28414099Y13122021D01*
X28416141Y13198987D01*
X28419662Y13251540D01*
X28425043Y13284567D01*
X28432666Y13302955D01*
X28442912Y13311592D01*
X28447115Y13313193D01*
X28472470Y13318873D01*
X28528484Y13330205D01*
X28607964Y13345821D01*
X28703712Y13364353D01*
X28808533Y13384431D01*
X28915232Y13404688D01*
X29016613Y13423754D01*
X29105479Y13440261D01*
X29174637Y13452841D01*
X29216889Y13460125D01*
X29226290Y13461384D01*
X29234807Y13478237D01*
X29253660Y13523130D01*
X29279324Y13587570D01*
X29289123Y13612808D01*
X29328648Y13710314D01*
X29375192Y13818041D01*
X29416877Y13908828D01*
X29447550Y13978247D01*
X29467956Y14035290D01*
X29474768Y14070223D01*
X29473682Y14074905D01*
X29459285Y14097009D01*
X29426412Y14146169D01*
X29378590Y14217152D01*
X29319348Y14304722D01*
X29252215Y14403643D01*
X29238941Y14423170D01*
X29161046Y14538860D01*
X29103787Y14626956D01*
X29064881Y14691514D01*
X29042044Y14736589D01*
X29032994Y14766237D01*
X29035448Y14784515D01*
X29035511Y14784631D01*
X29054827Y14808639D01*
X29097551Y14855053D01*
X29159051Y14919063D01*
X29234698Y14995855D01*
X29319861Y15080618D01*
X29329465Y15090078D01*
X29436790Y15194011D01*
X29519615Y15270325D01*
X29579605Y15320429D01*
X29618423Y15345730D01*
X29635520Y15348996D01*
X29660473Y15334750D01*
X29712255Y15301844D01*
X29785520Y15253792D01*
X29874920Y15194110D01*
X29975111Y15126312D01*
X29998501Y15110361D01*
X30330593Y14883580D01*
X30480565Y14951647D01*
X30571770Y14991315D01*
X30669669Y15031209D01*
X30753831Y15063017D01*
X30757538Y15064326D01*
X30823369Y15088424D01*
X30874116Y15108800D01*
X30898842Y15121064D01*
X30898884Y15121099D01*
X30906729Y15143266D01*
X30920066Y15197783D01*
X30937570Y15278520D01*
X30957917Y15379350D01*
X30979782Y15494144D01*
X30981571Y15503822D01*
X31003504Y15622096D01*
X31023640Y15729458D01*
X31040680Y15819083D01*
X31053328Y15884149D01*
X31060284Y15917832D01*
X31060406Y15918346D01*
X31064639Y15932675D01*
X31072871Y15943493D01*
X31090033Y15951294D01*
X31121058Y15956571D01*
X31170878Y15959818D01*
X31244424Y15961528D01*
X31346629Y15962193D01*
X31482425Y15962307D01*
X31500000Y15962308D01*
X31639878Y15962224D01*
X31639878Y15962224D01*
G37*
X31639878Y15962224D02*
X31745612Y15961645D01*
X31822132Y15960078D01*
X31874372Y15957028D01*
X31907263Y15952004D01*
X31925737Y15944511D01*
X31934727Y15934056D01*
X31939163Y15920147D01*
X31939594Y15918346D01*
X31946333Y15885855D01*
X31958808Y15821748D01*
X31975719Y15732849D01*
X31995771Y15625981D01*
X32017664Y15507967D01*
X32018429Y15503822D01*
X32040359Y15388169D01*
X32060877Y15285986D01*
X32078659Y15203402D01*
X32092381Y15146544D01*
X32100718Y15121542D01*
X32101116Y15121099D01*
X32125677Y15108890D01*
X32176315Y15088544D01*
X32242095Y15064455D01*
X32242461Y15064326D01*
X32325317Y15033182D01*
X32423000Y14993509D01*
X32515077Y14953619D01*
X32519434Y14951647D01*
X32669407Y14883580D01*
X33001498Y15110361D01*
X33103374Y15179496D01*
X33195657Y15241303D01*
X33273003Y15292267D01*
X33330064Y15328873D01*
X33361495Y15347606D01*
X33364479Y15348996D01*
X33387321Y15342810D01*
X33429982Y15312965D01*
X33494128Y15258053D01*
X33581421Y15176666D01*
X33670535Y15090078D01*
X33756441Y15004753D01*
X33833327Y14926892D01*
X33896564Y14861303D01*
X33941523Y14812795D01*
X33963576Y14786175D01*
X33964396Y14784805D01*
X33966834Y14766537D01*
X33957650Y14736705D01*
X33934574Y14691279D01*
X33895337Y14626230D01*
X33837670Y14537530D01*
X33760795Y14423343D01*
X33692570Y14322838D01*
X33631582Y14232697D01*
X33581356Y14158151D01*
X33545416Y14104435D01*
X33527287Y14076782D01*
X33526146Y14074905D01*
X33528359Y14048410D01*
X33545138Y13996914D01*
X33573142Y13930149D01*
X33583122Y13908828D01*
X33626672Y13813841D01*
X33673134Y13706063D01*
X33710877Y13612808D01*
X33738073Y13543594D01*
X33759675Y13490994D01*
X33772158Y13463503D01*
X33773709Y13461384D01*
X33796668Y13457876D01*
X33850786Y13448262D01*
X33928868Y13433911D01*
X34023719Y13416193D01*
X34128143Y13396475D01*
X34234944Y13376126D01*
X34336926Y13356514D01*
X34426894Y13339009D01*
X34497653Y13324978D01*
X34542006Y13315791D01*
X34552885Y13313193D01*
X34564122Y13306782D01*
X34572605Y13292303D01*
X34578714Y13264867D01*
X34582832Y13219589D01*
X34585341Y13151580D01*
X34586621Y13055953D01*
X34587054Y12927820D01*
X34587077Y12875299D01*
X34587077Y12448155D01*
X34484500Y12427909D01*
X34427431Y12416930D01*
X34342269Y12400905D01*
X34239372Y12381767D01*
X34129096Y12361449D01*
X34098615Y12355868D01*
X33996855Y12336083D01*
X33908205Y12316627D01*
X33840108Y12299303D01*
X33800004Y12285912D01*
X33793323Y12281921D01*
X33776919Y12253658D01*
X33753399Y12198891D01*
X33727316Y12128412D01*
X33722142Y12113231D01*
X33687956Y12019104D01*
X33645523Y11912899D01*
X33603997Y11817527D01*
X33603792Y11817084D01*
X33534640Y11667475D01*
X33989512Y10998383D01*
X33697500Y10705884D01*
X33609180Y10618830D01*
X33528625Y10542091D01*
X33460360Y10479763D01*
X33408908Y10435944D01*
X33378794Y10414730D01*
X33374474Y10413384D01*
X33349111Y10423984D01*
X33297358Y10453453D01*
X33224868Y10498295D01*
X33137294Y10555016D01*
X33042612Y10618538D01*
X32946516Y10683332D01*
X32860837Y10739713D01*
X32791016Y10784212D01*
X32742494Y10813361D01*
X32720782Y10823692D01*
X32694293Y10814950D01*
X32644062Y10791913D01*
X32580451Y10759369D01*
X32573708Y10755751D01*
X32488046Y10712790D01*
X32429306Y10691721D01*
X32392772Y10691497D01*
X32373731Y10711072D01*
X32373620Y10711346D01*
X32364102Y10734528D01*
X32341403Y10789559D01*
X32307282Y10872178D01*
X32263500Y10978128D01*
X32211816Y11103148D01*
X32153992Y11242980D01*
X32097991Y11378363D01*
X32036447Y11527766D01*
X31979939Y11666168D01*
X31930161Y11789327D01*
X31888806Y11892998D01*
X31857568Y11972941D01*
X31838141Y12024912D01*
X31832154Y12044308D01*
X31847168Y12066557D01*
X31886439Y12102018D01*
X31938807Y12141113D01*
X32087941Y12264755D01*
X32204511Y12406478D01*
X32287118Y12563296D01*
X32334366Y12732225D01*
X32344857Y12910278D01*
X32337231Y12992461D01*
X32295682Y13162969D01*
X32224123Y13313541D01*
X32126995Y13442691D01*
X32008734Y13548936D01*
X31873780Y13630790D01*
X31726571Y13686768D01*
X31571544Y13715385D01*
X31413139Y13715156D01*
X31255794Y13684595D01*
X31103946Y13622218D01*
X30962035Y13526540D01*
X30902803Y13472428D01*
X30789203Y13333480D01*
X30710106Y13181639D01*
X30664986Y13021333D01*
X30653316Y12856988D01*
X30674569Y12693029D01*
X30728220Y12533882D01*
X30813740Y12383975D01*
X30930605Y12247733D01*
X31061193Y12141113D01*
X31115588Y12100358D01*
X31154014Y12065282D01*
X31167846Y12044274D01*
X31160603Y12021365D01*
X31140005Y11966635D01*
X31107746Y11884328D01*
X31065521Y11778685D01*
X31015023Y11653950D01*
X30957948Y11514364D01*
X30901854Y11378330D01*
X30839967Y11228799D01*
X30782644Y11090233D01*
X30731644Y10966893D01*
X30688727Y10863036D01*
X30655653Y10782920D01*
X30634181Y10730805D01*
X30626225Y10711346D01*
X30607429Y10691577D01*
X30571074Y10691635D01*
X30512479Y10712559D01*
X30426968Y10755387D01*
X30426292Y10755751D01*
X30361907Y10788988D01*
X30309861Y10813198D01*
X30280512Y10823596D01*
X30279217Y10823692D01*
X30257124Y10813145D01*
X30208348Y10783816D01*
X30138331Y10739173D01*
X30052514Y10682686D01*
X29957388Y10618538D01*
X29860540Y10553589D01*
X29773253Y10497104D01*
X29701181Y10452579D01*
X29649977Y10423510D01*
X29625526Y10413384D01*
X29603010Y10426693D01*
X29557742Y10463888D01*
X29494244Y10520872D01*
X29417039Y10593551D01*
X29330651Y10677829D01*
X29302399Y10705984D01*
X29010287Y10998584D01*
X29232631Y11324896D01*
X29300202Y11425103D01*
X29359507Y11515037D01*
X29407217Y11589490D01*
X29440007Y11643249D01*
X29454548Y11671106D01*
X29454974Y11673088D01*
X29447308Y11699345D01*
X29426689Y11752163D01*
X29396685Y11822690D01*
X29375625Y11869907D01*
X29336248Y11960306D01*
X29299165Y12051634D01*
X29270415Y12128800D01*
X29262605Y12152308D01*
X29240417Y12215084D01*
X29218727Y12263589D01*
X29206813Y12281921D01*
X29180523Y12293141D01*
X29123142Y12309046D01*
X29042118Y12327833D01*
X28944895Y12347701D01*
X28901385Y12355868D01*
X28790896Y12376171D01*
X28684916Y12395830D01*
X28593801Y12412912D01*
X28527908Y12425482D01*
X28515500Y12427909D01*
X28412923Y12448155D01*
X28412923Y12875299D01*
X28413153Y13015754D01*
X28414099Y13122021D01*
X28416141Y13198987D01*
X28419662Y13251540D01*
X28425043Y13284567D01*
X28432666Y13302955D01*
X28442912Y13311592D01*
X28447115Y13313193D01*
X28472470Y13318873D01*
X28528484Y13330205D01*
X28607964Y13345821D01*
X28703712Y13364353D01*
X28808533Y13384431D01*
X28915232Y13404688D01*
X29016613Y13423754D01*
X29105479Y13440261D01*
X29174637Y13452841D01*
X29216889Y13460125D01*
X29226290Y13461384D01*
X29234807Y13478237D01*
X29253660Y13523130D01*
X29279324Y13587570D01*
X29289123Y13612808D01*
X29328648Y13710314D01*
X29375192Y13818041D01*
X29416877Y13908828D01*
X29447550Y13978247D01*
X29467956Y14035290D01*
X29474768Y14070223D01*
X29473682Y14074905D01*
X29459285Y14097009D01*
X29426412Y14146169D01*
X29378590Y14217152D01*
X29319348Y14304722D01*
X29252215Y14403643D01*
X29238941Y14423170D01*
X29161046Y14538860D01*
X29103787Y14626956D01*
X29064881Y14691514D01*
X29042044Y14736589D01*
X29032994Y14766237D01*
X29035448Y14784515D01*
X29035511Y14784631D01*
X29054827Y14808639D01*
X29097551Y14855053D01*
X29159051Y14919063D01*
X29234698Y14995855D01*
X29319861Y15080618D01*
X29329465Y15090078D01*
X29436790Y15194011D01*
X29519615Y15270325D01*
X29579605Y15320429D01*
X29618423Y15345730D01*
X29635520Y15348996D01*
X29660473Y15334750D01*
X29712255Y15301844D01*
X29785520Y15253792D01*
X29874920Y15194110D01*
X29975111Y15126312D01*
X29998501Y15110361D01*
X30330593Y14883580D01*
X30480565Y14951647D01*
X30571770Y14991315D01*
X30669669Y15031209D01*
X30753831Y15063017D01*
X30757538Y15064326D01*
X30823369Y15088424D01*
X30874116Y15108800D01*
X30898842Y15121064D01*
X30898884Y15121099D01*
X30906729Y15143266D01*
X30920066Y15197783D01*
X30937570Y15278520D01*
X30957917Y15379350D01*
X30979782Y15494144D01*
X30981571Y15503822D01*
X31003504Y15622096D01*
X31023640Y15729458D01*
X31040680Y15819083D01*
X31053328Y15884149D01*
X31060284Y15917832D01*
X31060406Y15918346D01*
X31064639Y15932675D01*
X31072871Y15943493D01*
X31090033Y15951294D01*
X31121058Y15956571D01*
X31170878Y15959818D01*
X31244424Y15961528D01*
X31346629Y15962193D01*
X31482425Y15962307D01*
X31500000Y15962308D01*
X31639878Y15962224D01*
G36*
X35745224Y9602162D02*
G01*
X35822528Y9551639D01*
X35859814Y9506410D01*
X35889353Y9424337D01*
X35891699Y9359393D01*
X35886385Y9272555D01*
X35686115Y9184897D01*
X35588739Y9140113D01*
X35525113Y9104087D01*
X35492029Y9072883D01*
X35486280Y9042564D01*
X35504658Y9009195D01*
X35524923Y8987077D01*
X35583889Y8951607D01*
X35648024Y8949121D01*
X35706926Y8976765D01*
X35750197Y9031680D01*
X35757936Y9051072D01*
X35795006Y9111636D01*
X35837654Y9137448D01*
X35896154Y9159529D01*
X35896154Y9075816D01*
X35890982Y9018850D01*
X35870723Y8970811D01*
X35828262Y8915654D01*
X35821951Y8908486D01*
X35774720Y8859415D01*
X35734121Y8833080D01*
X35683328Y8820965D01*
X35641220Y8816997D01*
X35565902Y8816009D01*
X35512286Y8828534D01*
X35478838Y8847131D01*
X35426268Y8888025D01*
X35389879Y8932252D01*
X35366850Y8987874D01*
X35354359Y9062953D01*
X35349587Y9165551D01*
X35349206Y9217624D01*
X35350501Y9280052D01*
X35468471Y9280052D01*
X35469839Y9246562D01*
X35473249Y9241077D01*
X35495753Y9248528D01*
X35544182Y9268247D01*
X35608908Y9296282D01*
X35622443Y9302308D01*
X35704244Y9343904D01*
X35749312Y9380462D01*
X35759217Y9414704D01*
X35735526Y9449352D01*
X35715960Y9464661D01*
X35645360Y9495279D01*
X35579280Y9490220D01*
X35523959Y9452849D01*
X35485636Y9386527D01*
X35473349Y9333884D01*
X35468471Y9280052D01*
X35350501Y9280052D01*
X35351730Y9339280D01*
X35361032Y9429290D01*
X35379460Y9494833D01*
X35409360Y9543088D01*
X35453080Y9581233D01*
X35472141Y9593560D01*
X35558726Y9625664D01*
X35653522Y9627684D01*
X35745224Y9602162D01*
X35745224Y9602162D01*
G37*
X35745224Y9602162D02*
X35822528Y9551639D01*
X35859814Y9506410D01*
X35889353Y9424337D01*
X35891699Y9359393D01*
X35886385Y9272555D01*
X35686115Y9184897D01*
X35588739Y9140113D01*
X35525113Y9104087D01*
X35492029Y9072883D01*
X35486280Y9042564D01*
X35504658Y9009195D01*
X35524923Y8987077D01*
X35583889Y8951607D01*
X35648024Y8949121D01*
X35706926Y8976765D01*
X35750197Y9031680D01*
X35757936Y9051072D01*
X35795006Y9111636D01*
X35837654Y9137448D01*
X35896154Y9159529D01*
X35896154Y9075816D01*
X35890982Y9018850D01*
X35870723Y8970811D01*
X35828262Y8915654D01*
X35821951Y8908486D01*
X35774720Y8859415D01*
X35734121Y8833080D01*
X35683328Y8820965D01*
X35641220Y8816997D01*
X35565902Y8816009D01*
X35512286Y8828534D01*
X35478838Y8847131D01*
X35426268Y8888025D01*
X35389879Y8932252D01*
X35366850Y8987874D01*
X35354359Y9062953D01*
X35349587Y9165551D01*
X35349206Y9217624D01*
X35350501Y9280052D01*
X35468471Y9280052D01*
X35469839Y9246562D01*
X35473249Y9241077D01*
X35495753Y9248528D01*
X35544182Y9268247D01*
X35608908Y9296282D01*
X35622443Y9302308D01*
X35704244Y9343904D01*
X35749312Y9380462D01*
X35759217Y9414704D01*
X35735526Y9449352D01*
X35715960Y9464661D01*
X35645360Y9495279D01*
X35579280Y9490220D01*
X35523959Y9452849D01*
X35485636Y9386527D01*
X35473349Y9333884D01*
X35468471Y9280052D01*
X35350501Y9280052D01*
X35351730Y9339280D01*
X35361032Y9429290D01*
X35379460Y9494833D01*
X35409360Y9543088D01*
X35453080Y9581233D01*
X35472141Y9593560D01*
X35558726Y9625664D01*
X35653522Y9627684D01*
X35745224Y9602162D01*
G36*
X35070807Y9613218D02*
G01*
X35094161Y9603012D01*
X35149902Y9558866D01*
X35197569Y9495033D01*
X35227048Y9426913D01*
X35231846Y9393330D01*
X35215760Y9346444D01*
X35180475Y9321635D01*
X35142644Y9306613D01*
X35125321Y9303845D01*
X35116886Y9323934D01*
X35100230Y9367649D01*
X35092923Y9387402D01*
X35051948Y9455729D01*
X34992622Y9489809D01*
X34916552Y9488761D01*
X34910918Y9487419D01*
X34870305Y9468164D01*
X34840448Y9430625D01*
X34820055Y9370191D01*
X34807836Y9282249D01*
X34802500Y9162187D01*
X34802000Y9098302D01*
X34801752Y8997597D01*
X34800126Y8928946D01*
X34795801Y8885327D01*
X34787454Y8859718D01*
X34773765Y8845097D01*
X34753411Y8834442D01*
X34752234Y8833905D01*
X34713038Y8817333D01*
X34693619Y8811231D01*
X34690635Y8829681D01*
X34688081Y8880677D01*
X34686140Y8957692D01*
X34684997Y9054195D01*
X34684769Y9124816D01*
X34685932Y9261475D01*
X34690479Y9365149D01*
X34699999Y9441892D01*
X34716081Y9497754D01*
X34740313Y9538788D01*
X34774286Y9571046D01*
X34807833Y9593560D01*
X34888499Y9623524D01*
X34982381Y9630282D01*
X35070807Y9613218D01*
X35070807Y9613218D01*
G37*
X35070807Y9613218D02*
X35094161Y9603012D01*
X35149902Y9558866D01*
X35197569Y9495033D01*
X35227048Y9426913D01*
X35231846Y9393330D01*
X35215760Y9346444D01*
X35180475Y9321635D01*
X35142644Y9306613D01*
X35125321Y9303845D01*
X35116886Y9323934D01*
X35100230Y9367649D01*
X35092923Y9387402D01*
X35051948Y9455729D01*
X34992622Y9489809D01*
X34916552Y9488761D01*
X34910918Y9487419D01*
X34870305Y9468164D01*
X34840448Y9430625D01*
X34820055Y9370191D01*
X34807836Y9282249D01*
X34802500Y9162187D01*
X34802000Y9098302D01*
X34801752Y8997597D01*
X34800126Y8928946D01*
X34795801Y8885327D01*
X34787454Y8859718D01*
X34773765Y8845097D01*
X34753411Y8834442D01*
X34752234Y8833905D01*
X34713038Y8817333D01*
X34693619Y8811231D01*
X34690635Y8829681D01*
X34688081Y8880677D01*
X34686140Y8957692D01*
X34684997Y9054195D01*
X34684769Y9124816D01*
X34685932Y9261475D01*
X34690479Y9365149D01*
X34699999Y9441892D01*
X34716081Y9497754D01*
X34740313Y9538788D01*
X34774286Y9571046D01*
X34807833Y9593560D01*
X34888499Y9623524D01*
X34982381Y9630282D01*
X35070807Y9613218D01*
G36*
X34387333Y9616472D02*
G01*
X34443590Y9590883D01*
X34487747Y9559876D01*
X34520101Y9525205D01*
X34542438Y9480480D01*
X34556546Y9419308D01*
X34564211Y9335299D01*
X34567220Y9222060D01*
X34567538Y9147491D01*
X34567538Y8856580D01*
X34517773Y8833905D01*
X34478576Y8817333D01*
X34459157Y8811231D01*
X34455442Y8829390D01*
X34452495Y8878352D01*
X34450691Y8949847D01*
X34450308Y9006615D01*
X34448661Y9088629D01*
X34444222Y9153691D01*
X34437740Y9193533D01*
X34432590Y9202000D01*
X34397977Y9193354D01*
X34343640Y9171177D01*
X34280722Y9141114D01*
X34220368Y9108808D01*
X34173721Y9079902D01*
X34151926Y9060039D01*
X34151839Y9059825D01*
X34153714Y9023065D01*
X34170525Y8987974D01*
X34200039Y8959472D01*
X34243116Y8949939D01*
X34279932Y8951050D01*
X34332074Y8951867D01*
X34359444Y8939651D01*
X34375882Y8907376D01*
X34377955Y8901290D01*
X34385081Y8855261D01*
X34366024Y8827313D01*
X34316353Y8813993D01*
X34262697Y8811530D01*
X34166142Y8829790D01*
X34116159Y8855869D01*
X34054429Y8917132D01*
X34021690Y8992330D01*
X34018753Y9071789D01*
X34046424Y9145833D01*
X34088047Y9192231D01*
X34129604Y9218207D01*
X34194922Y9251093D01*
X34271038Y9284443D01*
X34283726Y9289539D01*
X34367333Y9326435D01*
X34415530Y9358954D01*
X34431030Y9391282D01*
X34416550Y9427606D01*
X34391692Y9456000D01*
X34332939Y9490961D01*
X34268293Y9493583D01*
X34209008Y9466642D01*
X34166339Y9412912D01*
X34160739Y9399050D01*
X34128133Y9348064D01*
X34080530Y9310213D01*
X34020461Y9279150D01*
X34020461Y9367232D01*
X34023997Y9421049D01*
X34039156Y9463466D01*
X34072768Y9508721D01*
X34105035Y9543580D01*
X34155209Y9592938D01*
X34194193Y9619453D01*
X34236064Y9630089D01*
X34283460Y9631846D01*
X34387333Y9616472D01*
X34387333Y9616472D01*
G37*
X34387333Y9616472D02*
X34443590Y9590883D01*
X34487747Y9559876D01*
X34520101Y9525205D01*
X34542438Y9480480D01*
X34556546Y9419308D01*
X34564211Y9335299D01*
X34567220Y9222060D01*
X34567538Y9147491D01*
X34567538Y8856580D01*
X34517773Y8833905D01*
X34478576Y8817333D01*
X34459157Y8811231D01*
X34455442Y8829390D01*
X34452495Y8878352D01*
X34450691Y8949847D01*
X34450308Y9006615D01*
X34448661Y9088629D01*
X34444222Y9153691D01*
X34437740Y9193533D01*
X34432590Y9202000D01*
X34397977Y9193354D01*
X34343640Y9171177D01*
X34280722Y9141114D01*
X34220368Y9108808D01*
X34173721Y9079902D01*
X34151926Y9060039D01*
X34151839Y9059825D01*
X34153714Y9023065D01*
X34170525Y8987974D01*
X34200039Y8959472D01*
X34243116Y8949939D01*
X34279932Y8951050D01*
X34332074Y8951867D01*
X34359444Y8939651D01*
X34375882Y8907376D01*
X34377955Y8901290D01*
X34385081Y8855261D01*
X34366024Y8827313D01*
X34316353Y8813993D01*
X34262697Y8811530D01*
X34166142Y8829790D01*
X34116159Y8855869D01*
X34054429Y8917132D01*
X34021690Y8992330D01*
X34018753Y9071789D01*
X34046424Y9145833D01*
X34088047Y9192231D01*
X34129604Y9218207D01*
X34194922Y9251093D01*
X34271038Y9284443D01*
X34283726Y9289539D01*
X34367333Y9326435D01*
X34415530Y9358954D01*
X34431030Y9391282D01*
X34416550Y9427606D01*
X34391692Y9456000D01*
X34332939Y9490961D01*
X34268293Y9493583D01*
X34209008Y9466642D01*
X34166339Y9412912D01*
X34160739Y9399050D01*
X34128133Y9348064D01*
X34080530Y9310213D01*
X34020461Y9279150D01*
X34020461Y9367232D01*
X34023997Y9421049D01*
X34039156Y9463466D01*
X34072768Y9508721D01*
X34105035Y9543580D01*
X34155209Y9592938D01*
X34194193Y9619453D01*
X34236064Y9630089D01*
X34283460Y9631846D01*
X34387333Y9616472D01*
G36*
X33895929Y9613338D02*
G01*
X33898911Y9561932D01*
X33901247Y9483808D01*
X33902749Y9385143D01*
X33903231Y9281657D01*
X33903231Y8931467D01*
X33841401Y8869637D01*
X33798793Y8831538D01*
X33761390Y8816105D01*
X33710270Y8817082D01*
X33689978Y8819567D01*
X33626554Y8826800D01*
X33574095Y8830945D01*
X33561308Y8831328D01*
X33518199Y8828824D01*
X33456544Y8822538D01*
X33432638Y8819567D01*
X33373922Y8814972D01*
X33334464Y8824954D01*
X33295338Y8855772D01*
X33281215Y8869637D01*
X33219385Y8931467D01*
X33219385Y9586497D01*
X33269150Y9609171D01*
X33312002Y9625966D01*
X33337073Y9631846D01*
X33343501Y9613264D01*
X33349509Y9561345D01*
X33354697Y9481828D01*
X33358664Y9380454D01*
X33360577Y9294808D01*
X33365923Y8957769D01*
X33412560Y8951175D01*
X33454976Y8955786D01*
X33475760Y8970713D01*
X33481570Y8998623D01*
X33486530Y9058075D01*
X33490246Y9141534D01*
X33492324Y9241468D01*
X33492624Y9292896D01*
X33492923Y9588946D01*
X33554454Y9610396D01*
X33598004Y9624980D01*
X33621694Y9631781D01*
X33622377Y9631846D01*
X33624754Y9613358D01*
X33627366Y9562094D01*
X33629995Y9484351D01*
X33632421Y9386426D01*
X33634115Y9294808D01*
X33639461Y8957769D01*
X33756692Y8957769D01*
X33762072Y9265254D01*
X33767451Y9572739D01*
X33824601Y9602293D01*
X33866797Y9622587D01*
X33891770Y9631796D01*
X33892491Y9631846D01*
X33895929Y9613338D01*
X33895929Y9613338D01*
G37*
X33895929Y9613338D02*
X33898911Y9561932D01*
X33901247Y9483808D01*
X33902749Y9385143D01*
X33903231Y9281657D01*
X33903231Y8931467D01*
X33841401Y8869637D01*
X33798793Y8831538D01*
X33761390Y8816105D01*
X33710270Y8817082D01*
X33689978Y8819567D01*
X33626554Y8826800D01*
X33574095Y8830945D01*
X33561308Y8831328D01*
X33518199Y8828824D01*
X33456544Y8822538D01*
X33432638Y8819567D01*
X33373922Y8814972D01*
X33334464Y8824954D01*
X33295338Y8855772D01*
X33281215Y8869637D01*
X33219385Y8931467D01*
X33219385Y9586497D01*
X33269150Y9609171D01*
X33312002Y9625966D01*
X33337073Y9631846D01*
X33343501Y9613264D01*
X33349509Y9561345D01*
X33354697Y9481828D01*
X33358664Y9380454D01*
X33360577Y9294808D01*
X33365923Y8957769D01*
X33412560Y8951175D01*
X33454976Y8955786D01*
X33475760Y8970713D01*
X33481570Y8998623D01*
X33486530Y9058075D01*
X33490246Y9141534D01*
X33492324Y9241468D01*
X33492624Y9292896D01*
X33492923Y9588946D01*
X33554454Y9610396D01*
X33598004Y9624980D01*
X33621694Y9631781D01*
X33622377Y9631846D01*
X33624754Y9613358D01*
X33627366Y9562094D01*
X33629995Y9484351D01*
X33632421Y9386426D01*
X33634115Y9294808D01*
X33639461Y8957769D01*
X33756692Y8957769D01*
X33762072Y9265254D01*
X33767451Y9572739D01*
X33824601Y9602293D01*
X33866797Y9622587D01*
X33891770Y9631796D01*
X33892491Y9631846D01*
X33895929Y9613338D01*
G36*
X33102081Y9469711D02*
G01*
X33101833Y9323680D01*
X33100872Y9211345D01*
X33098794Y9127322D01*
X33095193Y9066231D01*
X33089665Y9022691D01*
X33081804Y8991321D01*
X33071207Y8966738D01*
X33063182Y8952706D01*
X32996728Y8876612D01*
X32912470Y8828916D01*
X32819249Y8811801D01*
X32725900Y8827454D01*
X32670312Y8855582D01*
X32611957Y8904240D01*
X32572186Y8963667D01*
X32548190Y9041493D01*
X32537161Y9145348D01*
X32535599Y9221538D01*
X32535809Y9227014D01*
X32672308Y9227014D01*
X32673141Y9139645D01*
X32676961Y9081808D01*
X32685746Y9043971D01*
X32701474Y9016602D01*
X32720266Y8995958D01*
X32783375Y8956110D01*
X32851137Y8952705D01*
X32915179Y8985975D01*
X32920164Y8990483D01*
X32941439Y9013933D01*
X32954779Y9041834D01*
X32962001Y9083359D01*
X32964923Y9147684D01*
X32965385Y9218800D01*
X32964383Y9308142D01*
X32960238Y9367742D01*
X32951236Y9406911D01*
X32935667Y9434960D01*
X32922902Y9449856D01*
X32863600Y9487425D01*
X32795301Y9491943D01*
X32730110Y9463247D01*
X32717528Y9452594D01*
X32696111Y9428937D01*
X32682744Y9400749D01*
X32675566Y9358755D01*
X32672719Y9293681D01*
X32672308Y9227014D01*
X32535809Y9227014D01*
X32540322Y9344235D01*
X32556362Y9436423D01*
X32586528Y9505731D01*
X32633629Y9559789D01*
X32670312Y9587495D01*
X32736990Y9617428D01*
X32814272Y9631322D01*
X32886110Y9627603D01*
X32926308Y9612600D01*
X32942082Y9608330D01*
X32952550Y9624250D01*
X32959856Y9666911D01*
X32965385Y9731894D01*
X32971437Y9804268D01*
X32979844Y9847813D01*
X32995141Y9872713D01*
X33021864Y9889155D01*
X33038654Y9896436D01*
X33102154Y9923037D01*
X33102081Y9469711D01*
X33102081Y9469711D01*
G37*
X33102081Y9469711D02*
X33101833Y9323680D01*
X33100872Y9211345D01*
X33098794Y9127322D01*
X33095193Y9066231D01*
X33089665Y9022691D01*
X33081804Y8991321D01*
X33071207Y8966738D01*
X33063182Y8952706D01*
X32996728Y8876612D01*
X32912470Y8828916D01*
X32819249Y8811801D01*
X32725900Y8827454D01*
X32670312Y8855582D01*
X32611957Y8904240D01*
X32572186Y8963667D01*
X32548190Y9041493D01*
X32537161Y9145348D01*
X32535599Y9221538D01*
X32535809Y9227014D01*
X32672308Y9227014D01*
X32673141Y9139645D01*
X32676961Y9081808D01*
X32685746Y9043971D01*
X32701474Y9016602D01*
X32720266Y8995958D01*
X32783375Y8956110D01*
X32851137Y8952705D01*
X32915179Y8985975D01*
X32920164Y8990483D01*
X32941439Y9013933D01*
X32954779Y9041834D01*
X32962001Y9083359D01*
X32964923Y9147684D01*
X32965385Y9218800D01*
X32964383Y9308142D01*
X32960238Y9367742D01*
X32951236Y9406911D01*
X32935667Y9434960D01*
X32922902Y9449856D01*
X32863600Y9487425D01*
X32795301Y9491943D01*
X32730110Y9463247D01*
X32717528Y9452594D01*
X32696111Y9428937D01*
X32682744Y9400749D01*
X32675566Y9358755D01*
X32672719Y9293681D01*
X32672308Y9227014D01*
X32535809Y9227014D01*
X32540322Y9344235D01*
X32556362Y9436423D01*
X32586528Y9505731D01*
X32633629Y9559789D01*
X32670312Y9587495D01*
X32736990Y9617428D01*
X32814272Y9631322D01*
X32886110Y9627603D01*
X32926308Y9612600D01*
X32942082Y9608330D01*
X32952550Y9624250D01*
X32959856Y9666911D01*
X32965385Y9731894D01*
X32971437Y9804268D01*
X32979844Y9847813D01*
X32995141Y9872713D01*
X33021864Y9889155D01*
X33038654Y9896436D01*
X33102154Y9923037D01*
X33102081Y9469711D01*
G36*
X32213362Y9625330D02*
G01*
X32302117Y9592579D01*
X32374022Y9534650D01*
X32402144Y9493872D01*
X32432802Y9419046D01*
X32432165Y9364942D01*
X32399987Y9328554D01*
X32388081Y9322367D01*
X32336675Y9303075D01*
X32310422Y9308018D01*
X32301530Y9340413D01*
X32301077Y9358308D01*
X32284797Y9424141D01*
X32242365Y9470193D01*
X32183388Y9492436D01*
X32117475Y9486839D01*
X32063895Y9457771D01*
X32045798Y9441190D01*
X32032971Y9421075D01*
X32024306Y9390668D01*
X32018696Y9343212D01*
X32015035Y9271950D01*
X32012215Y9170125D01*
X32011484Y9137885D01*
X32008820Y9027590D01*
X32005792Y8949964D01*
X32001250Y8898604D01*
X31994046Y8867110D01*
X31983033Y8849080D01*
X31967060Y8838112D01*
X31956834Y8833267D01*
X31913406Y8816699D01*
X31887842Y8811231D01*
X31879395Y8829493D01*
X31874239Y8884704D01*
X31872346Y8977501D01*
X31873689Y9108522D01*
X31874107Y9128731D01*
X31877058Y9248267D01*
X31880548Y9335551D01*
X31885514Y9397409D01*
X31892893Y9440664D01*
X31903624Y9472140D01*
X31918645Y9498661D01*
X31926502Y9510025D01*
X31971553Y9560308D01*
X32021940Y9599419D01*
X32028108Y9602833D01*
X32118458Y9629788D01*
X32213362Y9625330D01*
X32213362Y9625330D01*
G37*
X32213362Y9625330D02*
X32302117Y9592579D01*
X32374022Y9534650D01*
X32402144Y9493872D01*
X32432802Y9419046D01*
X32432165Y9364942D01*
X32399987Y9328554D01*
X32388081Y9322367D01*
X32336675Y9303075D01*
X32310422Y9308018D01*
X32301530Y9340413D01*
X32301077Y9358308D01*
X32284797Y9424141D01*
X32242365Y9470193D01*
X32183388Y9492436D01*
X32117475Y9486839D01*
X32063895Y9457771D01*
X32045798Y9441190D01*
X32032971Y9421075D01*
X32024306Y9390668D01*
X32018696Y9343212D01*
X32015035Y9271950D01*
X32012215Y9170125D01*
X32011484Y9137885D01*
X32008820Y9027590D01*
X32005792Y8949964D01*
X32001250Y8898604D01*
X31994046Y8867110D01*
X31983033Y8849080D01*
X31967060Y8838112D01*
X31956834Y8833267D01*
X31913406Y8816699D01*
X31887842Y8811231D01*
X31879395Y8829493D01*
X31874239Y8884704D01*
X31872346Y8977501D01*
X31873689Y9108522D01*
X31874107Y9128731D01*
X31877058Y9248267D01*
X31880548Y9335551D01*
X31885514Y9397409D01*
X31892893Y9440664D01*
X31903624Y9472140D01*
X31918645Y9498661D01*
X31926502Y9510025D01*
X31971553Y9560308D01*
X32021940Y9599419D01*
X32028108Y9602833D01*
X32118458Y9629788D01*
X32213362Y9625330D01*
G36*
X31553501Y9623697D02*
G01*
X31630060Y9595267D01*
X31630936Y9594721D01*
X31678285Y9559873D01*
X31713241Y9519148D01*
X31737825Y9466075D01*
X31754062Y9394186D01*
X31763975Y9297008D01*
X31769586Y9168072D01*
X31770077Y9149702D01*
X31777141Y8872713D01*
X31717695Y8841972D01*
X31674681Y8821198D01*
X31648710Y8811354D01*
X31647509Y8811231D01*
X31643014Y8829394D01*
X31639444Y8878388D01*
X31637248Y8949969D01*
X31636769Y9007932D01*
X31636758Y9101830D01*
X31632466Y9160797D01*
X31617503Y9188921D01*
X31585482Y9190294D01*
X31530014Y9169002D01*
X31446269Y9129864D01*
X31384689Y9097357D01*
X31353017Y9069155D01*
X31343706Y9038418D01*
X31343692Y9036896D01*
X31359057Y8983946D01*
X31404547Y8955340D01*
X31474166Y8951197D01*
X31524313Y8951916D01*
X31550754Y8937473D01*
X31567243Y8902782D01*
X31576733Y8858584D01*
X31563057Y8833507D01*
X31557907Y8829918D01*
X31509425Y8815504D01*
X31441531Y8813463D01*
X31371612Y8823017D01*
X31322068Y8840478D01*
X31253570Y8898636D01*
X31214634Y8979592D01*
X31206923Y9042840D01*
X31212807Y9099889D01*
X31234101Y9146458D01*
X31276265Y9187819D01*
X31344759Y9229245D01*
X31445044Y9276007D01*
X31451154Y9278650D01*
X31541490Y9320383D01*
X31597235Y9354609D01*
X31621129Y9385365D01*
X31615913Y9416689D01*
X31584328Y9452617D01*
X31574883Y9460884D01*
X31511617Y9492942D01*
X31446064Y9491593D01*
X31388972Y9460162D01*
X31351093Y9401976D01*
X31347574Y9390554D01*
X31313300Y9335163D01*
X31269809Y9308482D01*
X31206923Y9282040D01*
X31206923Y9350452D01*
X31226052Y9449890D01*
X31282831Y9541098D01*
X31312378Y9571611D01*
X31379542Y9610772D01*
X31464956Y9628500D01*
X31553501Y9623697D01*
X31553501Y9623697D01*
G37*
X31553501Y9623697D02*
X31630060Y9595267D01*
X31630936Y9594721D01*
X31678285Y9559873D01*
X31713241Y9519148D01*
X31737825Y9466075D01*
X31754062Y9394186D01*
X31763975Y9297008D01*
X31769586Y9168072D01*
X31770077Y9149702D01*
X31777141Y8872713D01*
X31717695Y8841972D01*
X31674681Y8821198D01*
X31648710Y8811354D01*
X31647509Y8811231D01*
X31643014Y8829394D01*
X31639444Y8878388D01*
X31637248Y8949969D01*
X31636769Y9007932D01*
X31636758Y9101830D01*
X31632466Y9160797D01*
X31617503Y9188921D01*
X31585482Y9190294D01*
X31530014Y9169002D01*
X31446269Y9129864D01*
X31384689Y9097357D01*
X31353017Y9069155D01*
X31343706Y9038418D01*
X31343692Y9036896D01*
X31359057Y8983946D01*
X31404547Y8955340D01*
X31474166Y8951197D01*
X31524313Y8951916D01*
X31550754Y8937473D01*
X31567243Y8902782D01*
X31576733Y8858584D01*
X31563057Y8833507D01*
X31557907Y8829918D01*
X31509425Y8815504D01*
X31441531Y8813463D01*
X31371612Y8823017D01*
X31322068Y8840478D01*
X31253570Y8898636D01*
X31214634Y8979592D01*
X31206923Y9042840D01*
X31212807Y9099889D01*
X31234101Y9146458D01*
X31276265Y9187819D01*
X31344759Y9229245D01*
X31445044Y9276007D01*
X31451154Y9278650D01*
X31541490Y9320383D01*
X31597235Y9354609D01*
X31621129Y9385365D01*
X31615913Y9416689D01*
X31584328Y9452617D01*
X31574883Y9460884D01*
X31511617Y9492942D01*
X31446064Y9491593D01*
X31388972Y9460162D01*
X31351093Y9401976D01*
X31347574Y9390554D01*
X31313300Y9335163D01*
X31269809Y9308482D01*
X31206923Y9282040D01*
X31206923Y9350452D01*
X31226052Y9449890D01*
X31282831Y9541098D01*
X31312378Y9571611D01*
X31379542Y9610772D01*
X31464956Y9628500D01*
X31553501Y9623697D01*
G36*
X30659846Y9757880D02*
G01*
X30665572Y9678020D01*
X30672149Y9630961D01*
X30681262Y9610434D01*
X30694598Y9610171D01*
X30698923Y9612622D01*
X30756444Y9630364D01*
X30831268Y9629328D01*
X30907339Y9611090D01*
X30954918Y9587495D01*
X31003702Y9549802D01*
X31039364Y9507145D01*
X31063845Y9452943D01*
X31079087Y9380616D01*
X31087030Y9283581D01*
X31089616Y9155258D01*
X31089662Y9130642D01*
X31089692Y8854130D01*
X31028161Y8832680D01*
X30984459Y8818088D01*
X30960482Y8811294D01*
X30959777Y8811231D01*
X30957415Y8829655D01*
X30955406Y8880474D01*
X30953901Y8957007D01*
X30953053Y9052570D01*
X30952923Y9110671D01*
X30952651Y9225229D01*
X30951252Y9307333D01*
X30947849Y9363607D01*
X30941567Y9400674D01*
X30931529Y9425156D01*
X30916861Y9443675D01*
X30907702Y9452594D01*
X30844789Y9488534D01*
X30776136Y9491225D01*
X30713848Y9460830D01*
X30702329Y9449856D01*
X30685433Y9429221D01*
X30673714Y9404744D01*
X30666233Y9369353D01*
X30662054Y9315974D01*
X30660237Y9237534D01*
X30659846Y9129383D01*
X30659846Y8854130D01*
X30598315Y8832680D01*
X30554613Y8818088D01*
X30530636Y8811294D01*
X30529930Y8811231D01*
X30528126Y8829931D01*
X30526500Y8882678D01*
X30525117Y8964443D01*
X30524042Y9070195D01*
X30523340Y9194906D01*
X30523077Y9333545D01*
X30523077Y9868194D01*
X30650077Y9921764D01*
X30659846Y9757880D01*
X30659846Y9757880D01*
G37*
X30659846Y9757880D02*
X30665572Y9678020D01*
X30672149Y9630961D01*
X30681262Y9610434D01*
X30694598Y9610171D01*
X30698923Y9612622D01*
X30756444Y9630364D01*
X30831268Y9629328D01*
X30907339Y9611090D01*
X30954918Y9587495D01*
X31003702Y9549802D01*
X31039364Y9507145D01*
X31063845Y9452943D01*
X31079087Y9380616D01*
X31087030Y9283581D01*
X31089616Y9155258D01*
X31089662Y9130642D01*
X31089692Y8854130D01*
X31028161Y8832680D01*
X30984459Y8818088D01*
X30960482Y8811294D01*
X30959777Y8811231D01*
X30957415Y8829655D01*
X30955406Y8880474D01*
X30953901Y8957007D01*
X30953053Y9052570D01*
X30952923Y9110671D01*
X30952651Y9225229D01*
X30951252Y9307333D01*
X30947849Y9363607D01*
X30941567Y9400674D01*
X30931529Y9425156D01*
X30916861Y9443675D01*
X30907702Y9452594D01*
X30844789Y9488534D01*
X30776136Y9491225D01*
X30713848Y9460830D01*
X30702329Y9449856D01*
X30685433Y9429221D01*
X30673714Y9404744D01*
X30666233Y9369353D01*
X30662054Y9315974D01*
X30660237Y9237534D01*
X30659846Y9129383D01*
X30659846Y8854130D01*
X30598315Y8832680D01*
X30554613Y8818088D01*
X30530636Y8811294D01*
X30529930Y8811231D01*
X30528126Y8829931D01*
X30526500Y8882678D01*
X30525117Y8964443D01*
X30524042Y9070195D01*
X30523340Y9194906D01*
X30523077Y9333545D01*
X30523077Y9868194D01*
X30650077Y9921764D01*
X30659846Y9757880D01*
G36*
X29034254Y9650255D02*
G01*
X29111286Y9598433D01*
X29170816Y9523588D01*
X29206378Y9428346D01*
X29213571Y9358244D01*
X29212754Y9328991D01*
X29205914Y9306593D01*
X29187112Y9286526D01*
X29150408Y9264267D01*
X29089862Y9235291D01*
X28999534Y9195073D01*
X28999077Y9194871D01*
X28915933Y9156790D01*
X28847753Y9122975D01*
X28801505Y9097067D01*
X28784158Y9082705D01*
X28784154Y9082589D01*
X28799443Y9051315D01*
X28835196Y9016843D01*
X28876242Y8992010D01*
X28897037Y8987077D01*
X28953770Y9004138D01*
X29002627Y9046867D01*
X29026465Y9093845D01*
X29049397Y9128478D01*
X29094318Y9167919D01*
X29147123Y9201991D01*
X29193710Y9220520D01*
X29203452Y9221538D01*
X29214418Y9204785D01*
X29215079Y9161961D01*
X29207020Y9104219D01*
X29191827Y9042711D01*
X29171086Y8988591D01*
X29170038Y8986490D01*
X29107621Y8899340D01*
X29026726Y8840061D01*
X28934856Y8810966D01*
X28839513Y8814366D01*
X28748198Y8852572D01*
X28744138Y8855259D01*
X28672306Y8920358D01*
X28625073Y9005295D01*
X28598934Y9116979D01*
X28595426Y9148357D01*
X28589213Y9296464D01*
X28596661Y9365532D01*
X28784154Y9365532D01*
X28786590Y9322448D01*
X28799914Y9309874D01*
X28833132Y9319281D01*
X28885494Y9341517D01*
X28944024Y9369390D01*
X28945479Y9370128D01*
X28995089Y9396223D01*
X29015000Y9413637D01*
X29010090Y9431893D01*
X28989416Y9455880D01*
X28936819Y9490594D01*
X28880177Y9493144D01*
X28829369Y9467881D01*
X28794276Y9419153D01*
X28784154Y9365532D01*
X28596661Y9365532D01*
X28601992Y9414964D01*
X28634778Y9508945D01*
X28680421Y9574785D01*
X28762802Y9641319D01*
X28853546Y9674324D01*
X28946185Y9676427D01*
X29034254Y9650255D01*
X29034254Y9650255D01*
G37*
X29034254Y9650255D02*
X29111286Y9598433D01*
X29170816Y9523588D01*
X29206378Y9428346D01*
X29213571Y9358244D01*
X29212754Y9328991D01*
X29205914Y9306593D01*
X29187112Y9286526D01*
X29150408Y9264267D01*
X29089862Y9235291D01*
X28999534Y9195073D01*
X28999077Y9194871D01*
X28915933Y9156790D01*
X28847753Y9122975D01*
X28801505Y9097067D01*
X28784158Y9082705D01*
X28784154Y9082589D01*
X28799443Y9051315D01*
X28835196Y9016843D01*
X28876242Y8992010D01*
X28897037Y8987077D01*
X28953770Y9004138D01*
X29002627Y9046867D01*
X29026465Y9093845D01*
X29049397Y9128478D01*
X29094318Y9167919D01*
X29147123Y9201991D01*
X29193710Y9220520D01*
X29203452Y9221538D01*
X29214418Y9204785D01*
X29215079Y9161961D01*
X29207020Y9104219D01*
X29191827Y9042711D01*
X29171086Y8988591D01*
X29170038Y8986490D01*
X29107621Y8899340D01*
X29026726Y8840061D01*
X28934856Y8810966D01*
X28839513Y8814366D01*
X28748198Y8852572D01*
X28744138Y8855259D01*
X28672306Y8920358D01*
X28625073Y9005295D01*
X28598934Y9116979D01*
X28595426Y9148357D01*
X28589213Y9296464D01*
X28596661Y9365532D01*
X28784154Y9365532D01*
X28786590Y9322448D01*
X28799914Y9309874D01*
X28833132Y9319281D01*
X28885494Y9341517D01*
X28944024Y9369390D01*
X28945479Y9370128D01*
X28995089Y9396223D01*
X29015000Y9413637D01*
X29010090Y9431893D01*
X28989416Y9455880D01*
X28936819Y9490594D01*
X28880177Y9493144D01*
X28829369Y9467881D01*
X28794276Y9419153D01*
X28784154Y9365532D01*
X28596661Y9365532D01*
X28601992Y9414964D01*
X28634778Y9508945D01*
X28680421Y9574785D01*
X28762802Y9641319D01*
X28853546Y9674324D01*
X28946185Y9676427D01*
X29034254Y9650255D01*
G36*
X27516886Y9662744D02*
G01*
X27608464Y9614591D01*
X27676049Y9537095D01*
X27700057Y9487273D01*
X27718738Y9412467D01*
X27728301Y9317948D01*
X27729208Y9214790D01*
X27721921Y9114065D01*
X27706903Y9026847D01*
X27684615Y8964209D01*
X27677765Y8953421D01*
X27596632Y8872895D01*
X27500266Y8824664D01*
X27395701Y8810550D01*
X27289968Y8832371D01*
X27260543Y8845453D01*
X27203241Y8885769D01*
X27152950Y8939225D01*
X27148197Y8946005D01*
X27128878Y8978679D01*
X27116108Y9013606D01*
X27108564Y9059586D01*
X27104924Y9125416D01*
X27103865Y9219895D01*
X27103846Y9241077D01*
X27103894Y9247818D01*
X27299231Y9247818D01*
X27300368Y9158651D01*
X27304841Y9099480D01*
X27314246Y9061259D01*
X27330176Y9034947D01*
X27338308Y9026154D01*
X27385058Y8992739D01*
X27430447Y8994263D01*
X27476340Y9023248D01*
X27503712Y9054191D01*
X27519923Y9099357D01*
X27529026Y9170580D01*
X27529651Y9178886D01*
X27531204Y9307963D01*
X27514965Y9403828D01*
X27481152Y9465893D01*
X27429984Y9493568D01*
X27411720Y9495077D01*
X27363760Y9487487D01*
X27330953Y9461192D01*
X27310895Y9410905D01*
X27301178Y9331336D01*
X27299231Y9247818D01*
X27103894Y9247818D01*
X27104574Y9341751D01*
X27107629Y9412094D01*
X27114322Y9460837D01*
X27125960Y9496712D01*
X27143853Y9528452D01*
X27147808Y9534352D01*
X27214267Y9613896D01*
X27286685Y9660071D01*
X27374849Y9678401D01*
X27404787Y9679297D01*
X27516886Y9662744D01*
X27516886Y9662744D01*
G37*
X27516886Y9662744D02*
X27608464Y9614591D01*
X27676049Y9537095D01*
X27700057Y9487273D01*
X27718738Y9412467D01*
X27728301Y9317948D01*
X27729208Y9214790D01*
X27721921Y9114065D01*
X27706903Y9026847D01*
X27684615Y8964209D01*
X27677765Y8953421D01*
X27596632Y8872895D01*
X27500266Y8824664D01*
X27395701Y8810550D01*
X27289968Y8832371D01*
X27260543Y8845453D01*
X27203241Y8885769D01*
X27152950Y8939225D01*
X27148197Y8946005D01*
X27128878Y8978679D01*
X27116108Y9013606D01*
X27108564Y9059586D01*
X27104924Y9125416D01*
X27103865Y9219895D01*
X27103846Y9241077D01*
X27103894Y9247818D01*
X27299231Y9247818D01*
X27300368Y9158651D01*
X27304841Y9099480D01*
X27314246Y9061259D01*
X27330176Y9034947D01*
X27338308Y9026154D01*
X27385058Y8992739D01*
X27430447Y8994263D01*
X27476340Y9023248D01*
X27503712Y9054191D01*
X27519923Y9099357D01*
X27529026Y9170580D01*
X27529651Y9178886D01*
X27531204Y9307963D01*
X27514965Y9403828D01*
X27481152Y9465893D01*
X27429984Y9493568D01*
X27411720Y9495077D01*
X27363760Y9487487D01*
X27330953Y9461192D01*
X27310895Y9410905D01*
X27301178Y9331336D01*
X27299231Y9247818D01*
X27103894Y9247818D01*
X27104574Y9341751D01*
X27107629Y9412094D01*
X27114322Y9460837D01*
X27125960Y9496712D01*
X27143853Y9528452D01*
X27147808Y9534352D01*
X27214267Y9613896D01*
X27286685Y9660071D01*
X27374849Y9678401D01*
X27404787Y9679297D01*
X27516886Y9662744D01*
G36*
X29771664Y9654911D02*
G01*
X29834367Y9618642D01*
X29877961Y9582642D01*
X29909845Y9544925D01*
X29931810Y9498801D01*
X29945649Y9437579D01*
X29953153Y9354569D01*
X29956117Y9243081D01*
X29956461Y9162938D01*
X29956461Y8867935D01*
X29790385Y8793485D01*
X29780615Y9116598D01*
X29776579Y9237271D01*
X29772344Y9324859D01*
X29767097Y9385350D01*
X29760025Y9424732D01*
X29750311Y9448993D01*
X29737144Y9464120D01*
X29732919Y9467394D01*
X29668909Y9492966D01*
X29604208Y9482847D01*
X29565692Y9456000D01*
X29550025Y9436976D01*
X29539180Y9412012D01*
X29532288Y9374166D01*
X29528479Y9316498D01*
X29526883Y9232065D01*
X29526615Y9144072D01*
X29526563Y9033677D01*
X29524672Y8955537D01*
X29518345Y8902835D01*
X29504983Y8868758D01*
X29481985Y8846489D01*
X29446754Y8829213D01*
X29399697Y8811262D01*
X29348303Y8791722D01*
X29354421Y9138515D01*
X29356884Y9263532D01*
X29359767Y9355918D01*
X29363898Y9422119D01*
X29370107Y9468580D01*
X29379226Y9501744D01*
X29392083Y9528056D01*
X29407584Y9551271D01*
X29482371Y9625431D01*
X29573628Y9668316D01*
X29672883Y9678588D01*
X29771664Y9654911D01*
X29771664Y9654911D01*
G37*
X29771664Y9654911D02*
X29834367Y9618642D01*
X29877961Y9582642D01*
X29909845Y9544925D01*
X29931810Y9498801D01*
X29945649Y9437579D01*
X29953153Y9354569D01*
X29956117Y9243081D01*
X29956461Y9162938D01*
X29956461Y8867935D01*
X29790385Y8793485D01*
X29780615Y9116598D01*
X29776579Y9237271D01*
X29772344Y9324859D01*
X29767097Y9385350D01*
X29760025Y9424732D01*
X29750311Y9448993D01*
X29737144Y9464120D01*
X29732919Y9467394D01*
X29668909Y9492966D01*
X29604208Y9482847D01*
X29565692Y9456000D01*
X29550025Y9436976D01*
X29539180Y9412012D01*
X29532288Y9374166D01*
X29528479Y9316498D01*
X29526883Y9232065D01*
X29526615Y9144072D01*
X29526563Y9033677D01*
X29524672Y8955537D01*
X29518345Y8902835D01*
X29504983Y8868758D01*
X29481985Y8846489D01*
X29446754Y8829213D01*
X29399697Y8811262D01*
X29348303Y8791722D01*
X29354421Y9138515D01*
X29356884Y9263532D01*
X29359767Y9355918D01*
X29363898Y9422119D01*
X29370107Y9468580D01*
X29379226Y9501744D01*
X29392083Y9528056D01*
X29407584Y9551271D01*
X29482371Y9625431D01*
X29573628Y9668316D01*
X29672883Y9678588D01*
X29771664Y9654911D01*
G36*
X28268886Y9665495D02*
G01*
X28343539Y9628273D01*
X28409431Y9559739D01*
X28427577Y9534352D01*
X28447345Y9501134D01*
X28460172Y9465055D01*
X28467510Y9416902D01*
X28470813Y9347464D01*
X28471538Y9255794D01*
X28468263Y9130170D01*
X28456877Y9035846D01*
X28435041Y8965477D01*
X28400419Y8911714D01*
X28350670Y8867212D01*
X28347014Y8864577D01*
X28297985Y8837623D01*
X28238945Y8824288D01*
X28163859Y8821000D01*
X28041795Y8821000D01*
X28041744Y8702503D01*
X28040608Y8636508D01*
X28033686Y8597798D01*
X28015598Y8574581D01*
X27980962Y8555067D01*
X27972645Y8551080D01*
X27933720Y8532397D01*
X27903583Y8520597D01*
X27881174Y8519578D01*
X27865433Y8533239D01*
X27855302Y8565478D01*
X27849723Y8620196D01*
X27847635Y8701289D01*
X27847981Y8812656D01*
X27849700Y8958198D01*
X27850237Y9001731D01*
X27852172Y9151795D01*
X27853904Y9249958D01*
X28041692Y9249958D01*
X28042748Y9166636D01*
X28047438Y9112120D01*
X28058051Y9076163D01*
X28076872Y9048518D01*
X28089650Y9035035D01*
X28141890Y8995583D01*
X28188142Y8992372D01*
X28235867Y9024951D01*
X28237077Y9026154D01*
X28256494Y9051332D01*
X28268307Y9085553D01*
X28274265Y9138252D01*
X28276120Y9218869D01*
X28276154Y9236729D01*
X28271670Y9347825D01*
X28257074Y9424839D01*
X28230650Y9471853D01*
X28190683Y9492950D01*
X28167584Y9495077D01*
X28112762Y9485100D01*
X28075158Y9452248D01*
X28052523Y9392143D01*
X28042606Y9300402D01*
X28041692Y9249958D01*
X27853904Y9249958D01*
X27854222Y9267940D01*
X27856873Y9355321D01*
X27860606Y9419095D01*
X27865907Y9464418D01*
X27873258Y9496445D01*
X27883143Y9520332D01*
X27896046Y9541236D01*
X27901579Y9549102D01*
X27974969Y9623405D01*
X28067760Y9665533D01*
X28175096Y9677278D01*
X28268886Y9665495D01*
X28268886Y9665495D01*
G37*
X28268886Y9665495D02*
X28343539Y9628273D01*
X28409431Y9559739D01*
X28427577Y9534352D01*
X28447345Y9501134D01*
X28460172Y9465055D01*
X28467510Y9416902D01*
X28470813Y9347464D01*
X28471538Y9255794D01*
X28468263Y9130170D01*
X28456877Y9035846D01*
X28435041Y8965477D01*
X28400419Y8911714D01*
X28350670Y8867212D01*
X28347014Y8864577D01*
X28297985Y8837623D01*
X28238945Y8824288D01*
X28163859Y8821000D01*
X28041795Y8821000D01*
X28041744Y8702503D01*
X28040608Y8636508D01*
X28033686Y8597798D01*
X28015598Y8574581D01*
X27980962Y8555067D01*
X27972645Y8551080D01*
X27933720Y8532397D01*
X27903583Y8520597D01*
X27881174Y8519578D01*
X27865433Y8533239D01*
X27855302Y8565478D01*
X27849723Y8620196D01*
X27847635Y8701289D01*
X27847981Y8812656D01*
X27849700Y8958198D01*
X27850237Y9001731D01*
X27852172Y9151795D01*
X27853904Y9249958D01*
X28041692Y9249958D01*
X28042748Y9166636D01*
X28047438Y9112120D01*
X28058051Y9076163D01*
X28076872Y9048518D01*
X28089650Y9035035D01*
X28141890Y8995583D01*
X28188142Y8992372D01*
X28235867Y9024951D01*
X28237077Y9026154D01*
X28256494Y9051332D01*
X28268307Y9085553D01*
X28274265Y9138252D01*
X28276120Y9218869D01*
X28276154Y9236729D01*
X28271670Y9347825D01*
X28257074Y9424839D01*
X28230650Y9471853D01*
X28190683Y9492950D01*
X28167584Y9495077D01*
X28112762Y9485100D01*
X28075158Y9452248D01*
X28052523Y9392143D01*
X28042606Y9300402D01*
X28041692Y9249958D01*
X27853904Y9249958D01*
X27854222Y9267940D01*
X27856873Y9355321D01*
X27860606Y9419095D01*
X27865907Y9464418D01*
X27873258Y9496445D01*
X27883143Y9520332D01*
X27896046Y9541236D01*
X27901579Y9549102D01*
X27974969Y9623405D01*
X28067760Y9665533D01*
X28175096Y9677278D01*
X28268886Y9665495D01*
D11*
X12690000Y13200000D02*
X12690000Y12200000D01*
X-1060000Y16450000D02*
X-1560000Y16450000D01*
X-1060000Y15450000D02*
X-1060000Y16450000D01*
X6940000Y15450000D02*
X-1060000Y15450000D01*
X12440000Y15450000D02*
X10440000Y15450000D01*
X12440000Y2950000D02*
X12440000Y15450000D01*
X10440000Y2950000D02*
X12440000Y2950000D01*
X-1060000Y2950000D02*
X6940000Y2950000D01*
X-1060000Y1950000D02*
X-1060000Y2950000D01*
X-1560000Y1950000D02*
X-1060000Y1950000D01*
X-1560000Y16450000D02*
X-1560000Y1950000D01*
X45600000Y12300000D02*
X54400000Y12300000D01*
X43855000Y15470000D02*
X43855000Y16520000D01*
X56145000Y15470000D02*
X56145000Y16520000D01*
D12*
X13142380Y8866666D02*
X13856666Y8866666D01*
X13999523Y8819047D01*
X14094761Y8723809D01*
X14142380Y8580952D01*
X14142380Y8485714D01*
X14142380Y9866666D02*
X14142380Y9295238D01*
X14142380Y9580952D02*
X13142380Y9580952D01*
X13285238Y9485714D01*
X13380476Y9390476D01*
X13428095Y9295238D01*
X41452380Y13086666D02*
X42166666Y13086666D01*
X42309523Y13039047D01*
X42404761Y12943809D01*
X42452380Y12800952D01*
X42452380Y12705714D01*
X41547619Y13515238D02*
X41500000Y13562857D01*
X41452380Y13658095D01*
X41452380Y13896190D01*
X41500000Y13991428D01*
X41547619Y14039047D01*
X41642857Y14086666D01*
X41738095Y14086666D01*
X41880952Y14039047D01*
X42452380Y13467619D01*
X42452380Y14086666D01*
X11488095Y43297619D02*
X11488095Y42488095D01*
X11535714Y42392857D01*
X11583333Y42345238D01*
X11678571Y42297619D01*
X11869047Y42297619D01*
X11964285Y42345238D01*
X12011904Y42392857D01*
X12059523Y42488095D01*
X12059523Y43297619D01*
X13059523Y42297619D02*
X12488095Y42297619D01*
X12773809Y42297619D02*
X12773809Y43297619D01*
X12678571Y43154761D01*
X12583333Y43059523D01*
X12488095Y43011904D01*
M02*
