%FSLAX45Y45*%
G04 Gerber Fmt 4.5, Leading zero omitted, Abs format (unit mm)*
G04 Created by KiCad (PCBNEW 5.1.4) date 2019-09-30 21:36:55*
%MOMM*%
%LPD*%
G04 APERTURE LIST*
%ADD10C,0.050000*%
%ADD11C,0.200000*%
%ADD12C,0.300000*%
G04 APERTURE END LIST*
D10*
X14732000Y-8382000D02*
X14732000Y-8509000D01*
X14732000Y-6477000D02*
X14732000Y-8255000D01*
X13970000Y-8255000D02*
X13716000Y-8255000D01*
X13970000Y-9652000D02*
X13970000Y-8255000D01*
X13843000Y-9652000D02*
X13970000Y-9652000D01*
X13843000Y-8382000D02*
X13843000Y-9652000D01*
X13716000Y-8382000D02*
X13843000Y-8382000D01*
X13716000Y-8255000D02*
X13716000Y-8382000D01*
X14478000Y-6477000D02*
X14732000Y-6477000D01*
X14478000Y-8255000D02*
X14478000Y-6477000D01*
X14478000Y-8255000D02*
X14732000Y-8255000D01*
X14478000Y-8382000D02*
X14732000Y-8382000D01*
X14478000Y-8788400D02*
X14478000Y-8382000D01*
X15621000Y-8788400D02*
X14478000Y-8788400D01*
X15621000Y-10007600D02*
X15621000Y-8788400D01*
X13970000Y-10007600D02*
X15621000Y-10007600D01*
X13970000Y-9779000D02*
X13970000Y-10007600D01*
X13843000Y-9779000D02*
X13970000Y-9779000D01*
X12573000Y-9779000D02*
X13843000Y-9779000D01*
X12573000Y-8382000D02*
X12573000Y-9779000D01*
X13589000Y-8382000D02*
X12573000Y-8382000D01*
X13589000Y-8255000D02*
X13589000Y-8382000D01*
X13462000Y-8128000D02*
X13589000Y-8255000D01*
X13462000Y-8001000D02*
X13462000Y-8128000D01*
X13462000Y-6477000D02*
X13462000Y-8001000D01*
X13589000Y-6350000D02*
X13462000Y-6477000D01*
X14732000Y-6350000D02*
X13589000Y-6350000D01*
X14732000Y-6350000D02*
X14732000Y-5588000D01*
X14732000Y-5588000D02*
X13208000Y-5588000D01*
X16256000Y-8509000D02*
X14732000Y-8509000D01*
X16256000Y-4572000D02*
X16256000Y-8509000D01*
X13208000Y-4572000D02*
X16256000Y-4572000D01*
X13208000Y-5588000D02*
X13208000Y-4572000D01*
D11*
X12680000Y-8997000D02*
X12720000Y-9037000D01*
X12720000Y-8997000D02*
X12680000Y-9037000D01*
X12934000Y-8997000D02*
X12974000Y-9037000D01*
X12974000Y-8997000D02*
X12934000Y-9037000D01*
X13188000Y-8997000D02*
X13228000Y-9037000D01*
X13228000Y-8997000D02*
X13188000Y-9037000D01*
X13442000Y-8997000D02*
X13482000Y-9037000D01*
X13482000Y-8997000D02*
X13442000Y-9037000D01*
X13696000Y-8997000D02*
X13736000Y-9037000D01*
X13736000Y-8997000D02*
X13696000Y-9037000D01*
X14204000Y-9505000D02*
X14244000Y-9545000D01*
X14244000Y-9505000D02*
X14204000Y-9545000D01*
X14213500Y-9241500D02*
X14253500Y-9281500D01*
X14253500Y-9241500D02*
X14213500Y-9281500D01*
X14966000Y-4679000D02*
X15006000Y-4719000D01*
X15006000Y-4679000D02*
X14966000Y-4719000D01*
X15220000Y-5314000D02*
X15260000Y-5354000D01*
X15260000Y-5314000D02*
X15220000Y-5354000D01*
X14079500Y-6921500D02*
G75*
G03X14079500Y-6921500I-46000J0D01*
G01*
X14079500Y-7171500D02*
G75*
G03X14079500Y-7171500I-46000J0D01*
G01*
X14079500Y-7371500D02*
G75*
G03X14079500Y-7371500I-46000J0D01*
G01*
X14079500Y-7621500D02*
G75*
G03X14079500Y-7621500I-46000J0D01*
G01*
X14351000Y-6808000D02*
X14351000Y-6908000D01*
X14301000Y-6858000D02*
X14401000Y-6858000D01*
X14351000Y-7062000D02*
X14351000Y-7162000D01*
X14301000Y-7112000D02*
X14401000Y-7112000D01*
X14351000Y-7316000D02*
X14351000Y-7416000D01*
X14301000Y-7366000D02*
X14401000Y-7366000D01*
X14351000Y-7570000D02*
X14351000Y-7670000D01*
X14301000Y-7620000D02*
X14401000Y-7620000D01*
X14351000Y-7824000D02*
X14351000Y-7924000D01*
X14301000Y-7874000D02*
X14401000Y-7874000D01*
X14986000Y-8268500D02*
X14986000Y-8368500D01*
X14936000Y-8318500D02*
X15036000Y-8318500D01*
X15240000Y-8268500D02*
X15240000Y-8368500D01*
X15190000Y-8318500D02*
X15290000Y-8318500D01*
X15494000Y-8268500D02*
X15494000Y-8368500D01*
X15444000Y-8318500D02*
X15544000Y-8318500D01*
X15748000Y-8268500D02*
X15748000Y-8368500D01*
X15698000Y-8318500D02*
X15798000Y-8318500D01*
X16002000Y-8268500D02*
X16002000Y-8368500D01*
X15952000Y-8318500D02*
X16052000Y-8318500D01*
X13843818Y-6695818D02*
X13843818Y-6533182D01*
X13681182Y-6533182D01*
X13681182Y-6695818D01*
X13843818Y-6695818D01*
X13843818Y-8009818D02*
X13843818Y-7847182D01*
X13681182Y-7847182D01*
X13681182Y-8009818D01*
X13843818Y-8009818D01*
D12*
X12856928Y-10475814D02*
X12856928Y-10175814D01*
X12928357Y-10175814D01*
X12971214Y-10190100D01*
X12999786Y-10218672D01*
X13014071Y-10247243D01*
X13028357Y-10304386D01*
X13028357Y-10347243D01*
X13014071Y-10404386D01*
X12999786Y-10432957D01*
X12971214Y-10461529D01*
X12928357Y-10475814D01*
X12856928Y-10475814D01*
X13156928Y-10475814D02*
X13156928Y-10275814D01*
X13156928Y-10332957D02*
X13171214Y-10304386D01*
X13185500Y-10290100D01*
X13214071Y-10275814D01*
X13242643Y-10275814D01*
X13342643Y-10475814D02*
X13342643Y-10275814D01*
X13342643Y-10175814D02*
X13328357Y-10190100D01*
X13342643Y-10204386D01*
X13356928Y-10190100D01*
X13342643Y-10175814D01*
X13342643Y-10204386D01*
X13528357Y-10475814D02*
X13499786Y-10461529D01*
X13485500Y-10432957D01*
X13485500Y-10175814D01*
X13685500Y-10475814D02*
X13656928Y-10461529D01*
X13642643Y-10432957D01*
X13642643Y-10175814D01*
X14028357Y-10475814D02*
X14028357Y-10175814D01*
X14128357Y-10390100D01*
X14228357Y-10175814D01*
X14228357Y-10475814D01*
X14499786Y-10475814D02*
X14499786Y-10318672D01*
X14485500Y-10290100D01*
X14456928Y-10275814D01*
X14399786Y-10275814D01*
X14371214Y-10290100D01*
X14499786Y-10461529D02*
X14471214Y-10475814D01*
X14399786Y-10475814D01*
X14371214Y-10461529D01*
X14356928Y-10432957D01*
X14356928Y-10404386D01*
X14371214Y-10375814D01*
X14399786Y-10361529D01*
X14471214Y-10361529D01*
X14499786Y-10347243D01*
X14642643Y-10275814D02*
X14642643Y-10575814D01*
X14642643Y-10290100D02*
X14671214Y-10275814D01*
X14728357Y-10275814D01*
X14756928Y-10290100D01*
X14771214Y-10304386D01*
X14785500Y-10332957D01*
X14785500Y-10418672D01*
X14771214Y-10447243D01*
X14756928Y-10461529D01*
X14728357Y-10475814D01*
X14671214Y-10475814D01*
X14642643Y-10461529D01*
X14914071Y-10447243D02*
X14928357Y-10461529D01*
X14914071Y-10475814D01*
X14899786Y-10461529D01*
X14914071Y-10447243D01*
X14914071Y-10475814D01*
X14914071Y-10290100D02*
X14928357Y-10304386D01*
X14914071Y-10318672D01*
X14899786Y-10304386D01*
X14914071Y-10290100D01*
X14914071Y-10318672D01*
X12530500Y-10950100D02*
X12570500Y-10990100D01*
X12570500Y-10950100D02*
X12530500Y-10990100D01*
X12914071Y-10805814D02*
X12942643Y-10805814D01*
X12971214Y-10820100D01*
X12985500Y-10834386D01*
X12999786Y-10862957D01*
X13014071Y-10920100D01*
X13014071Y-10991529D01*
X12999786Y-11048672D01*
X12985500Y-11077243D01*
X12971214Y-11091529D01*
X12942643Y-11105814D01*
X12914071Y-11105814D01*
X12885500Y-11091529D01*
X12871214Y-11077243D01*
X12856928Y-11048672D01*
X12842643Y-10991529D01*
X12842643Y-10920100D01*
X12856928Y-10862957D01*
X12871214Y-10834386D01*
X12885500Y-10820100D01*
X12914071Y-10805814D01*
X13142643Y-11077243D02*
X13156928Y-11091529D01*
X13142643Y-11105814D01*
X13128357Y-11091529D01*
X13142643Y-11077243D01*
X13142643Y-11105814D01*
X13414071Y-10905814D02*
X13414071Y-11105814D01*
X13342643Y-10791529D02*
X13271214Y-11005814D01*
X13456928Y-11005814D01*
X13628357Y-10805814D02*
X13656928Y-10805814D01*
X13685500Y-10820100D01*
X13699786Y-10834386D01*
X13714071Y-10862957D01*
X13728357Y-10920100D01*
X13728357Y-10991529D01*
X13714071Y-11048672D01*
X13699786Y-11077243D01*
X13685500Y-11091529D01*
X13656928Y-11105814D01*
X13628357Y-11105814D01*
X13599786Y-11091529D01*
X13585500Y-11077243D01*
X13571214Y-11048672D01*
X13556928Y-10991529D01*
X13556928Y-10920100D01*
X13571214Y-10862957D01*
X13585500Y-10834386D01*
X13599786Y-10820100D01*
X13628357Y-10805814D01*
X13856928Y-11105814D02*
X13856928Y-10905814D01*
X13856928Y-10934386D02*
X13871214Y-10920100D01*
X13899786Y-10905814D01*
X13942643Y-10905814D01*
X13971214Y-10920100D01*
X13985500Y-10948672D01*
X13985500Y-11105814D01*
X13985500Y-10948672D02*
X13999786Y-10920100D01*
X14028357Y-10905814D01*
X14071214Y-10905814D01*
X14099786Y-10920100D01*
X14114071Y-10948672D01*
X14114071Y-11105814D01*
X14256928Y-11105814D02*
X14256928Y-10905814D01*
X14256928Y-10934386D02*
X14271214Y-10920100D01*
X14299786Y-10905814D01*
X14342643Y-10905814D01*
X14371214Y-10920100D01*
X14385500Y-10948672D01*
X14385500Y-11105814D01*
X14385500Y-10948672D02*
X14399786Y-10920100D01*
X14428357Y-10905814D01*
X14471214Y-10905814D01*
X14499786Y-10920100D01*
X14514071Y-10948672D01*
X14514071Y-11105814D01*
X15099786Y-10791529D02*
X14842643Y-11177243D01*
X15485500Y-10805814D02*
X15514071Y-10805814D01*
X15542643Y-10820100D01*
X15556928Y-10834386D01*
X15571214Y-10862957D01*
X15585500Y-10920100D01*
X15585500Y-10991529D01*
X15571214Y-11048672D01*
X15556928Y-11077243D01*
X15542643Y-11091529D01*
X15514071Y-11105814D01*
X15485500Y-11105814D01*
X15456928Y-11091529D01*
X15442643Y-11077243D01*
X15428357Y-11048672D01*
X15414071Y-10991529D01*
X15414071Y-10920100D01*
X15428357Y-10862957D01*
X15442643Y-10834386D01*
X15456928Y-10820100D01*
X15485500Y-10805814D01*
X15714071Y-11077243D02*
X15728357Y-11091529D01*
X15714071Y-11105814D01*
X15699786Y-11091529D01*
X15714071Y-11077243D01*
X15714071Y-11105814D01*
X15914071Y-10805814D02*
X15942643Y-10805814D01*
X15971214Y-10820100D01*
X15985500Y-10834386D01*
X15999786Y-10862957D01*
X16014071Y-10920100D01*
X16014071Y-10991529D01*
X15999786Y-11048672D01*
X15985500Y-11077243D01*
X15971214Y-11091529D01*
X15942643Y-11105814D01*
X15914071Y-11105814D01*
X15885500Y-11091529D01*
X15871214Y-11077243D01*
X15856928Y-11048672D01*
X15842643Y-10991529D01*
X15842643Y-10920100D01*
X15856928Y-10862957D01*
X15871214Y-10834386D01*
X15885500Y-10820100D01*
X15914071Y-10805814D01*
X16299786Y-11105814D02*
X16128357Y-11105814D01*
X16214071Y-11105814D02*
X16214071Y-10805814D01*
X16185500Y-10848672D01*
X16156928Y-10877243D01*
X16128357Y-10891529D01*
X16556928Y-10805814D02*
X16499786Y-10805814D01*
X16471214Y-10820100D01*
X16456928Y-10834386D01*
X16428357Y-10877243D01*
X16414071Y-10934386D01*
X16414071Y-11048672D01*
X16428357Y-11077243D01*
X16442643Y-11091529D01*
X16471214Y-11105814D01*
X16528357Y-11105814D01*
X16556928Y-11091529D01*
X16571214Y-11077243D01*
X16585500Y-11048672D01*
X16585500Y-10977243D01*
X16571214Y-10948672D01*
X16556928Y-10934386D01*
X16528357Y-10920100D01*
X16471214Y-10920100D01*
X16442643Y-10934386D01*
X16428357Y-10948672D01*
X16414071Y-10977243D01*
X16699786Y-10805814D02*
X16699786Y-10862957D01*
X16814071Y-10805814D02*
X16814071Y-10862957D01*
X17256928Y-11220100D02*
X17242643Y-11205814D01*
X17214071Y-11162957D01*
X17199786Y-11134386D01*
X17185500Y-11091529D01*
X17171214Y-11020100D01*
X17171214Y-10962957D01*
X17185500Y-10891529D01*
X17199786Y-10848672D01*
X17214071Y-10820100D01*
X17242643Y-10777243D01*
X17256928Y-10762957D01*
X17385500Y-11105814D02*
X17442643Y-11105814D01*
X17471214Y-11091529D01*
X17485500Y-11077243D01*
X17514071Y-11034386D01*
X17528357Y-10977243D01*
X17528357Y-10862957D01*
X17514071Y-10834386D01*
X17499786Y-10820100D01*
X17471214Y-10805814D01*
X17414071Y-10805814D01*
X17385500Y-10820100D01*
X17371214Y-10834386D01*
X17356928Y-10862957D01*
X17356928Y-10934386D01*
X17371214Y-10962957D01*
X17385500Y-10977243D01*
X17414071Y-10991529D01*
X17471214Y-10991529D01*
X17499786Y-10977243D01*
X17514071Y-10962957D01*
X17528357Y-10934386D01*
X17885500Y-11105814D02*
X17885500Y-10805814D01*
X18014071Y-11105814D02*
X18014071Y-10948672D01*
X17999786Y-10920100D01*
X17971214Y-10905814D01*
X17928357Y-10905814D01*
X17899786Y-10920100D01*
X17885500Y-10934386D01*
X18199786Y-11105814D02*
X18171214Y-11091529D01*
X18156928Y-11077243D01*
X18142643Y-11048672D01*
X18142643Y-10962957D01*
X18156928Y-10934386D01*
X18171214Y-10920100D01*
X18199786Y-10905814D01*
X18242643Y-10905814D01*
X18271214Y-10920100D01*
X18285500Y-10934386D01*
X18299786Y-10962957D01*
X18299786Y-11048672D01*
X18285500Y-11077243D01*
X18271214Y-11091529D01*
X18242643Y-11105814D01*
X18199786Y-11105814D01*
X18471214Y-11105814D02*
X18442643Y-11091529D01*
X18428357Y-11062957D01*
X18428357Y-10805814D01*
X18699786Y-11091529D02*
X18671214Y-11105814D01*
X18614071Y-11105814D01*
X18585500Y-11091529D01*
X18571214Y-11062957D01*
X18571214Y-10948672D01*
X18585500Y-10920100D01*
X18614071Y-10905814D01*
X18671214Y-10905814D01*
X18699786Y-10920100D01*
X18714071Y-10948672D01*
X18714071Y-10977243D01*
X18571214Y-11005814D01*
X18828357Y-11091529D02*
X18856928Y-11105814D01*
X18914071Y-11105814D01*
X18942643Y-11091529D01*
X18956928Y-11062957D01*
X18956928Y-11048672D01*
X18942643Y-11020100D01*
X18914071Y-11005814D01*
X18871214Y-11005814D01*
X18842643Y-10991529D01*
X18828357Y-10962957D01*
X18828357Y-10948672D01*
X18842643Y-10920100D01*
X18871214Y-10905814D01*
X18914071Y-10905814D01*
X18942643Y-10920100D01*
X19056928Y-11220100D02*
X19071214Y-11205814D01*
X19099786Y-11162957D01*
X19114071Y-11134386D01*
X19128357Y-11091529D01*
X19142643Y-11020100D01*
X19142643Y-10962957D01*
X19128357Y-10891529D01*
X19114071Y-10848672D01*
X19099786Y-10820100D01*
X19071214Y-10777243D01*
X19056928Y-10762957D01*
X12570500Y-11366100D02*
G75*
G03X12570500Y-11366100I-46000J0D01*
G01*
X12914071Y-11201814D02*
X12942643Y-11201814D01*
X12971214Y-11216100D01*
X12985500Y-11230386D01*
X12999786Y-11258957D01*
X13014071Y-11316100D01*
X13014071Y-11387529D01*
X12999786Y-11444671D01*
X12985500Y-11473243D01*
X12971214Y-11487529D01*
X12942643Y-11501814D01*
X12914071Y-11501814D01*
X12885500Y-11487529D01*
X12871214Y-11473243D01*
X12856928Y-11444671D01*
X12842643Y-11387529D01*
X12842643Y-11316100D01*
X12856928Y-11258957D01*
X12871214Y-11230386D01*
X12885500Y-11216100D01*
X12914071Y-11201814D01*
X13142643Y-11473243D02*
X13156928Y-11487529D01*
X13142643Y-11501814D01*
X13128357Y-11487529D01*
X13142643Y-11473243D01*
X13142643Y-11501814D01*
X13299786Y-11501814D02*
X13356928Y-11501814D01*
X13385500Y-11487529D01*
X13399786Y-11473243D01*
X13428357Y-11430386D01*
X13442643Y-11373243D01*
X13442643Y-11258957D01*
X13428357Y-11230386D01*
X13414071Y-11216100D01*
X13385500Y-11201814D01*
X13328357Y-11201814D01*
X13299786Y-11216100D01*
X13285500Y-11230386D01*
X13271214Y-11258957D01*
X13271214Y-11330386D01*
X13285500Y-11358957D01*
X13299786Y-11373243D01*
X13328357Y-11387529D01*
X13385500Y-11387529D01*
X13414071Y-11373243D01*
X13428357Y-11358957D01*
X13442643Y-11330386D01*
X13556928Y-11230386D02*
X13571214Y-11216100D01*
X13599786Y-11201814D01*
X13671214Y-11201814D01*
X13699786Y-11216100D01*
X13714071Y-11230386D01*
X13728357Y-11258957D01*
X13728357Y-11287529D01*
X13714071Y-11330386D01*
X13542643Y-11501814D01*
X13728357Y-11501814D01*
X13856928Y-11501814D02*
X13856928Y-11301814D01*
X13856928Y-11330386D02*
X13871214Y-11316100D01*
X13899786Y-11301814D01*
X13942643Y-11301814D01*
X13971214Y-11316100D01*
X13985500Y-11344671D01*
X13985500Y-11501814D01*
X13985500Y-11344671D02*
X13999786Y-11316100D01*
X14028357Y-11301814D01*
X14071214Y-11301814D01*
X14099786Y-11316100D01*
X14114071Y-11344671D01*
X14114071Y-11501814D01*
X14256928Y-11501814D02*
X14256928Y-11301814D01*
X14256928Y-11330386D02*
X14271214Y-11316100D01*
X14299786Y-11301814D01*
X14342643Y-11301814D01*
X14371214Y-11316100D01*
X14385500Y-11344671D01*
X14385500Y-11501814D01*
X14385500Y-11344671D02*
X14399786Y-11316100D01*
X14428357Y-11301814D01*
X14471214Y-11301814D01*
X14499786Y-11316100D01*
X14514071Y-11344671D01*
X14514071Y-11501814D01*
X15099786Y-11187529D02*
X14842643Y-11573243D01*
X15485500Y-11201814D02*
X15514071Y-11201814D01*
X15542643Y-11216100D01*
X15556928Y-11230386D01*
X15571214Y-11258957D01*
X15585500Y-11316100D01*
X15585500Y-11387529D01*
X15571214Y-11444671D01*
X15556928Y-11473243D01*
X15542643Y-11487529D01*
X15514071Y-11501814D01*
X15485500Y-11501814D01*
X15456928Y-11487529D01*
X15442643Y-11473243D01*
X15428357Y-11444671D01*
X15414071Y-11387529D01*
X15414071Y-11316100D01*
X15428357Y-11258957D01*
X15442643Y-11230386D01*
X15456928Y-11216100D01*
X15485500Y-11201814D01*
X15714071Y-11473243D02*
X15728357Y-11487529D01*
X15714071Y-11501814D01*
X15699786Y-11487529D01*
X15714071Y-11473243D01*
X15714071Y-11501814D01*
X15914071Y-11201814D02*
X15942643Y-11201814D01*
X15971214Y-11216100D01*
X15985500Y-11230386D01*
X15999786Y-11258957D01*
X16014071Y-11316100D01*
X16014071Y-11387529D01*
X15999786Y-11444671D01*
X15985500Y-11473243D01*
X15971214Y-11487529D01*
X15942643Y-11501814D01*
X15914071Y-11501814D01*
X15885500Y-11487529D01*
X15871214Y-11473243D01*
X15856928Y-11444671D01*
X15842643Y-11387529D01*
X15842643Y-11316100D01*
X15856928Y-11258957D01*
X15871214Y-11230386D01*
X15885500Y-11216100D01*
X15914071Y-11201814D01*
X16114071Y-11201814D02*
X16299786Y-11201814D01*
X16199786Y-11316100D01*
X16242643Y-11316100D01*
X16271214Y-11330386D01*
X16285500Y-11344671D01*
X16299786Y-11373243D01*
X16299786Y-11444671D01*
X16285500Y-11473243D01*
X16271214Y-11487529D01*
X16242643Y-11501814D01*
X16156928Y-11501814D01*
X16128357Y-11487529D01*
X16114071Y-11473243D01*
X16556928Y-11201814D02*
X16499786Y-11201814D01*
X16471214Y-11216100D01*
X16456928Y-11230386D01*
X16428357Y-11273243D01*
X16414071Y-11330386D01*
X16414071Y-11444671D01*
X16428357Y-11473243D01*
X16442643Y-11487529D01*
X16471214Y-11501814D01*
X16528357Y-11501814D01*
X16556928Y-11487529D01*
X16571214Y-11473243D01*
X16585500Y-11444671D01*
X16585500Y-11373243D01*
X16571214Y-11344671D01*
X16556928Y-11330386D01*
X16528357Y-11316100D01*
X16471214Y-11316100D01*
X16442643Y-11330386D01*
X16428357Y-11344671D01*
X16414071Y-11373243D01*
X16699786Y-11201814D02*
X16699786Y-11258957D01*
X16814071Y-11201814D02*
X16814071Y-11258957D01*
X17256928Y-11616100D02*
X17242643Y-11601814D01*
X17214071Y-11558957D01*
X17199786Y-11530386D01*
X17185500Y-11487529D01*
X17171214Y-11416100D01*
X17171214Y-11358957D01*
X17185500Y-11287529D01*
X17199786Y-11244671D01*
X17214071Y-11216100D01*
X17242643Y-11173243D01*
X17256928Y-11158957D01*
X17499786Y-11301814D02*
X17499786Y-11501814D01*
X17428357Y-11187529D02*
X17356928Y-11401814D01*
X17542643Y-11401814D01*
X17885500Y-11501814D02*
X17885500Y-11201814D01*
X18014071Y-11501814D02*
X18014071Y-11344671D01*
X17999786Y-11316100D01*
X17971214Y-11301814D01*
X17928357Y-11301814D01*
X17899786Y-11316100D01*
X17885500Y-11330386D01*
X18199786Y-11501814D02*
X18171214Y-11487529D01*
X18156928Y-11473243D01*
X18142643Y-11444671D01*
X18142643Y-11358957D01*
X18156928Y-11330386D01*
X18171214Y-11316100D01*
X18199786Y-11301814D01*
X18242643Y-11301814D01*
X18271214Y-11316100D01*
X18285500Y-11330386D01*
X18299786Y-11358957D01*
X18299786Y-11444671D01*
X18285500Y-11473243D01*
X18271214Y-11487529D01*
X18242643Y-11501814D01*
X18199786Y-11501814D01*
X18471214Y-11501814D02*
X18442643Y-11487529D01*
X18428357Y-11458957D01*
X18428357Y-11201814D01*
X18699786Y-11487529D02*
X18671214Y-11501814D01*
X18614071Y-11501814D01*
X18585500Y-11487529D01*
X18571214Y-11458957D01*
X18571214Y-11344671D01*
X18585500Y-11316100D01*
X18614071Y-11301814D01*
X18671214Y-11301814D01*
X18699786Y-11316100D01*
X18714071Y-11344671D01*
X18714071Y-11373243D01*
X18571214Y-11401814D01*
X18828357Y-11487529D02*
X18856928Y-11501814D01*
X18914071Y-11501814D01*
X18942643Y-11487529D01*
X18956928Y-11458957D01*
X18956928Y-11444671D01*
X18942643Y-11416100D01*
X18914071Y-11401814D01*
X18871214Y-11401814D01*
X18842643Y-11387529D01*
X18828357Y-11358957D01*
X18828357Y-11344671D01*
X18842643Y-11316100D01*
X18871214Y-11301814D01*
X18914071Y-11301814D01*
X18942643Y-11316100D01*
X19056928Y-11616100D02*
X19071214Y-11601814D01*
X19099786Y-11558957D01*
X19114071Y-11530386D01*
X19128357Y-11487529D01*
X19142643Y-11416100D01*
X19142643Y-11358957D01*
X19128357Y-11287529D01*
X19114071Y-11244671D01*
X19099786Y-11216100D01*
X19071214Y-11173243D01*
X19056928Y-11158957D01*
X12520500Y-11712100D02*
X12520500Y-11812100D01*
X12470500Y-11762100D02*
X12570500Y-11762100D01*
X13014071Y-11897814D02*
X12842643Y-11897814D01*
X12928357Y-11897814D02*
X12928357Y-11597814D01*
X12899786Y-11640671D01*
X12871214Y-11669243D01*
X12842643Y-11683529D01*
X13142643Y-11869243D02*
X13156928Y-11883529D01*
X13142643Y-11897814D01*
X13128357Y-11883529D01*
X13142643Y-11869243D01*
X13142643Y-11897814D01*
X13342643Y-11597814D02*
X13371214Y-11597814D01*
X13399786Y-11612100D01*
X13414071Y-11626386D01*
X13428357Y-11654957D01*
X13442643Y-11712100D01*
X13442643Y-11783529D01*
X13428357Y-11840671D01*
X13414071Y-11869243D01*
X13399786Y-11883529D01*
X13371214Y-11897814D01*
X13342643Y-11897814D01*
X13314071Y-11883529D01*
X13299786Y-11869243D01*
X13285500Y-11840671D01*
X13271214Y-11783529D01*
X13271214Y-11712100D01*
X13285500Y-11654957D01*
X13299786Y-11626386D01*
X13314071Y-11612100D01*
X13342643Y-11597814D01*
X13628357Y-11597814D02*
X13656928Y-11597814D01*
X13685500Y-11612100D01*
X13699786Y-11626386D01*
X13714071Y-11654957D01*
X13728357Y-11712100D01*
X13728357Y-11783529D01*
X13714071Y-11840671D01*
X13699786Y-11869243D01*
X13685500Y-11883529D01*
X13656928Y-11897814D01*
X13628357Y-11897814D01*
X13599786Y-11883529D01*
X13585500Y-11869243D01*
X13571214Y-11840671D01*
X13556928Y-11783529D01*
X13556928Y-11712100D01*
X13571214Y-11654957D01*
X13585500Y-11626386D01*
X13599786Y-11612100D01*
X13628357Y-11597814D01*
X13856928Y-11897814D02*
X13856928Y-11697814D01*
X13856928Y-11726386D02*
X13871214Y-11712100D01*
X13899786Y-11697814D01*
X13942643Y-11697814D01*
X13971214Y-11712100D01*
X13985500Y-11740671D01*
X13985500Y-11897814D01*
X13985500Y-11740671D02*
X13999786Y-11712100D01*
X14028357Y-11697814D01*
X14071214Y-11697814D01*
X14099786Y-11712100D01*
X14114071Y-11740671D01*
X14114071Y-11897814D01*
X14256928Y-11897814D02*
X14256928Y-11697814D01*
X14256928Y-11726386D02*
X14271214Y-11712100D01*
X14299786Y-11697814D01*
X14342643Y-11697814D01*
X14371214Y-11712100D01*
X14385500Y-11740671D01*
X14385500Y-11897814D01*
X14385500Y-11740671D02*
X14399786Y-11712100D01*
X14428357Y-11697814D01*
X14471214Y-11697814D01*
X14499786Y-11712100D01*
X14514071Y-11740671D01*
X14514071Y-11897814D01*
X15099786Y-11583529D02*
X14842643Y-11969243D01*
X15485500Y-11597814D02*
X15514071Y-11597814D01*
X15542643Y-11612100D01*
X15556928Y-11626386D01*
X15571214Y-11654957D01*
X15585500Y-11712100D01*
X15585500Y-11783529D01*
X15571214Y-11840671D01*
X15556928Y-11869243D01*
X15542643Y-11883529D01*
X15514071Y-11897814D01*
X15485500Y-11897814D01*
X15456928Y-11883529D01*
X15442643Y-11869243D01*
X15428357Y-11840671D01*
X15414071Y-11783529D01*
X15414071Y-11712100D01*
X15428357Y-11654957D01*
X15442643Y-11626386D01*
X15456928Y-11612100D01*
X15485500Y-11597814D01*
X15714071Y-11869243D02*
X15728357Y-11883529D01*
X15714071Y-11897814D01*
X15699786Y-11883529D01*
X15714071Y-11869243D01*
X15714071Y-11897814D01*
X15914071Y-11597814D02*
X15942643Y-11597814D01*
X15971214Y-11612100D01*
X15985500Y-11626386D01*
X15999786Y-11654957D01*
X16014071Y-11712100D01*
X16014071Y-11783529D01*
X15999786Y-11840671D01*
X15985500Y-11869243D01*
X15971214Y-11883529D01*
X15942643Y-11897814D01*
X15914071Y-11897814D01*
X15885500Y-11883529D01*
X15871214Y-11869243D01*
X15856928Y-11840671D01*
X15842643Y-11783529D01*
X15842643Y-11712100D01*
X15856928Y-11654957D01*
X15871214Y-11626386D01*
X15885500Y-11612100D01*
X15914071Y-11597814D01*
X16114071Y-11597814D02*
X16299786Y-11597814D01*
X16199786Y-11712100D01*
X16242643Y-11712100D01*
X16271214Y-11726386D01*
X16285500Y-11740671D01*
X16299786Y-11769243D01*
X16299786Y-11840671D01*
X16285500Y-11869243D01*
X16271214Y-11883529D01*
X16242643Y-11897814D01*
X16156928Y-11897814D01*
X16128357Y-11883529D01*
X16114071Y-11869243D01*
X16442643Y-11897814D02*
X16499786Y-11897814D01*
X16528357Y-11883529D01*
X16542643Y-11869243D01*
X16571214Y-11826386D01*
X16585500Y-11769243D01*
X16585500Y-11654957D01*
X16571214Y-11626386D01*
X16556928Y-11612100D01*
X16528357Y-11597814D01*
X16471214Y-11597814D01*
X16442643Y-11612100D01*
X16428357Y-11626386D01*
X16414071Y-11654957D01*
X16414071Y-11726386D01*
X16428357Y-11754957D01*
X16442643Y-11769243D01*
X16471214Y-11783529D01*
X16528357Y-11783529D01*
X16556928Y-11769243D01*
X16571214Y-11754957D01*
X16585500Y-11726386D01*
X16699786Y-11597814D02*
X16699786Y-11654957D01*
X16814071Y-11597814D02*
X16814071Y-11654957D01*
X17256928Y-12012100D02*
X17242643Y-11997814D01*
X17214071Y-11954957D01*
X17199786Y-11926386D01*
X17185500Y-11883529D01*
X17171214Y-11812100D01*
X17171214Y-11754957D01*
X17185500Y-11683529D01*
X17199786Y-11640671D01*
X17214071Y-11612100D01*
X17242643Y-11569243D01*
X17256928Y-11554957D01*
X17528357Y-11897814D02*
X17356928Y-11897814D01*
X17442643Y-11897814D02*
X17442643Y-11597814D01*
X17414071Y-11640671D01*
X17385500Y-11669243D01*
X17356928Y-11683529D01*
X17714071Y-11597814D02*
X17742643Y-11597814D01*
X17771214Y-11612100D01*
X17785500Y-11626386D01*
X17799786Y-11654957D01*
X17814071Y-11712100D01*
X17814071Y-11783529D01*
X17799786Y-11840671D01*
X17785500Y-11869243D01*
X17771214Y-11883529D01*
X17742643Y-11897814D01*
X17714071Y-11897814D01*
X17685500Y-11883529D01*
X17671214Y-11869243D01*
X17656928Y-11840671D01*
X17642643Y-11783529D01*
X17642643Y-11712100D01*
X17656928Y-11654957D01*
X17671214Y-11626386D01*
X17685500Y-11612100D01*
X17714071Y-11597814D01*
X18171214Y-11897814D02*
X18171214Y-11597814D01*
X18299786Y-11897814D02*
X18299786Y-11740671D01*
X18285500Y-11712100D01*
X18256928Y-11697814D01*
X18214071Y-11697814D01*
X18185500Y-11712100D01*
X18171214Y-11726386D01*
X18485500Y-11897814D02*
X18456928Y-11883529D01*
X18442643Y-11869243D01*
X18428357Y-11840671D01*
X18428357Y-11754957D01*
X18442643Y-11726386D01*
X18456928Y-11712100D01*
X18485500Y-11697814D01*
X18528357Y-11697814D01*
X18556928Y-11712100D01*
X18571214Y-11726386D01*
X18585500Y-11754957D01*
X18585500Y-11840671D01*
X18571214Y-11869243D01*
X18556928Y-11883529D01*
X18528357Y-11897814D01*
X18485500Y-11897814D01*
X18756928Y-11897814D02*
X18728357Y-11883529D01*
X18714071Y-11854957D01*
X18714071Y-11597814D01*
X18985500Y-11883529D02*
X18956928Y-11897814D01*
X18899786Y-11897814D01*
X18871214Y-11883529D01*
X18856928Y-11854957D01*
X18856928Y-11740671D01*
X18871214Y-11712100D01*
X18899786Y-11697814D01*
X18956928Y-11697814D01*
X18985500Y-11712100D01*
X18999786Y-11740671D01*
X18999786Y-11769243D01*
X18856928Y-11797814D01*
X19114071Y-11883529D02*
X19142643Y-11897814D01*
X19199786Y-11897814D01*
X19228357Y-11883529D01*
X19242643Y-11854957D01*
X19242643Y-11840671D01*
X19228357Y-11812100D01*
X19199786Y-11797814D01*
X19156928Y-11797814D01*
X19128357Y-11783529D01*
X19114071Y-11754957D01*
X19114071Y-11740671D01*
X19128357Y-11712100D01*
X19156928Y-11697814D01*
X19199786Y-11697814D01*
X19228357Y-11712100D01*
X19342643Y-12012100D02*
X19356928Y-11997814D01*
X19385500Y-11954957D01*
X19399786Y-11926386D01*
X19414071Y-11883529D01*
X19428357Y-11812100D01*
X19428357Y-11754957D01*
X19414071Y-11683529D01*
X19399786Y-11640671D01*
X19385500Y-11612100D01*
X19356928Y-11569243D01*
X19342643Y-11554957D01*
X12536818Y-12239418D02*
X12536818Y-12076782D01*
X12374182Y-12076782D01*
X12374182Y-12239418D01*
X12536818Y-12239418D01*
X12842643Y-12022386D02*
X12856928Y-12008100D01*
X12885500Y-11993814D01*
X12956928Y-11993814D01*
X12985500Y-12008100D01*
X12999786Y-12022386D01*
X13014071Y-12050957D01*
X13014071Y-12079529D01*
X12999786Y-12122386D01*
X12828357Y-12293814D01*
X13014071Y-12293814D01*
X13142643Y-12265243D02*
X13156928Y-12279529D01*
X13142643Y-12293814D01*
X13128357Y-12279529D01*
X13142643Y-12265243D01*
X13142643Y-12293814D01*
X13256928Y-11993814D02*
X13442643Y-11993814D01*
X13342643Y-12108100D01*
X13385500Y-12108100D01*
X13414071Y-12122386D01*
X13428357Y-12136671D01*
X13442643Y-12165243D01*
X13442643Y-12236671D01*
X13428357Y-12265243D01*
X13414071Y-12279529D01*
X13385500Y-12293814D01*
X13299786Y-12293814D01*
X13271214Y-12279529D01*
X13256928Y-12265243D01*
X13628357Y-11993814D02*
X13656928Y-11993814D01*
X13685500Y-12008100D01*
X13699786Y-12022386D01*
X13714071Y-12050957D01*
X13728357Y-12108100D01*
X13728357Y-12179529D01*
X13714071Y-12236671D01*
X13699786Y-12265243D01*
X13685500Y-12279529D01*
X13656928Y-12293814D01*
X13628357Y-12293814D01*
X13599786Y-12279529D01*
X13585500Y-12265243D01*
X13571214Y-12236671D01*
X13556928Y-12179529D01*
X13556928Y-12108100D01*
X13571214Y-12050957D01*
X13585500Y-12022386D01*
X13599786Y-12008100D01*
X13628357Y-11993814D01*
X13856928Y-12293814D02*
X13856928Y-12093814D01*
X13856928Y-12122386D02*
X13871214Y-12108100D01*
X13899786Y-12093814D01*
X13942643Y-12093814D01*
X13971214Y-12108100D01*
X13985500Y-12136671D01*
X13985500Y-12293814D01*
X13985500Y-12136671D02*
X13999786Y-12108100D01*
X14028357Y-12093814D01*
X14071214Y-12093814D01*
X14099786Y-12108100D01*
X14114071Y-12136671D01*
X14114071Y-12293814D01*
X14256928Y-12293814D02*
X14256928Y-12093814D01*
X14256928Y-12122386D02*
X14271214Y-12108100D01*
X14299786Y-12093814D01*
X14342643Y-12093814D01*
X14371214Y-12108100D01*
X14385500Y-12136671D01*
X14385500Y-12293814D01*
X14385500Y-12136671D02*
X14399786Y-12108100D01*
X14428357Y-12093814D01*
X14471214Y-12093814D01*
X14499786Y-12108100D01*
X14514071Y-12136671D01*
X14514071Y-12293814D01*
X15099786Y-11979529D02*
X14842643Y-12365243D01*
X15485500Y-11993814D02*
X15514071Y-11993814D01*
X15542643Y-12008100D01*
X15556928Y-12022386D01*
X15571214Y-12050957D01*
X15585500Y-12108100D01*
X15585500Y-12179529D01*
X15571214Y-12236671D01*
X15556928Y-12265243D01*
X15542643Y-12279529D01*
X15514071Y-12293814D01*
X15485500Y-12293814D01*
X15456928Y-12279529D01*
X15442643Y-12265243D01*
X15428357Y-12236671D01*
X15414071Y-12179529D01*
X15414071Y-12108100D01*
X15428357Y-12050957D01*
X15442643Y-12022386D01*
X15456928Y-12008100D01*
X15485500Y-11993814D01*
X15714071Y-12265243D02*
X15728357Y-12279529D01*
X15714071Y-12293814D01*
X15699786Y-12279529D01*
X15714071Y-12265243D01*
X15714071Y-12293814D01*
X15914071Y-11993814D02*
X15942643Y-11993814D01*
X15971214Y-12008100D01*
X15985500Y-12022386D01*
X15999786Y-12050957D01*
X16014071Y-12108100D01*
X16014071Y-12179529D01*
X15999786Y-12236671D01*
X15985500Y-12265243D01*
X15971214Y-12279529D01*
X15942643Y-12293814D01*
X15914071Y-12293814D01*
X15885500Y-12279529D01*
X15871214Y-12265243D01*
X15856928Y-12236671D01*
X15842643Y-12179529D01*
X15842643Y-12108100D01*
X15856928Y-12050957D01*
X15871214Y-12022386D01*
X15885500Y-12008100D01*
X15914071Y-11993814D01*
X16156928Y-12293814D02*
X16214071Y-12293814D01*
X16242643Y-12279529D01*
X16256928Y-12265243D01*
X16285500Y-12222386D01*
X16299786Y-12165243D01*
X16299786Y-12050957D01*
X16285500Y-12022386D01*
X16271214Y-12008100D01*
X16242643Y-11993814D01*
X16185500Y-11993814D01*
X16156928Y-12008100D01*
X16142643Y-12022386D01*
X16128357Y-12050957D01*
X16128357Y-12122386D01*
X16142643Y-12150957D01*
X16156928Y-12165243D01*
X16185500Y-12179529D01*
X16242643Y-12179529D01*
X16271214Y-12165243D01*
X16285500Y-12150957D01*
X16299786Y-12122386D01*
X16585500Y-12293814D02*
X16414071Y-12293814D01*
X16499786Y-12293814D02*
X16499786Y-11993814D01*
X16471214Y-12036671D01*
X16442643Y-12065243D01*
X16414071Y-12079529D01*
X16699786Y-11993814D02*
X16699786Y-12050957D01*
X16814071Y-11993814D02*
X16814071Y-12050957D01*
X17256928Y-12408100D02*
X17242643Y-12393814D01*
X17214071Y-12350957D01*
X17199786Y-12322386D01*
X17185500Y-12279529D01*
X17171214Y-12208100D01*
X17171214Y-12150957D01*
X17185500Y-12079529D01*
X17199786Y-12036671D01*
X17214071Y-12008100D01*
X17242643Y-11965243D01*
X17256928Y-11950957D01*
X17356928Y-12022386D02*
X17371214Y-12008100D01*
X17399786Y-11993814D01*
X17471214Y-11993814D01*
X17499786Y-12008100D01*
X17514071Y-12022386D01*
X17528357Y-12050957D01*
X17528357Y-12079529D01*
X17514071Y-12122386D01*
X17342643Y-12293814D01*
X17528357Y-12293814D01*
X17885500Y-12293814D02*
X17885500Y-11993814D01*
X18014071Y-12293814D02*
X18014071Y-12136671D01*
X17999786Y-12108100D01*
X17971214Y-12093814D01*
X17928357Y-12093814D01*
X17899786Y-12108100D01*
X17885500Y-12122386D01*
X18199786Y-12293814D02*
X18171214Y-12279529D01*
X18156928Y-12265243D01*
X18142643Y-12236671D01*
X18142643Y-12150957D01*
X18156928Y-12122386D01*
X18171214Y-12108100D01*
X18199786Y-12093814D01*
X18242643Y-12093814D01*
X18271214Y-12108100D01*
X18285500Y-12122386D01*
X18299786Y-12150957D01*
X18299786Y-12236671D01*
X18285500Y-12265243D01*
X18271214Y-12279529D01*
X18242643Y-12293814D01*
X18199786Y-12293814D01*
X18471214Y-12293814D02*
X18442643Y-12279529D01*
X18428357Y-12250957D01*
X18428357Y-11993814D01*
X18699786Y-12279529D02*
X18671214Y-12293814D01*
X18614071Y-12293814D01*
X18585500Y-12279529D01*
X18571214Y-12250957D01*
X18571214Y-12136671D01*
X18585500Y-12108100D01*
X18614071Y-12093814D01*
X18671214Y-12093814D01*
X18699786Y-12108100D01*
X18714071Y-12136671D01*
X18714071Y-12165243D01*
X18571214Y-12193814D01*
X18828357Y-12279529D02*
X18856928Y-12293814D01*
X18914071Y-12293814D01*
X18942643Y-12279529D01*
X18956928Y-12250957D01*
X18956928Y-12236671D01*
X18942643Y-12208100D01*
X18914071Y-12193814D01*
X18871214Y-12193814D01*
X18842643Y-12179529D01*
X18828357Y-12150957D01*
X18828357Y-12136671D01*
X18842643Y-12108100D01*
X18871214Y-12093814D01*
X18914071Y-12093814D01*
X18942643Y-12108100D01*
X19056928Y-12408100D02*
X19071214Y-12393814D01*
X19099786Y-12350957D01*
X19114071Y-12322386D01*
X19128357Y-12279529D01*
X19142643Y-12208100D01*
X19142643Y-12150957D01*
X19128357Y-12079529D01*
X19114071Y-12036671D01*
X19099786Y-12008100D01*
X19071214Y-11965243D01*
X19056928Y-11950957D01*
M02*
