G04 #@! TF.GenerationSoftware,KiCad,Pcbnew,5.1.4-5.1.4*
G04 #@! TF.CreationDate,2019-09-28T18:39:02+02:00*
G04 #@! TF.ProjectId,Multiboard,4d756c74-6962-46f6-9172-642e6b696361,rev?*
G04 #@! TF.SameCoordinates,Original*
G04 #@! TF.FileFunction,Soldermask,Bot*
G04 #@! TF.FilePolarity,Negative*
%FSLAX46Y46*%
G04 Gerber Fmt 4.6, Leading zero omitted, Abs format (unit mm)*
G04 Created by KiCad (PCBNEW 5.1.4-5.1.4) date 2019-09-28 18:39:02*
%MOMM*%
%LPD*%
G04 APERTURE LIST*
%ADD10C,0.100000*%
G04 APERTURE END LIST*
D10*
G36*
X163461000Y-115915999D02*
G01*
X161659000Y-115915999D01*
X161659000Y-114113999D01*
X163461000Y-114113999D01*
X163461000Y-115915999D01*
X163461000Y-115915999D01*
G37*
G36*
X150761000Y-115915999D02*
G01*
X148959000Y-115915999D01*
X148959000Y-114113999D01*
X150761000Y-114113999D01*
X150761000Y-115915999D01*
X150761000Y-115915999D01*
G37*
G36*
X162670443Y-111580518D02*
G01*
X162736627Y-111587036D01*
X162906466Y-111638556D01*
X163062991Y-111722221D01*
X163087295Y-111742167D01*
X163200186Y-111834813D01*
X163281122Y-111933435D01*
X163312778Y-111972008D01*
X163396443Y-112128533D01*
X163447963Y-112298372D01*
X163465359Y-112474999D01*
X163447963Y-112651626D01*
X163396443Y-112821465D01*
X163312778Y-112977990D01*
X163283448Y-113013728D01*
X163200186Y-113115185D01*
X163098729Y-113198447D01*
X163062991Y-113227777D01*
X162906466Y-113311442D01*
X162736627Y-113362962D01*
X162670442Y-113369481D01*
X162604260Y-113375999D01*
X162515740Y-113375999D01*
X162449558Y-113369481D01*
X162383373Y-113362962D01*
X162213534Y-113311442D01*
X162057009Y-113227777D01*
X162021271Y-113198447D01*
X161919814Y-113115185D01*
X161836552Y-113013728D01*
X161807222Y-112977990D01*
X161723557Y-112821465D01*
X161672037Y-112651626D01*
X161654641Y-112474999D01*
X161672037Y-112298372D01*
X161723557Y-112128533D01*
X161807222Y-111972008D01*
X161838878Y-111933435D01*
X161919814Y-111834813D01*
X162032705Y-111742167D01*
X162057009Y-111722221D01*
X162213534Y-111638556D01*
X162383373Y-111587036D01*
X162449557Y-111580518D01*
X162515740Y-111573999D01*
X162604260Y-111573999D01*
X162670443Y-111580518D01*
X162670443Y-111580518D01*
G37*
G36*
X149970443Y-111580518D02*
G01*
X150036627Y-111587036D01*
X150206466Y-111638556D01*
X150362991Y-111722221D01*
X150387295Y-111742167D01*
X150500186Y-111834813D01*
X150581122Y-111933435D01*
X150612778Y-111972008D01*
X150696443Y-112128533D01*
X150747963Y-112298372D01*
X150765359Y-112474999D01*
X150747963Y-112651626D01*
X150696443Y-112821465D01*
X150612778Y-112977990D01*
X150583448Y-113013728D01*
X150500186Y-113115185D01*
X150398729Y-113198447D01*
X150362991Y-113227777D01*
X150206466Y-113311442D01*
X150036627Y-113362962D01*
X149970442Y-113369481D01*
X149904260Y-113375999D01*
X149815740Y-113375999D01*
X149749558Y-113369481D01*
X149683373Y-113362962D01*
X149513534Y-113311442D01*
X149357009Y-113227777D01*
X149321271Y-113198447D01*
X149219814Y-113115185D01*
X149136552Y-113013728D01*
X149107222Y-112977990D01*
X149023557Y-112821465D01*
X148972037Y-112651626D01*
X148954641Y-112474999D01*
X148972037Y-112298372D01*
X149023557Y-112128533D01*
X149107222Y-111972008D01*
X149138878Y-111933435D01*
X149219814Y-111834813D01*
X149332705Y-111742167D01*
X149357009Y-111722221D01*
X149513534Y-111638556D01*
X149683373Y-111587036D01*
X149749557Y-111580518D01*
X149815740Y-111573999D01*
X149904260Y-111573999D01*
X149970443Y-111580518D01*
X149970443Y-111580518D01*
G37*
G36*
X131906564Y-111229389D02*
G01*
X132092401Y-111306365D01*
X132097835Y-111308616D01*
X132266604Y-111421384D01*
X132269973Y-111423635D01*
X132416365Y-111570027D01*
X132531385Y-111742167D01*
X132610611Y-111933436D01*
X132651000Y-112136484D01*
X132651000Y-112343516D01*
X132610611Y-112546564D01*
X132567093Y-112651626D01*
X132531384Y-112737835D01*
X132416365Y-112909973D01*
X132269973Y-113056365D01*
X132097835Y-113171384D01*
X132097834Y-113171385D01*
X132097833Y-113171385D01*
X131906564Y-113250611D01*
X131703516Y-113291000D01*
X131496484Y-113291000D01*
X131293436Y-113250611D01*
X131102167Y-113171385D01*
X131102166Y-113171385D01*
X131102165Y-113171384D01*
X130930027Y-113056365D01*
X130783635Y-112909973D01*
X130668616Y-112737835D01*
X130632907Y-112651626D01*
X130589389Y-112546564D01*
X130549000Y-112343516D01*
X130549000Y-112136484D01*
X130589389Y-111933436D01*
X130668615Y-111742167D01*
X130783635Y-111570027D01*
X130930027Y-111423635D01*
X130933396Y-111421384D01*
X131102165Y-111308616D01*
X131107599Y-111306365D01*
X131293436Y-111229389D01*
X131496484Y-111189000D01*
X131703516Y-111189000D01*
X131906564Y-111229389D01*
X131906564Y-111229389D01*
G37*
G36*
X135406564Y-111229389D02*
G01*
X135592401Y-111306365D01*
X135597835Y-111308616D01*
X135766604Y-111421384D01*
X135769973Y-111423635D01*
X135916365Y-111570027D01*
X136031385Y-111742167D01*
X136110611Y-111933436D01*
X136151000Y-112136484D01*
X136151000Y-112343516D01*
X136110611Y-112546564D01*
X136067093Y-112651626D01*
X136031384Y-112737835D01*
X135916365Y-112909973D01*
X135769973Y-113056365D01*
X135597835Y-113171384D01*
X135597834Y-113171385D01*
X135597833Y-113171385D01*
X135406564Y-113250611D01*
X135203516Y-113291000D01*
X134996484Y-113291000D01*
X134793436Y-113250611D01*
X134602167Y-113171385D01*
X134602166Y-113171385D01*
X134602165Y-113171384D01*
X134430027Y-113056365D01*
X134283635Y-112909973D01*
X134168616Y-112737835D01*
X134132907Y-112651626D01*
X134089389Y-112546564D01*
X134049000Y-112343516D01*
X134049000Y-112136484D01*
X134089389Y-111933436D01*
X134168615Y-111742167D01*
X134283635Y-111570027D01*
X134430027Y-111423635D01*
X134433396Y-111421384D01*
X134602165Y-111308616D01*
X134607599Y-111306365D01*
X134793436Y-111229389D01*
X134996484Y-111189000D01*
X135203516Y-111189000D01*
X135406564Y-111229389D01*
X135406564Y-111229389D01*
G37*
G36*
X133656564Y-109479389D02*
G01*
X133842401Y-109556365D01*
X133847835Y-109558616D01*
X134019973Y-109673635D01*
X134166365Y-109820027D01*
X134280606Y-109991000D01*
X134281385Y-109992167D01*
X134360611Y-110183436D01*
X134401000Y-110386484D01*
X134401000Y-110593516D01*
X134360611Y-110796564D01*
X134281385Y-110987833D01*
X134281384Y-110987835D01*
X134166365Y-111159973D01*
X134019973Y-111306365D01*
X133847835Y-111421384D01*
X133847834Y-111421385D01*
X133847833Y-111421385D01*
X133656564Y-111500611D01*
X133453516Y-111541000D01*
X133246484Y-111541000D01*
X133043436Y-111500611D01*
X132852167Y-111421385D01*
X132852166Y-111421385D01*
X132852165Y-111421384D01*
X132680027Y-111306365D01*
X132533635Y-111159973D01*
X132418616Y-110987835D01*
X132418615Y-110987833D01*
X132339389Y-110796564D01*
X132299000Y-110593516D01*
X132299000Y-110386484D01*
X132339389Y-110183436D01*
X132418615Y-109992167D01*
X132419395Y-109991000D01*
X132533635Y-109820027D01*
X132680027Y-109673635D01*
X132852165Y-109558616D01*
X132857599Y-109556365D01*
X133043436Y-109479389D01*
X133246484Y-109439000D01*
X133453516Y-109439000D01*
X133656564Y-109479389D01*
X133656564Y-109479389D01*
G37*
G36*
X149970442Y-109040517D02*
G01*
X150036627Y-109047036D01*
X150206466Y-109098556D01*
X150362991Y-109182221D01*
X150398729Y-109211551D01*
X150500186Y-109294813D01*
X150583448Y-109396270D01*
X150612778Y-109432008D01*
X150696443Y-109588533D01*
X150747963Y-109758372D01*
X150765359Y-109934999D01*
X150747963Y-110111626D01*
X150696443Y-110281465D01*
X150612778Y-110437990D01*
X150583448Y-110473728D01*
X150500186Y-110575185D01*
X150398729Y-110658447D01*
X150362991Y-110687777D01*
X150206466Y-110771442D01*
X150036627Y-110822962D01*
X149970443Y-110829480D01*
X149904260Y-110835999D01*
X149815740Y-110835999D01*
X149749557Y-110829480D01*
X149683373Y-110822962D01*
X149513534Y-110771442D01*
X149357009Y-110687777D01*
X149321271Y-110658447D01*
X149219814Y-110575185D01*
X149136552Y-110473728D01*
X149107222Y-110437990D01*
X149023557Y-110281465D01*
X148972037Y-110111626D01*
X148954641Y-109934999D01*
X148972037Y-109758372D01*
X149023557Y-109588533D01*
X149107222Y-109432008D01*
X149136552Y-109396270D01*
X149219814Y-109294813D01*
X149321271Y-109211551D01*
X149357009Y-109182221D01*
X149513534Y-109098556D01*
X149683373Y-109047036D01*
X149749558Y-109040517D01*
X149815740Y-109033999D01*
X149904260Y-109033999D01*
X149970442Y-109040517D01*
X149970442Y-109040517D01*
G37*
G36*
X162670442Y-109040517D02*
G01*
X162736627Y-109047036D01*
X162906466Y-109098556D01*
X163062991Y-109182221D01*
X163098729Y-109211551D01*
X163200186Y-109294813D01*
X163283448Y-109396270D01*
X163312778Y-109432008D01*
X163396443Y-109588533D01*
X163447963Y-109758372D01*
X163465359Y-109934999D01*
X163447963Y-110111626D01*
X163396443Y-110281465D01*
X163312778Y-110437990D01*
X163283448Y-110473728D01*
X163200186Y-110575185D01*
X163098729Y-110658447D01*
X163062991Y-110687777D01*
X162906466Y-110771442D01*
X162736627Y-110822962D01*
X162670443Y-110829480D01*
X162604260Y-110835999D01*
X162515740Y-110835999D01*
X162449557Y-110829480D01*
X162383373Y-110822962D01*
X162213534Y-110771442D01*
X162057009Y-110687777D01*
X162021271Y-110658447D01*
X161919814Y-110575185D01*
X161836552Y-110473728D01*
X161807222Y-110437990D01*
X161723557Y-110281465D01*
X161672037Y-110111626D01*
X161654641Y-109934999D01*
X161672037Y-109758372D01*
X161723557Y-109588533D01*
X161807222Y-109432008D01*
X161836552Y-109396270D01*
X161919814Y-109294813D01*
X162021271Y-109211551D01*
X162057009Y-109182221D01*
X162213534Y-109098556D01*
X162383373Y-109047036D01*
X162449558Y-109040517D01*
X162515740Y-109033999D01*
X162604260Y-109033999D01*
X162670442Y-109040517D01*
X162670442Y-109040517D01*
G37*
G36*
X118242585Y-106918802D02*
G01*
X118392410Y-106948604D01*
X118674674Y-107065521D01*
X118928705Y-107235259D01*
X119144741Y-107451295D01*
X119314479Y-107705326D01*
X119404905Y-107923635D01*
X119431396Y-107987591D01*
X119491000Y-108287239D01*
X119491000Y-108592761D01*
X119461198Y-108742585D01*
X119431396Y-108892410D01*
X119314479Y-109174674D01*
X119144741Y-109428705D01*
X118928705Y-109644741D01*
X118674674Y-109814479D01*
X118392410Y-109931396D01*
X118374296Y-109934999D01*
X118092761Y-109991000D01*
X117787239Y-109991000D01*
X117505704Y-109934999D01*
X117487590Y-109931396D01*
X117205326Y-109814479D01*
X116951295Y-109644741D01*
X116735259Y-109428705D01*
X116565521Y-109174674D01*
X116448604Y-108892410D01*
X116418802Y-108742585D01*
X116389000Y-108592761D01*
X116389000Y-108287239D01*
X116448604Y-107987591D01*
X116475095Y-107923635D01*
X116565521Y-107705326D01*
X116735259Y-107451295D01*
X116951295Y-107235259D01*
X117205326Y-107065521D01*
X117487590Y-106948604D01*
X117637415Y-106918802D01*
X117787239Y-106889000D01*
X118092761Y-106889000D01*
X118242585Y-106918802D01*
X118242585Y-106918802D01*
G37*
G36*
X131906564Y-107729389D02*
G01*
X132097833Y-107808615D01*
X132097835Y-107808616D01*
X132269973Y-107923635D01*
X132416365Y-108070027D01*
X132468317Y-108147778D01*
X132531385Y-108242167D01*
X132610611Y-108433436D01*
X132651000Y-108636484D01*
X132651000Y-108843516D01*
X132610611Y-109046564D01*
X132554420Y-109182221D01*
X132531384Y-109237835D01*
X132416365Y-109409973D01*
X132269973Y-109556365D01*
X132097835Y-109671384D01*
X132097834Y-109671385D01*
X132097833Y-109671385D01*
X131906564Y-109750611D01*
X131703516Y-109791000D01*
X131496484Y-109791000D01*
X131293436Y-109750611D01*
X131102167Y-109671385D01*
X131102166Y-109671385D01*
X131102165Y-109671384D01*
X130930027Y-109556365D01*
X130783635Y-109409973D01*
X130668616Y-109237835D01*
X130645580Y-109182221D01*
X130589389Y-109046564D01*
X130549000Y-108843516D01*
X130549000Y-108636484D01*
X130589389Y-108433436D01*
X130668615Y-108242167D01*
X130731684Y-108147778D01*
X130783635Y-108070027D01*
X130930027Y-107923635D01*
X131102165Y-107808616D01*
X131102167Y-107808615D01*
X131293436Y-107729389D01*
X131496484Y-107689000D01*
X131703516Y-107689000D01*
X131906564Y-107729389D01*
X131906564Y-107729389D01*
G37*
G36*
X135406564Y-107729389D02*
G01*
X135597833Y-107808615D01*
X135597835Y-107808616D01*
X135769973Y-107923635D01*
X135916365Y-108070027D01*
X135968317Y-108147778D01*
X136031385Y-108242167D01*
X136110611Y-108433436D01*
X136151000Y-108636484D01*
X136151000Y-108843516D01*
X136110611Y-109046564D01*
X136054420Y-109182221D01*
X136031384Y-109237835D01*
X135916365Y-109409973D01*
X135769973Y-109556365D01*
X135597835Y-109671384D01*
X135597834Y-109671385D01*
X135597833Y-109671385D01*
X135406564Y-109750611D01*
X135203516Y-109791000D01*
X134996484Y-109791000D01*
X134793436Y-109750611D01*
X134602167Y-109671385D01*
X134602166Y-109671385D01*
X134602165Y-109671384D01*
X134430027Y-109556365D01*
X134283635Y-109409973D01*
X134168616Y-109237835D01*
X134145580Y-109182221D01*
X134089389Y-109046564D01*
X134049000Y-108843516D01*
X134049000Y-108636484D01*
X134089389Y-108433436D01*
X134168615Y-108242167D01*
X134231684Y-108147778D01*
X134283635Y-108070027D01*
X134430027Y-107923635D01*
X134602165Y-107808616D01*
X134602167Y-107808615D01*
X134793436Y-107729389D01*
X134996484Y-107689000D01*
X135203516Y-107689000D01*
X135406564Y-107729389D01*
X135406564Y-107729389D01*
G37*
G36*
X149970443Y-106500518D02*
G01*
X150036627Y-106507036D01*
X150206466Y-106558556D01*
X150362991Y-106642221D01*
X150398729Y-106671551D01*
X150500186Y-106754813D01*
X150583448Y-106856270D01*
X150612778Y-106892008D01*
X150696443Y-107048533D01*
X150747963Y-107218372D01*
X150765359Y-107394999D01*
X150747963Y-107571626D01*
X150696443Y-107741465D01*
X150612778Y-107897990D01*
X150583448Y-107933728D01*
X150500186Y-108035185D01*
X150398729Y-108118447D01*
X150362991Y-108147777D01*
X150206466Y-108231442D01*
X150036627Y-108282962D01*
X149970443Y-108289480D01*
X149904260Y-108295999D01*
X149815740Y-108295999D01*
X149749557Y-108289480D01*
X149683373Y-108282962D01*
X149513534Y-108231442D01*
X149357009Y-108147777D01*
X149321271Y-108118447D01*
X149219814Y-108035185D01*
X149136552Y-107933728D01*
X149107222Y-107897990D01*
X149023557Y-107741465D01*
X148972037Y-107571626D01*
X148954641Y-107394999D01*
X148972037Y-107218372D01*
X149023557Y-107048533D01*
X149107222Y-106892008D01*
X149136552Y-106856270D01*
X149219814Y-106754813D01*
X149321271Y-106671551D01*
X149357009Y-106642221D01*
X149513534Y-106558556D01*
X149683373Y-106507036D01*
X149749557Y-106500518D01*
X149815740Y-106493999D01*
X149904260Y-106493999D01*
X149970443Y-106500518D01*
X149970443Y-106500518D01*
G37*
G36*
X162670443Y-106500518D02*
G01*
X162736627Y-106507036D01*
X162906466Y-106558556D01*
X163062991Y-106642221D01*
X163098729Y-106671551D01*
X163200186Y-106754813D01*
X163283448Y-106856270D01*
X163312778Y-106892008D01*
X163396443Y-107048533D01*
X163447963Y-107218372D01*
X163465359Y-107394999D01*
X163447963Y-107571626D01*
X163396443Y-107741465D01*
X163312778Y-107897990D01*
X163283448Y-107933728D01*
X163200186Y-108035185D01*
X163098729Y-108118447D01*
X163062991Y-108147777D01*
X162906466Y-108231442D01*
X162736627Y-108282962D01*
X162670443Y-108289480D01*
X162604260Y-108295999D01*
X162515740Y-108295999D01*
X162449557Y-108289480D01*
X162383373Y-108282962D01*
X162213534Y-108231442D01*
X162057009Y-108147777D01*
X162021271Y-108118447D01*
X161919814Y-108035185D01*
X161836552Y-107933728D01*
X161807222Y-107897990D01*
X161723557Y-107741465D01*
X161672037Y-107571626D01*
X161654641Y-107394999D01*
X161672037Y-107218372D01*
X161723557Y-107048533D01*
X161807222Y-106892008D01*
X161836552Y-106856270D01*
X161919814Y-106754813D01*
X162021271Y-106671551D01*
X162057009Y-106642221D01*
X162213534Y-106558556D01*
X162383373Y-106507036D01*
X162449557Y-106500518D01*
X162515740Y-106493999D01*
X162604260Y-106493999D01*
X162670443Y-106500518D01*
X162670443Y-106500518D01*
G37*
G36*
X120898228Y-104551703D02*
G01*
X121053100Y-104615853D01*
X121192481Y-104708985D01*
X121311015Y-104827519D01*
X121404147Y-104966900D01*
X121468297Y-105121772D01*
X121501000Y-105286184D01*
X121501000Y-105453816D01*
X121468297Y-105618228D01*
X121404147Y-105773100D01*
X121311015Y-105912481D01*
X121192481Y-106031015D01*
X121053100Y-106124147D01*
X120898228Y-106188297D01*
X120733816Y-106221000D01*
X120566184Y-106221000D01*
X120401772Y-106188297D01*
X120246900Y-106124147D01*
X120107519Y-106031015D01*
X119988985Y-105912481D01*
X119895853Y-105773100D01*
X119831703Y-105618228D01*
X119799000Y-105453816D01*
X119799000Y-105286184D01*
X119831703Y-105121772D01*
X119895853Y-104966900D01*
X119988985Y-104827519D01*
X120107519Y-104708985D01*
X120246900Y-104615853D01*
X120401772Y-104551703D01*
X120566184Y-104519000D01*
X120733816Y-104519000D01*
X120898228Y-104551703D01*
X120898228Y-104551703D01*
G37*
G36*
X149970443Y-103960518D02*
G01*
X150036627Y-103967036D01*
X150206466Y-104018556D01*
X150362991Y-104102221D01*
X150398729Y-104131551D01*
X150500186Y-104214813D01*
X150583448Y-104316270D01*
X150612778Y-104352008D01*
X150696443Y-104508533D01*
X150747963Y-104678372D01*
X150765359Y-104854999D01*
X150747963Y-105031626D01*
X150696443Y-105201465D01*
X150612778Y-105357990D01*
X150583448Y-105393728D01*
X150500186Y-105495185D01*
X150398729Y-105578447D01*
X150362991Y-105607777D01*
X150206466Y-105691442D01*
X150036627Y-105742962D01*
X149970442Y-105749481D01*
X149904260Y-105755999D01*
X149815740Y-105755999D01*
X149749558Y-105749481D01*
X149683373Y-105742962D01*
X149513534Y-105691442D01*
X149357009Y-105607777D01*
X149321271Y-105578447D01*
X149219814Y-105495185D01*
X149136552Y-105393728D01*
X149107222Y-105357990D01*
X149023557Y-105201465D01*
X148972037Y-105031626D01*
X148954641Y-104854999D01*
X148972037Y-104678372D01*
X149023557Y-104508533D01*
X149107222Y-104352008D01*
X149136552Y-104316270D01*
X149219814Y-104214813D01*
X149321271Y-104131551D01*
X149357009Y-104102221D01*
X149513534Y-104018556D01*
X149683373Y-103967036D01*
X149749557Y-103960518D01*
X149815740Y-103953999D01*
X149904260Y-103953999D01*
X149970443Y-103960518D01*
X149970443Y-103960518D01*
G37*
G36*
X162670443Y-103960518D02*
G01*
X162736627Y-103967036D01*
X162906466Y-104018556D01*
X163062991Y-104102221D01*
X163098729Y-104131551D01*
X163200186Y-104214813D01*
X163283448Y-104316270D01*
X163312778Y-104352008D01*
X163396443Y-104508533D01*
X163447963Y-104678372D01*
X163465359Y-104854999D01*
X163447963Y-105031626D01*
X163396443Y-105201465D01*
X163312778Y-105357990D01*
X163283448Y-105393728D01*
X163200186Y-105495185D01*
X163098729Y-105578447D01*
X163062991Y-105607777D01*
X162906466Y-105691442D01*
X162736627Y-105742962D01*
X162670442Y-105749481D01*
X162604260Y-105755999D01*
X162515740Y-105755999D01*
X162449558Y-105749481D01*
X162383373Y-105742962D01*
X162213534Y-105691442D01*
X162057009Y-105607777D01*
X162021271Y-105578447D01*
X161919814Y-105495185D01*
X161836552Y-105393728D01*
X161807222Y-105357990D01*
X161723557Y-105201465D01*
X161672037Y-105031626D01*
X161654641Y-104854999D01*
X161672037Y-104678372D01*
X161723557Y-104508533D01*
X161807222Y-104352008D01*
X161836552Y-104316270D01*
X161919814Y-104214813D01*
X162021271Y-104131551D01*
X162057009Y-104102221D01*
X162213534Y-104018556D01*
X162383373Y-103967036D01*
X162449557Y-103960518D01*
X162515740Y-103953999D01*
X162604260Y-103953999D01*
X162670443Y-103960518D01*
X162670443Y-103960518D01*
G37*
G36*
X120898228Y-102051703D02*
G01*
X121053100Y-102115853D01*
X121192481Y-102208985D01*
X121311015Y-102327519D01*
X121404147Y-102466900D01*
X121468297Y-102621772D01*
X121501000Y-102786184D01*
X121501000Y-102953816D01*
X121468297Y-103118228D01*
X121404147Y-103273100D01*
X121311015Y-103412481D01*
X121192481Y-103531015D01*
X121053100Y-103624147D01*
X120898228Y-103688297D01*
X120733816Y-103721000D01*
X120566184Y-103721000D01*
X120401772Y-103688297D01*
X120246900Y-103624147D01*
X120107519Y-103531015D01*
X119988985Y-103412481D01*
X119895853Y-103273100D01*
X119831703Y-103118228D01*
X119799000Y-102953816D01*
X119799000Y-102786184D01*
X119831703Y-102621772D01*
X119895853Y-102466900D01*
X119988985Y-102327519D01*
X120107519Y-102208985D01*
X120246900Y-102115853D01*
X120401772Y-102051703D01*
X120566184Y-102019000D01*
X120733816Y-102019000D01*
X120898228Y-102051703D01*
X120898228Y-102051703D01*
G37*
G36*
X120898228Y-100051703D02*
G01*
X121053100Y-100115853D01*
X121192481Y-100208985D01*
X121311015Y-100327519D01*
X121404147Y-100466900D01*
X121468297Y-100621772D01*
X121501000Y-100786184D01*
X121501000Y-100953816D01*
X121468297Y-101118228D01*
X121404147Y-101273100D01*
X121311015Y-101412481D01*
X121192481Y-101531015D01*
X121053100Y-101624147D01*
X120898228Y-101688297D01*
X120733816Y-101721000D01*
X120566184Y-101721000D01*
X120401772Y-101688297D01*
X120246900Y-101624147D01*
X120107519Y-101531015D01*
X119988985Y-101412481D01*
X119895853Y-101273100D01*
X119831703Y-101118228D01*
X119799000Y-100953816D01*
X119799000Y-100786184D01*
X119831703Y-100621772D01*
X119895853Y-100466900D01*
X119988985Y-100327519D01*
X120107519Y-100208985D01*
X120246900Y-100115853D01*
X120401772Y-100051703D01*
X120566184Y-100019000D01*
X120733816Y-100019000D01*
X120898228Y-100051703D01*
X120898228Y-100051703D01*
G37*
G36*
X121501000Y-99221000D02*
G01*
X119799000Y-99221000D01*
X119799000Y-97519000D01*
X121501000Y-97519000D01*
X121501000Y-99221000D01*
X121501000Y-99221000D01*
G37*
G36*
X118242585Y-93778802D02*
G01*
X118392410Y-93808604D01*
X118674674Y-93925521D01*
X118928705Y-94095259D01*
X119144741Y-94311295D01*
X119314479Y-94565326D01*
X119431396Y-94847590D01*
X119491000Y-95147240D01*
X119491000Y-95452760D01*
X119431396Y-95752410D01*
X119314479Y-96034674D01*
X119144741Y-96288705D01*
X118928705Y-96504741D01*
X118674674Y-96674479D01*
X118392410Y-96791396D01*
X118242585Y-96821198D01*
X118092761Y-96851000D01*
X117787239Y-96851000D01*
X117637415Y-96821198D01*
X117487590Y-96791396D01*
X117205326Y-96674479D01*
X116951295Y-96504741D01*
X116735259Y-96288705D01*
X116565521Y-96034674D01*
X116448604Y-95752410D01*
X116389000Y-95452760D01*
X116389000Y-95147240D01*
X116448604Y-94847590D01*
X116565521Y-94565326D01*
X116735259Y-94311295D01*
X116951295Y-94095259D01*
X117205326Y-93925521D01*
X117487590Y-93808604D01*
X117637415Y-93778802D01*
X117787239Y-93749000D01*
X118092761Y-93749000D01*
X118242585Y-93778802D01*
X118242585Y-93778802D01*
G37*
M02*
