M48
; DRILL file {KiCad 5.1.4} date Mo 30 Sep 2019 21:36:54 CEST
; FORMAT={-:-/ absolute / metric / decimal}
; #@! TF.CreationDate,2019-09-30T21:36:54+02:00
; #@! TF.GenerationSoftware,Kicad,Pcbnew,5.1.4
; #@! TF.FileFunction,Plated,1,2,PTH
FMAT,2
METRIC
T1C0.400
T2C0.920
T3C1.000
T4C2.300
%
G90
G05
T1
X127.0Y-90.17
X129.54Y-90.17
X132.08Y-90.17
X134.62Y-90.17
X137.16Y-90.17
X142.24Y-95.25
X142.335Y-92.615
X149.86Y-46.99
X152.4Y-53.34
T2
X140.335Y-69.215
X140.335Y-71.715
X140.335Y-73.715
X140.335Y-76.215
T3
X143.51Y-68.58
X143.51Y-71.12
X143.51Y-73.66
X143.51Y-76.2
X143.51Y-78.74
X149.86Y-83.185
X152.4Y-83.185
X154.94Y-83.185
X157.48Y-83.185
X160.02Y-83.185
T4
X137.625Y-66.145
X137.625Y-79.285
T0
M30
