%FSLAX45Y45*%
G04 Gerber Fmt 4.5, Leading zero omitted, Abs format (unit mm)*
G04 Created by KiCad (PCBNEW 5.1.4-5.1.4) date 2019-09-28 18:38:55*
%MOMM*%
%LPD*%
G04 APERTURE LIST*
%ADD10C,0.050000*%
%ADD11C,0.200000*%
%ADD12C,0.300000*%
G04 APERTURE END LIST*
D10*
X14732000Y-11684000D02*
X14859000Y-11684000D01*
X14732000Y-10922000D02*
X14732000Y-11684000D01*
X14478000Y-10922000D02*
X14732000Y-10922000D01*
X14732000Y-10795000D02*
X14478000Y-10795000D01*
X14732000Y-10287000D02*
X14732000Y-10795000D01*
X14859000Y-10287000D02*
X14732000Y-10287000D01*
X14478000Y-11049000D02*
X14478000Y-10922000D01*
X12827000Y-11176000D02*
X12827000Y-11557000D01*
X12700000Y-11176000D02*
X12827000Y-11176000D01*
X12827000Y-11049000D02*
X12827000Y-10287000D01*
X12700000Y-11049000D02*
X12827000Y-11049000D01*
X12700000Y-10160000D02*
X12700000Y-11049000D01*
X13716000Y-9652000D02*
X13970000Y-9652000D01*
X16510000Y-11684000D02*
X14859000Y-11684000D01*
X16510000Y-9525000D02*
X16510000Y-11684000D01*
X16383000Y-10160000D02*
X16383000Y-10287000D01*
X15240000Y-10160000D02*
X16383000Y-10160000D01*
X14986000Y-10287000D02*
X16383000Y-10287000D01*
X14986000Y-10160000D02*
X14986000Y-10287000D01*
X14859000Y-10160000D02*
X14859000Y-10287000D01*
X14859000Y-10160000D02*
X12700000Y-10160000D01*
X14986000Y-10160000D02*
X15240000Y-10160000D01*
X12827000Y-7620000D02*
X11430000Y-7620000D01*
X12827000Y-9652000D02*
X12827000Y-7620000D01*
X13716000Y-9652000D02*
X12827000Y-9652000D01*
X14478000Y-11557000D02*
X14478000Y-11049000D01*
X12827000Y-11557000D02*
X14478000Y-11557000D01*
X14478000Y-10287000D02*
X12827000Y-10287000D01*
X14478000Y-10795000D02*
X14478000Y-10287000D01*
X15240000Y-9652000D02*
X13970000Y-9652000D01*
X15240000Y-8382000D02*
X15240000Y-9652000D01*
X16510000Y-8382000D02*
X15240000Y-8382000D01*
X16510000Y-9525000D02*
X16510000Y-8382000D01*
X11430000Y-11176000D02*
X12700000Y-11176000D01*
X11430000Y-7620000D02*
X11430000Y-11176000D01*
D11*
X11918000Y-8489000D02*
X11958000Y-8529000D01*
X11958000Y-8489000D02*
X11918000Y-8529000D01*
X12299000Y-10140000D02*
X12339000Y-10180000D01*
X12339000Y-10140000D02*
X12299000Y-10180000D01*
X13696000Y-10394000D02*
X13736000Y-10434000D01*
X13736000Y-10394000D02*
X13696000Y-10434000D01*
X13696000Y-10648000D02*
X13736000Y-10688000D01*
X13736000Y-10648000D02*
X13696000Y-10688000D01*
X13696000Y-10902000D02*
X13736000Y-10942000D01*
X13736000Y-10902000D02*
X13696000Y-10942000D01*
X13696000Y-11156000D02*
X13736000Y-11196000D01*
X13736000Y-11156000D02*
X13696000Y-11196000D01*
X13696000Y-11410000D02*
X13736000Y-11450000D01*
X13736000Y-11410000D02*
X13696000Y-11450000D01*
X12111000Y-9837000D02*
G75*
G03X12111000Y-9837000I-46000J0D01*
G01*
X12111000Y-10087000D02*
G75*
G03X12111000Y-10087000I-46000J0D01*
G01*
X12111000Y-10287000D02*
G75*
G03X12111000Y-10287000I-46000J0D01*
G01*
X12111000Y-10537000D02*
G75*
G03X12111000Y-10537000I-46000J0D01*
G01*
X16256000Y-10435500D02*
X16256000Y-10535500D01*
X16206000Y-10485500D02*
X16306000Y-10485500D01*
X16256000Y-10689500D02*
X16256000Y-10789500D01*
X16206000Y-10739500D02*
X16306000Y-10739500D01*
X16256000Y-10943500D02*
X16256000Y-11043500D01*
X16206000Y-10993500D02*
X16306000Y-10993500D01*
X16256000Y-11197500D02*
X16256000Y-11297500D01*
X16206000Y-11247500D02*
X16306000Y-11247500D01*
X16256000Y-11451500D02*
X16256000Y-11551500D01*
X16206000Y-11501500D02*
X16306000Y-11501500D01*
X14986000Y-10435500D02*
X14986000Y-10535500D01*
X14936000Y-10485500D02*
X15036000Y-10485500D01*
X14986000Y-10689500D02*
X14986000Y-10789500D01*
X14936000Y-10739500D02*
X15036000Y-10739500D01*
X14986000Y-10943500D02*
X14986000Y-11043500D01*
X14936000Y-10993500D02*
X15036000Y-10993500D01*
X14986000Y-11197500D02*
X14986000Y-11297500D01*
X14936000Y-11247500D02*
X15036000Y-11247500D01*
X14986000Y-11451500D02*
X14986000Y-11551500D01*
X14936000Y-11501500D02*
X15036000Y-11501500D01*
X11875318Y-9611318D02*
X11875318Y-9448682D01*
X11712682Y-9448682D01*
X11712682Y-9611318D01*
X11875318Y-9611318D01*
X11875318Y-10925318D02*
X11875318Y-10762682D01*
X11712682Y-10762682D01*
X11712682Y-10925318D01*
X11875318Y-10925318D01*
D12*
X11713928Y-12152214D02*
X11713928Y-11852214D01*
X11785357Y-11852214D01*
X11828214Y-11866500D01*
X11856786Y-11895071D01*
X11871071Y-11923643D01*
X11885357Y-11980786D01*
X11885357Y-12023643D01*
X11871071Y-12080786D01*
X11856786Y-12109357D01*
X11828214Y-12137929D01*
X11785357Y-12152214D01*
X11713928Y-12152214D01*
X12013928Y-12152214D02*
X12013928Y-11952214D01*
X12013928Y-12009357D02*
X12028214Y-11980786D01*
X12042500Y-11966500D01*
X12071071Y-11952214D01*
X12099643Y-11952214D01*
X12199643Y-12152214D02*
X12199643Y-11952214D01*
X12199643Y-11852214D02*
X12185357Y-11866500D01*
X12199643Y-11880786D01*
X12213928Y-11866500D01*
X12199643Y-11852214D01*
X12199643Y-11880786D01*
X12385357Y-12152214D02*
X12356786Y-12137929D01*
X12342500Y-12109357D01*
X12342500Y-11852214D01*
X12542500Y-12152214D02*
X12513928Y-12137929D01*
X12499643Y-12109357D01*
X12499643Y-11852214D01*
X12885357Y-12152214D02*
X12885357Y-11852214D01*
X12985357Y-12066500D01*
X13085357Y-11852214D01*
X13085357Y-12152214D01*
X13356786Y-12152214D02*
X13356786Y-11995071D01*
X13342500Y-11966500D01*
X13313928Y-11952214D01*
X13256786Y-11952214D01*
X13228214Y-11966500D01*
X13356786Y-12137929D02*
X13328214Y-12152214D01*
X13256786Y-12152214D01*
X13228214Y-12137929D01*
X13213928Y-12109357D01*
X13213928Y-12080786D01*
X13228214Y-12052214D01*
X13256786Y-12037929D01*
X13328214Y-12037929D01*
X13356786Y-12023643D01*
X13499643Y-11952214D02*
X13499643Y-12252214D01*
X13499643Y-11966500D02*
X13528214Y-11952214D01*
X13585357Y-11952214D01*
X13613928Y-11966500D01*
X13628214Y-11980786D01*
X13642500Y-12009357D01*
X13642500Y-12095071D01*
X13628214Y-12123643D01*
X13613928Y-12137929D01*
X13585357Y-12152214D01*
X13528214Y-12152214D01*
X13499643Y-12137929D01*
X13771071Y-12123643D02*
X13785357Y-12137929D01*
X13771071Y-12152214D01*
X13756786Y-12137929D01*
X13771071Y-12123643D01*
X13771071Y-12152214D01*
X13771071Y-11966500D02*
X13785357Y-11980786D01*
X13771071Y-11995071D01*
X13756786Y-11980786D01*
X13771071Y-11966500D01*
X13771071Y-11995071D01*
X11387500Y-12626500D02*
X11427500Y-12666500D01*
X11427500Y-12626500D02*
X11387500Y-12666500D01*
X11771071Y-12482214D02*
X11799643Y-12482214D01*
X11828214Y-12496500D01*
X11842500Y-12510786D01*
X11856786Y-12539357D01*
X11871071Y-12596500D01*
X11871071Y-12667929D01*
X11856786Y-12725071D01*
X11842500Y-12753643D01*
X11828214Y-12767929D01*
X11799643Y-12782214D01*
X11771071Y-12782214D01*
X11742500Y-12767929D01*
X11728214Y-12753643D01*
X11713928Y-12725071D01*
X11699643Y-12667929D01*
X11699643Y-12596500D01*
X11713928Y-12539357D01*
X11728214Y-12510786D01*
X11742500Y-12496500D01*
X11771071Y-12482214D01*
X11999643Y-12753643D02*
X12013928Y-12767929D01*
X11999643Y-12782214D01*
X11985357Y-12767929D01*
X11999643Y-12753643D01*
X11999643Y-12782214D01*
X12271071Y-12582214D02*
X12271071Y-12782214D01*
X12199643Y-12467929D02*
X12128214Y-12682214D01*
X12313928Y-12682214D01*
X12485357Y-12482214D02*
X12513928Y-12482214D01*
X12542500Y-12496500D01*
X12556786Y-12510786D01*
X12571071Y-12539357D01*
X12585357Y-12596500D01*
X12585357Y-12667929D01*
X12571071Y-12725071D01*
X12556786Y-12753643D01*
X12542500Y-12767929D01*
X12513928Y-12782214D01*
X12485357Y-12782214D01*
X12456786Y-12767929D01*
X12442500Y-12753643D01*
X12428214Y-12725071D01*
X12413928Y-12667929D01*
X12413928Y-12596500D01*
X12428214Y-12539357D01*
X12442500Y-12510786D01*
X12456786Y-12496500D01*
X12485357Y-12482214D01*
X12713928Y-12782214D02*
X12713928Y-12582214D01*
X12713928Y-12610786D02*
X12728214Y-12596500D01*
X12756786Y-12582214D01*
X12799643Y-12582214D01*
X12828214Y-12596500D01*
X12842500Y-12625071D01*
X12842500Y-12782214D01*
X12842500Y-12625071D02*
X12856786Y-12596500D01*
X12885357Y-12582214D01*
X12928214Y-12582214D01*
X12956786Y-12596500D01*
X12971071Y-12625071D01*
X12971071Y-12782214D01*
X13113928Y-12782214D02*
X13113928Y-12582214D01*
X13113928Y-12610786D02*
X13128214Y-12596500D01*
X13156786Y-12582214D01*
X13199643Y-12582214D01*
X13228214Y-12596500D01*
X13242500Y-12625071D01*
X13242500Y-12782214D01*
X13242500Y-12625071D02*
X13256786Y-12596500D01*
X13285357Y-12582214D01*
X13328214Y-12582214D01*
X13356786Y-12596500D01*
X13371071Y-12625071D01*
X13371071Y-12782214D01*
X13956786Y-12467929D02*
X13699643Y-12853643D01*
X14342500Y-12482214D02*
X14371071Y-12482214D01*
X14399643Y-12496500D01*
X14413928Y-12510786D01*
X14428214Y-12539357D01*
X14442500Y-12596500D01*
X14442500Y-12667929D01*
X14428214Y-12725071D01*
X14413928Y-12753643D01*
X14399643Y-12767929D01*
X14371071Y-12782214D01*
X14342500Y-12782214D01*
X14313928Y-12767929D01*
X14299643Y-12753643D01*
X14285357Y-12725071D01*
X14271071Y-12667929D01*
X14271071Y-12596500D01*
X14285357Y-12539357D01*
X14299643Y-12510786D01*
X14313928Y-12496500D01*
X14342500Y-12482214D01*
X14571071Y-12753643D02*
X14585357Y-12767929D01*
X14571071Y-12782214D01*
X14556786Y-12767929D01*
X14571071Y-12753643D01*
X14571071Y-12782214D01*
X14771071Y-12482214D02*
X14799643Y-12482214D01*
X14828214Y-12496500D01*
X14842500Y-12510786D01*
X14856786Y-12539357D01*
X14871071Y-12596500D01*
X14871071Y-12667929D01*
X14856786Y-12725071D01*
X14842500Y-12753643D01*
X14828214Y-12767929D01*
X14799643Y-12782214D01*
X14771071Y-12782214D01*
X14742500Y-12767929D01*
X14728214Y-12753643D01*
X14713928Y-12725071D01*
X14699643Y-12667929D01*
X14699643Y-12596500D01*
X14713928Y-12539357D01*
X14728214Y-12510786D01*
X14742500Y-12496500D01*
X14771071Y-12482214D01*
X15156786Y-12782214D02*
X14985357Y-12782214D01*
X15071071Y-12782214D02*
X15071071Y-12482214D01*
X15042500Y-12525071D01*
X15013928Y-12553643D01*
X14985357Y-12567929D01*
X15413928Y-12482214D02*
X15356786Y-12482214D01*
X15328214Y-12496500D01*
X15313928Y-12510786D01*
X15285357Y-12553643D01*
X15271071Y-12610786D01*
X15271071Y-12725071D01*
X15285357Y-12753643D01*
X15299643Y-12767929D01*
X15328214Y-12782214D01*
X15385357Y-12782214D01*
X15413928Y-12767929D01*
X15428214Y-12753643D01*
X15442500Y-12725071D01*
X15442500Y-12653643D01*
X15428214Y-12625071D01*
X15413928Y-12610786D01*
X15385357Y-12596500D01*
X15328214Y-12596500D01*
X15299643Y-12610786D01*
X15285357Y-12625071D01*
X15271071Y-12653643D01*
X15556786Y-12482214D02*
X15556786Y-12539357D01*
X15671071Y-12482214D02*
X15671071Y-12539357D01*
X16113928Y-12896500D02*
X16099643Y-12882214D01*
X16071071Y-12839357D01*
X16056786Y-12810786D01*
X16042500Y-12767929D01*
X16028214Y-12696500D01*
X16028214Y-12639357D01*
X16042500Y-12567929D01*
X16056786Y-12525071D01*
X16071071Y-12496500D01*
X16099643Y-12453643D01*
X16113928Y-12439357D01*
X16199643Y-12482214D02*
X16399643Y-12482214D01*
X16271071Y-12782214D01*
X16742500Y-12782214D02*
X16742500Y-12482214D01*
X16871071Y-12782214D02*
X16871071Y-12625071D01*
X16856786Y-12596500D01*
X16828214Y-12582214D01*
X16785357Y-12582214D01*
X16756786Y-12596500D01*
X16742500Y-12610786D01*
X17056786Y-12782214D02*
X17028214Y-12767929D01*
X17013928Y-12753643D01*
X16999643Y-12725071D01*
X16999643Y-12639357D01*
X17013928Y-12610786D01*
X17028214Y-12596500D01*
X17056786Y-12582214D01*
X17099643Y-12582214D01*
X17128214Y-12596500D01*
X17142500Y-12610786D01*
X17156786Y-12639357D01*
X17156786Y-12725071D01*
X17142500Y-12753643D01*
X17128214Y-12767929D01*
X17099643Y-12782214D01*
X17056786Y-12782214D01*
X17328214Y-12782214D02*
X17299643Y-12767929D01*
X17285357Y-12739357D01*
X17285357Y-12482214D01*
X17556786Y-12767929D02*
X17528214Y-12782214D01*
X17471071Y-12782214D01*
X17442500Y-12767929D01*
X17428214Y-12739357D01*
X17428214Y-12625071D01*
X17442500Y-12596500D01*
X17471071Y-12582214D01*
X17528214Y-12582214D01*
X17556786Y-12596500D01*
X17571071Y-12625071D01*
X17571071Y-12653643D01*
X17428214Y-12682214D01*
X17685357Y-12767929D02*
X17713928Y-12782214D01*
X17771071Y-12782214D01*
X17799643Y-12767929D01*
X17813928Y-12739357D01*
X17813928Y-12725071D01*
X17799643Y-12696500D01*
X17771071Y-12682214D01*
X17728214Y-12682214D01*
X17699643Y-12667929D01*
X17685357Y-12639357D01*
X17685357Y-12625071D01*
X17699643Y-12596500D01*
X17728214Y-12582214D01*
X17771071Y-12582214D01*
X17799643Y-12596500D01*
X17913928Y-12896500D02*
X17928214Y-12882214D01*
X17956786Y-12839357D01*
X17971071Y-12810786D01*
X17985357Y-12767929D01*
X17999643Y-12696500D01*
X17999643Y-12639357D01*
X17985357Y-12567929D01*
X17971071Y-12525071D01*
X17956786Y-12496500D01*
X17928214Y-12453643D01*
X17913928Y-12439357D01*
X11427500Y-13042500D02*
G75*
G03X11427500Y-13042500I-46000J0D01*
G01*
X11771071Y-12878214D02*
X11799643Y-12878214D01*
X11828214Y-12892500D01*
X11842500Y-12906786D01*
X11856786Y-12935357D01*
X11871071Y-12992500D01*
X11871071Y-13063929D01*
X11856786Y-13121071D01*
X11842500Y-13149643D01*
X11828214Y-13163929D01*
X11799643Y-13178214D01*
X11771071Y-13178214D01*
X11742500Y-13163929D01*
X11728214Y-13149643D01*
X11713928Y-13121071D01*
X11699643Y-13063929D01*
X11699643Y-12992500D01*
X11713928Y-12935357D01*
X11728214Y-12906786D01*
X11742500Y-12892500D01*
X11771071Y-12878214D01*
X11999643Y-13149643D02*
X12013928Y-13163929D01*
X11999643Y-13178214D01*
X11985357Y-13163929D01*
X11999643Y-13149643D01*
X11999643Y-13178214D01*
X12156786Y-13178214D02*
X12213928Y-13178214D01*
X12242500Y-13163929D01*
X12256786Y-13149643D01*
X12285357Y-13106786D01*
X12299643Y-13049643D01*
X12299643Y-12935357D01*
X12285357Y-12906786D01*
X12271071Y-12892500D01*
X12242500Y-12878214D01*
X12185357Y-12878214D01*
X12156786Y-12892500D01*
X12142500Y-12906786D01*
X12128214Y-12935357D01*
X12128214Y-13006786D01*
X12142500Y-13035357D01*
X12156786Y-13049643D01*
X12185357Y-13063929D01*
X12242500Y-13063929D01*
X12271071Y-13049643D01*
X12285357Y-13035357D01*
X12299643Y-13006786D01*
X12413928Y-12906786D02*
X12428214Y-12892500D01*
X12456786Y-12878214D01*
X12528214Y-12878214D01*
X12556786Y-12892500D01*
X12571071Y-12906786D01*
X12585357Y-12935357D01*
X12585357Y-12963929D01*
X12571071Y-13006786D01*
X12399643Y-13178214D01*
X12585357Y-13178214D01*
X12713928Y-13178214D02*
X12713928Y-12978214D01*
X12713928Y-13006786D02*
X12728214Y-12992500D01*
X12756786Y-12978214D01*
X12799643Y-12978214D01*
X12828214Y-12992500D01*
X12842500Y-13021071D01*
X12842500Y-13178214D01*
X12842500Y-13021071D02*
X12856786Y-12992500D01*
X12885357Y-12978214D01*
X12928214Y-12978214D01*
X12956786Y-12992500D01*
X12971071Y-13021071D01*
X12971071Y-13178214D01*
X13113928Y-13178214D02*
X13113928Y-12978214D01*
X13113928Y-13006786D02*
X13128214Y-12992500D01*
X13156786Y-12978214D01*
X13199643Y-12978214D01*
X13228214Y-12992500D01*
X13242500Y-13021071D01*
X13242500Y-13178214D01*
X13242500Y-13021071D02*
X13256786Y-12992500D01*
X13285357Y-12978214D01*
X13328214Y-12978214D01*
X13356786Y-12992500D01*
X13371071Y-13021071D01*
X13371071Y-13178214D01*
X13956786Y-12863929D02*
X13699643Y-13249643D01*
X14342500Y-12878214D02*
X14371071Y-12878214D01*
X14399643Y-12892500D01*
X14413928Y-12906786D01*
X14428214Y-12935357D01*
X14442500Y-12992500D01*
X14442500Y-13063929D01*
X14428214Y-13121071D01*
X14413928Y-13149643D01*
X14399643Y-13163929D01*
X14371071Y-13178214D01*
X14342500Y-13178214D01*
X14313928Y-13163929D01*
X14299643Y-13149643D01*
X14285357Y-13121071D01*
X14271071Y-13063929D01*
X14271071Y-12992500D01*
X14285357Y-12935357D01*
X14299643Y-12906786D01*
X14313928Y-12892500D01*
X14342500Y-12878214D01*
X14571071Y-13149643D02*
X14585357Y-13163929D01*
X14571071Y-13178214D01*
X14556786Y-13163929D01*
X14571071Y-13149643D01*
X14571071Y-13178214D01*
X14771071Y-12878214D02*
X14799643Y-12878214D01*
X14828214Y-12892500D01*
X14842500Y-12906786D01*
X14856786Y-12935357D01*
X14871071Y-12992500D01*
X14871071Y-13063929D01*
X14856786Y-13121071D01*
X14842500Y-13149643D01*
X14828214Y-13163929D01*
X14799643Y-13178214D01*
X14771071Y-13178214D01*
X14742500Y-13163929D01*
X14728214Y-13149643D01*
X14713928Y-13121071D01*
X14699643Y-13063929D01*
X14699643Y-12992500D01*
X14713928Y-12935357D01*
X14728214Y-12906786D01*
X14742500Y-12892500D01*
X14771071Y-12878214D01*
X14971071Y-12878214D02*
X15156786Y-12878214D01*
X15056786Y-12992500D01*
X15099643Y-12992500D01*
X15128214Y-13006786D01*
X15142500Y-13021071D01*
X15156786Y-13049643D01*
X15156786Y-13121071D01*
X15142500Y-13149643D01*
X15128214Y-13163929D01*
X15099643Y-13178214D01*
X15013928Y-13178214D01*
X14985357Y-13163929D01*
X14971071Y-13149643D01*
X15413928Y-12878214D02*
X15356786Y-12878214D01*
X15328214Y-12892500D01*
X15313928Y-12906786D01*
X15285357Y-12949643D01*
X15271071Y-13006786D01*
X15271071Y-13121071D01*
X15285357Y-13149643D01*
X15299643Y-13163929D01*
X15328214Y-13178214D01*
X15385357Y-13178214D01*
X15413928Y-13163929D01*
X15428214Y-13149643D01*
X15442500Y-13121071D01*
X15442500Y-13049643D01*
X15428214Y-13021071D01*
X15413928Y-13006786D01*
X15385357Y-12992500D01*
X15328214Y-12992500D01*
X15299643Y-13006786D01*
X15285357Y-13021071D01*
X15271071Y-13049643D01*
X15556786Y-12878214D02*
X15556786Y-12935357D01*
X15671071Y-12878214D02*
X15671071Y-12935357D01*
X16113928Y-13292500D02*
X16099643Y-13278214D01*
X16071071Y-13235357D01*
X16056786Y-13206786D01*
X16042500Y-13163929D01*
X16028214Y-13092500D01*
X16028214Y-13035357D01*
X16042500Y-12963929D01*
X16056786Y-12921071D01*
X16071071Y-12892500D01*
X16099643Y-12849643D01*
X16113928Y-12835357D01*
X16356786Y-12978214D02*
X16356786Y-13178214D01*
X16285357Y-12863929D02*
X16213928Y-13078214D01*
X16399643Y-13078214D01*
X16742500Y-13178214D02*
X16742500Y-12878214D01*
X16871071Y-13178214D02*
X16871071Y-13021071D01*
X16856786Y-12992500D01*
X16828214Y-12978214D01*
X16785357Y-12978214D01*
X16756786Y-12992500D01*
X16742500Y-13006786D01*
X17056786Y-13178214D02*
X17028214Y-13163929D01*
X17013928Y-13149643D01*
X16999643Y-13121071D01*
X16999643Y-13035357D01*
X17013928Y-13006786D01*
X17028214Y-12992500D01*
X17056786Y-12978214D01*
X17099643Y-12978214D01*
X17128214Y-12992500D01*
X17142500Y-13006786D01*
X17156786Y-13035357D01*
X17156786Y-13121071D01*
X17142500Y-13149643D01*
X17128214Y-13163929D01*
X17099643Y-13178214D01*
X17056786Y-13178214D01*
X17328214Y-13178214D02*
X17299643Y-13163929D01*
X17285357Y-13135357D01*
X17285357Y-12878214D01*
X17556786Y-13163929D02*
X17528214Y-13178214D01*
X17471071Y-13178214D01*
X17442500Y-13163929D01*
X17428214Y-13135357D01*
X17428214Y-13021071D01*
X17442500Y-12992500D01*
X17471071Y-12978214D01*
X17528214Y-12978214D01*
X17556786Y-12992500D01*
X17571071Y-13021071D01*
X17571071Y-13049643D01*
X17428214Y-13078214D01*
X17685357Y-13163929D02*
X17713928Y-13178214D01*
X17771071Y-13178214D01*
X17799643Y-13163929D01*
X17813928Y-13135357D01*
X17813928Y-13121071D01*
X17799643Y-13092500D01*
X17771071Y-13078214D01*
X17728214Y-13078214D01*
X17699643Y-13063929D01*
X17685357Y-13035357D01*
X17685357Y-13021071D01*
X17699643Y-12992500D01*
X17728214Y-12978214D01*
X17771071Y-12978214D01*
X17799643Y-12992500D01*
X17913928Y-13292500D02*
X17928214Y-13278214D01*
X17956786Y-13235357D01*
X17971071Y-13206786D01*
X17985357Y-13163929D01*
X17999643Y-13092500D01*
X17999643Y-13035357D01*
X17985357Y-12963929D01*
X17971071Y-12921071D01*
X17956786Y-12892500D01*
X17928214Y-12849643D01*
X17913928Y-12835357D01*
X11377500Y-13388500D02*
X11377500Y-13488500D01*
X11327500Y-13438500D02*
X11427500Y-13438500D01*
X11871071Y-13574214D02*
X11699643Y-13574214D01*
X11785357Y-13574214D02*
X11785357Y-13274214D01*
X11756786Y-13317071D01*
X11728214Y-13345643D01*
X11699643Y-13359929D01*
X11999643Y-13545643D02*
X12013928Y-13559929D01*
X11999643Y-13574214D01*
X11985357Y-13559929D01*
X11999643Y-13545643D01*
X11999643Y-13574214D01*
X12199643Y-13274214D02*
X12228214Y-13274214D01*
X12256786Y-13288500D01*
X12271071Y-13302786D01*
X12285357Y-13331357D01*
X12299643Y-13388500D01*
X12299643Y-13459929D01*
X12285357Y-13517071D01*
X12271071Y-13545643D01*
X12256786Y-13559929D01*
X12228214Y-13574214D01*
X12199643Y-13574214D01*
X12171071Y-13559929D01*
X12156786Y-13545643D01*
X12142500Y-13517071D01*
X12128214Y-13459929D01*
X12128214Y-13388500D01*
X12142500Y-13331357D01*
X12156786Y-13302786D01*
X12171071Y-13288500D01*
X12199643Y-13274214D01*
X12485357Y-13274214D02*
X12513928Y-13274214D01*
X12542500Y-13288500D01*
X12556786Y-13302786D01*
X12571071Y-13331357D01*
X12585357Y-13388500D01*
X12585357Y-13459929D01*
X12571071Y-13517071D01*
X12556786Y-13545643D01*
X12542500Y-13559929D01*
X12513928Y-13574214D01*
X12485357Y-13574214D01*
X12456786Y-13559929D01*
X12442500Y-13545643D01*
X12428214Y-13517071D01*
X12413928Y-13459929D01*
X12413928Y-13388500D01*
X12428214Y-13331357D01*
X12442500Y-13302786D01*
X12456786Y-13288500D01*
X12485357Y-13274214D01*
X12713928Y-13574214D02*
X12713928Y-13374214D01*
X12713928Y-13402786D02*
X12728214Y-13388500D01*
X12756786Y-13374214D01*
X12799643Y-13374214D01*
X12828214Y-13388500D01*
X12842500Y-13417071D01*
X12842500Y-13574214D01*
X12842500Y-13417071D02*
X12856786Y-13388500D01*
X12885357Y-13374214D01*
X12928214Y-13374214D01*
X12956786Y-13388500D01*
X12971071Y-13417071D01*
X12971071Y-13574214D01*
X13113928Y-13574214D02*
X13113928Y-13374214D01*
X13113928Y-13402786D02*
X13128214Y-13388500D01*
X13156786Y-13374214D01*
X13199643Y-13374214D01*
X13228214Y-13388500D01*
X13242500Y-13417071D01*
X13242500Y-13574214D01*
X13242500Y-13417071D02*
X13256786Y-13388500D01*
X13285357Y-13374214D01*
X13328214Y-13374214D01*
X13356786Y-13388500D01*
X13371071Y-13417071D01*
X13371071Y-13574214D01*
X13956786Y-13259929D02*
X13699643Y-13645643D01*
X14342500Y-13274214D02*
X14371071Y-13274214D01*
X14399643Y-13288500D01*
X14413928Y-13302786D01*
X14428214Y-13331357D01*
X14442500Y-13388500D01*
X14442500Y-13459929D01*
X14428214Y-13517071D01*
X14413928Y-13545643D01*
X14399643Y-13559929D01*
X14371071Y-13574214D01*
X14342500Y-13574214D01*
X14313928Y-13559929D01*
X14299643Y-13545643D01*
X14285357Y-13517071D01*
X14271071Y-13459929D01*
X14271071Y-13388500D01*
X14285357Y-13331357D01*
X14299643Y-13302786D01*
X14313928Y-13288500D01*
X14342500Y-13274214D01*
X14571071Y-13545643D02*
X14585357Y-13559929D01*
X14571071Y-13574214D01*
X14556786Y-13559929D01*
X14571071Y-13545643D01*
X14571071Y-13574214D01*
X14771071Y-13274214D02*
X14799643Y-13274214D01*
X14828214Y-13288500D01*
X14842500Y-13302786D01*
X14856786Y-13331357D01*
X14871071Y-13388500D01*
X14871071Y-13459929D01*
X14856786Y-13517071D01*
X14842500Y-13545643D01*
X14828214Y-13559929D01*
X14799643Y-13574214D01*
X14771071Y-13574214D01*
X14742500Y-13559929D01*
X14728214Y-13545643D01*
X14713928Y-13517071D01*
X14699643Y-13459929D01*
X14699643Y-13388500D01*
X14713928Y-13331357D01*
X14728214Y-13302786D01*
X14742500Y-13288500D01*
X14771071Y-13274214D01*
X14971071Y-13274214D02*
X15156786Y-13274214D01*
X15056786Y-13388500D01*
X15099643Y-13388500D01*
X15128214Y-13402786D01*
X15142500Y-13417071D01*
X15156786Y-13445643D01*
X15156786Y-13517071D01*
X15142500Y-13545643D01*
X15128214Y-13559929D01*
X15099643Y-13574214D01*
X15013928Y-13574214D01*
X14985357Y-13559929D01*
X14971071Y-13545643D01*
X15299643Y-13574214D02*
X15356786Y-13574214D01*
X15385357Y-13559929D01*
X15399643Y-13545643D01*
X15428214Y-13502786D01*
X15442500Y-13445643D01*
X15442500Y-13331357D01*
X15428214Y-13302786D01*
X15413928Y-13288500D01*
X15385357Y-13274214D01*
X15328214Y-13274214D01*
X15299643Y-13288500D01*
X15285357Y-13302786D01*
X15271071Y-13331357D01*
X15271071Y-13402786D01*
X15285357Y-13431357D01*
X15299643Y-13445643D01*
X15328214Y-13459929D01*
X15385357Y-13459929D01*
X15413928Y-13445643D01*
X15428214Y-13431357D01*
X15442500Y-13402786D01*
X15556786Y-13274214D02*
X15556786Y-13331357D01*
X15671071Y-13274214D02*
X15671071Y-13331357D01*
X16113928Y-13688500D02*
X16099643Y-13674214D01*
X16071071Y-13631357D01*
X16056786Y-13602786D01*
X16042500Y-13559929D01*
X16028214Y-13488500D01*
X16028214Y-13431357D01*
X16042500Y-13359929D01*
X16056786Y-13317071D01*
X16071071Y-13288500D01*
X16099643Y-13245643D01*
X16113928Y-13231357D01*
X16385357Y-13574214D02*
X16213928Y-13574214D01*
X16299643Y-13574214D02*
X16299643Y-13274214D01*
X16271071Y-13317071D01*
X16242500Y-13345643D01*
X16213928Y-13359929D01*
X16571071Y-13274214D02*
X16599643Y-13274214D01*
X16628214Y-13288500D01*
X16642500Y-13302786D01*
X16656786Y-13331357D01*
X16671071Y-13388500D01*
X16671071Y-13459929D01*
X16656786Y-13517071D01*
X16642500Y-13545643D01*
X16628214Y-13559929D01*
X16599643Y-13574214D01*
X16571071Y-13574214D01*
X16542500Y-13559929D01*
X16528214Y-13545643D01*
X16513928Y-13517071D01*
X16499643Y-13459929D01*
X16499643Y-13388500D01*
X16513928Y-13331357D01*
X16528214Y-13302786D01*
X16542500Y-13288500D01*
X16571071Y-13274214D01*
X17028214Y-13574214D02*
X17028214Y-13274214D01*
X17156786Y-13574214D02*
X17156786Y-13417071D01*
X17142500Y-13388500D01*
X17113928Y-13374214D01*
X17071071Y-13374214D01*
X17042500Y-13388500D01*
X17028214Y-13402786D01*
X17342500Y-13574214D02*
X17313928Y-13559929D01*
X17299643Y-13545643D01*
X17285357Y-13517071D01*
X17285357Y-13431357D01*
X17299643Y-13402786D01*
X17313928Y-13388500D01*
X17342500Y-13374214D01*
X17385357Y-13374214D01*
X17413928Y-13388500D01*
X17428214Y-13402786D01*
X17442500Y-13431357D01*
X17442500Y-13517071D01*
X17428214Y-13545643D01*
X17413928Y-13559929D01*
X17385357Y-13574214D01*
X17342500Y-13574214D01*
X17613928Y-13574214D02*
X17585357Y-13559929D01*
X17571071Y-13531357D01*
X17571071Y-13274214D01*
X17842500Y-13559929D02*
X17813928Y-13574214D01*
X17756786Y-13574214D01*
X17728214Y-13559929D01*
X17713928Y-13531357D01*
X17713928Y-13417071D01*
X17728214Y-13388500D01*
X17756786Y-13374214D01*
X17813928Y-13374214D01*
X17842500Y-13388500D01*
X17856786Y-13417071D01*
X17856786Y-13445643D01*
X17713928Y-13474214D01*
X17971071Y-13559929D02*
X17999643Y-13574214D01*
X18056786Y-13574214D01*
X18085357Y-13559929D01*
X18099643Y-13531357D01*
X18099643Y-13517071D01*
X18085357Y-13488500D01*
X18056786Y-13474214D01*
X18013928Y-13474214D01*
X17985357Y-13459929D01*
X17971071Y-13431357D01*
X17971071Y-13417071D01*
X17985357Y-13388500D01*
X18013928Y-13374214D01*
X18056786Y-13374214D01*
X18085357Y-13388500D01*
X18199643Y-13688500D02*
X18213928Y-13674214D01*
X18242500Y-13631357D01*
X18256786Y-13602786D01*
X18271071Y-13559929D01*
X18285357Y-13488500D01*
X18285357Y-13431357D01*
X18271071Y-13359929D01*
X18256786Y-13317071D01*
X18242500Y-13288500D01*
X18213928Y-13245643D01*
X18199643Y-13231357D01*
X11393818Y-13915818D02*
X11393818Y-13753182D01*
X11231182Y-13753182D01*
X11231182Y-13915818D01*
X11393818Y-13915818D01*
X11699643Y-13698786D02*
X11713928Y-13684500D01*
X11742500Y-13670214D01*
X11813928Y-13670214D01*
X11842500Y-13684500D01*
X11856786Y-13698786D01*
X11871071Y-13727357D01*
X11871071Y-13755929D01*
X11856786Y-13798786D01*
X11685357Y-13970214D01*
X11871071Y-13970214D01*
X11999643Y-13941643D02*
X12013928Y-13955929D01*
X11999643Y-13970214D01*
X11985357Y-13955929D01*
X11999643Y-13941643D01*
X11999643Y-13970214D01*
X12113928Y-13670214D02*
X12299643Y-13670214D01*
X12199643Y-13784500D01*
X12242500Y-13784500D01*
X12271071Y-13798786D01*
X12285357Y-13813071D01*
X12299643Y-13841643D01*
X12299643Y-13913071D01*
X12285357Y-13941643D01*
X12271071Y-13955929D01*
X12242500Y-13970214D01*
X12156786Y-13970214D01*
X12128214Y-13955929D01*
X12113928Y-13941643D01*
X12485357Y-13670214D02*
X12513928Y-13670214D01*
X12542500Y-13684500D01*
X12556786Y-13698786D01*
X12571071Y-13727357D01*
X12585357Y-13784500D01*
X12585357Y-13855929D01*
X12571071Y-13913071D01*
X12556786Y-13941643D01*
X12542500Y-13955929D01*
X12513928Y-13970214D01*
X12485357Y-13970214D01*
X12456786Y-13955929D01*
X12442500Y-13941643D01*
X12428214Y-13913071D01*
X12413928Y-13855929D01*
X12413928Y-13784500D01*
X12428214Y-13727357D01*
X12442500Y-13698786D01*
X12456786Y-13684500D01*
X12485357Y-13670214D01*
X12713928Y-13970214D02*
X12713928Y-13770214D01*
X12713928Y-13798786D02*
X12728214Y-13784500D01*
X12756786Y-13770214D01*
X12799643Y-13770214D01*
X12828214Y-13784500D01*
X12842500Y-13813071D01*
X12842500Y-13970214D01*
X12842500Y-13813071D02*
X12856786Y-13784500D01*
X12885357Y-13770214D01*
X12928214Y-13770214D01*
X12956786Y-13784500D01*
X12971071Y-13813071D01*
X12971071Y-13970214D01*
X13113928Y-13970214D02*
X13113928Y-13770214D01*
X13113928Y-13798786D02*
X13128214Y-13784500D01*
X13156786Y-13770214D01*
X13199643Y-13770214D01*
X13228214Y-13784500D01*
X13242500Y-13813071D01*
X13242500Y-13970214D01*
X13242500Y-13813071D02*
X13256786Y-13784500D01*
X13285357Y-13770214D01*
X13328214Y-13770214D01*
X13356786Y-13784500D01*
X13371071Y-13813071D01*
X13371071Y-13970214D01*
X13956786Y-13655929D02*
X13699643Y-14041643D01*
X14342500Y-13670214D02*
X14371071Y-13670214D01*
X14399643Y-13684500D01*
X14413928Y-13698786D01*
X14428214Y-13727357D01*
X14442500Y-13784500D01*
X14442500Y-13855929D01*
X14428214Y-13913071D01*
X14413928Y-13941643D01*
X14399643Y-13955929D01*
X14371071Y-13970214D01*
X14342500Y-13970214D01*
X14313928Y-13955929D01*
X14299643Y-13941643D01*
X14285357Y-13913071D01*
X14271071Y-13855929D01*
X14271071Y-13784500D01*
X14285357Y-13727357D01*
X14299643Y-13698786D01*
X14313928Y-13684500D01*
X14342500Y-13670214D01*
X14571071Y-13941643D02*
X14585357Y-13955929D01*
X14571071Y-13970214D01*
X14556786Y-13955929D01*
X14571071Y-13941643D01*
X14571071Y-13970214D01*
X14771071Y-13670214D02*
X14799643Y-13670214D01*
X14828214Y-13684500D01*
X14842500Y-13698786D01*
X14856786Y-13727357D01*
X14871071Y-13784500D01*
X14871071Y-13855929D01*
X14856786Y-13913071D01*
X14842500Y-13941643D01*
X14828214Y-13955929D01*
X14799643Y-13970214D01*
X14771071Y-13970214D01*
X14742500Y-13955929D01*
X14728214Y-13941643D01*
X14713928Y-13913071D01*
X14699643Y-13855929D01*
X14699643Y-13784500D01*
X14713928Y-13727357D01*
X14728214Y-13698786D01*
X14742500Y-13684500D01*
X14771071Y-13670214D01*
X15013928Y-13970214D02*
X15071071Y-13970214D01*
X15099643Y-13955929D01*
X15113928Y-13941643D01*
X15142500Y-13898786D01*
X15156786Y-13841643D01*
X15156786Y-13727357D01*
X15142500Y-13698786D01*
X15128214Y-13684500D01*
X15099643Y-13670214D01*
X15042500Y-13670214D01*
X15013928Y-13684500D01*
X14999643Y-13698786D01*
X14985357Y-13727357D01*
X14985357Y-13798786D01*
X14999643Y-13827357D01*
X15013928Y-13841643D01*
X15042500Y-13855929D01*
X15099643Y-13855929D01*
X15128214Y-13841643D01*
X15142500Y-13827357D01*
X15156786Y-13798786D01*
X15442500Y-13970214D02*
X15271071Y-13970214D01*
X15356786Y-13970214D02*
X15356786Y-13670214D01*
X15328214Y-13713071D01*
X15299643Y-13741643D01*
X15271071Y-13755929D01*
X15556786Y-13670214D02*
X15556786Y-13727357D01*
X15671071Y-13670214D02*
X15671071Y-13727357D01*
X16113928Y-14084500D02*
X16099643Y-14070214D01*
X16071071Y-14027357D01*
X16056786Y-13998786D01*
X16042500Y-13955929D01*
X16028214Y-13884500D01*
X16028214Y-13827357D01*
X16042500Y-13755929D01*
X16056786Y-13713071D01*
X16071071Y-13684500D01*
X16099643Y-13641643D01*
X16113928Y-13627357D01*
X16213928Y-13698786D02*
X16228214Y-13684500D01*
X16256786Y-13670214D01*
X16328214Y-13670214D01*
X16356786Y-13684500D01*
X16371071Y-13698786D01*
X16385357Y-13727357D01*
X16385357Y-13755929D01*
X16371071Y-13798786D01*
X16199643Y-13970214D01*
X16385357Y-13970214D01*
X16742500Y-13970214D02*
X16742500Y-13670214D01*
X16871071Y-13970214D02*
X16871071Y-13813071D01*
X16856786Y-13784500D01*
X16828214Y-13770214D01*
X16785357Y-13770214D01*
X16756786Y-13784500D01*
X16742500Y-13798786D01*
X17056786Y-13970214D02*
X17028214Y-13955929D01*
X17013928Y-13941643D01*
X16999643Y-13913071D01*
X16999643Y-13827357D01*
X17013928Y-13798786D01*
X17028214Y-13784500D01*
X17056786Y-13770214D01*
X17099643Y-13770214D01*
X17128214Y-13784500D01*
X17142500Y-13798786D01*
X17156786Y-13827357D01*
X17156786Y-13913071D01*
X17142500Y-13941643D01*
X17128214Y-13955929D01*
X17099643Y-13970214D01*
X17056786Y-13970214D01*
X17328214Y-13970214D02*
X17299643Y-13955929D01*
X17285357Y-13927357D01*
X17285357Y-13670214D01*
X17556786Y-13955929D02*
X17528214Y-13970214D01*
X17471071Y-13970214D01*
X17442500Y-13955929D01*
X17428214Y-13927357D01*
X17428214Y-13813071D01*
X17442500Y-13784500D01*
X17471071Y-13770214D01*
X17528214Y-13770214D01*
X17556786Y-13784500D01*
X17571071Y-13813071D01*
X17571071Y-13841643D01*
X17428214Y-13870214D01*
X17685357Y-13955929D02*
X17713928Y-13970214D01*
X17771071Y-13970214D01*
X17799643Y-13955929D01*
X17813928Y-13927357D01*
X17813928Y-13913071D01*
X17799643Y-13884500D01*
X17771071Y-13870214D01*
X17728214Y-13870214D01*
X17699643Y-13855929D01*
X17685357Y-13827357D01*
X17685357Y-13813071D01*
X17699643Y-13784500D01*
X17728214Y-13770214D01*
X17771071Y-13770214D01*
X17799643Y-13784500D01*
X17913928Y-14084500D02*
X17928214Y-14070214D01*
X17956786Y-14027357D01*
X17971071Y-13998786D01*
X17985357Y-13955929D01*
X17999643Y-13884500D01*
X17999643Y-13827357D01*
X17985357Y-13755929D01*
X17971071Y-13713071D01*
X17956786Y-13684500D01*
X17928214Y-13641643D01*
X17913928Y-13627357D01*
M02*
