G04 #@! TF.GenerationSoftware,KiCad,Pcbnew,5.1.4*
G04 #@! TF.CreationDate,2019-09-30T21:36:49+02:00*
G04 #@! TF.ProjectId,Multiboard,4d756c74-6962-46f6-9172-642e6b696361,rev?*
G04 #@! TF.SameCoordinates,Original*
G04 #@! TF.FileFunction,Copper,L1,Top*
G04 #@! TF.FilePolarity,Positive*
%FSLAX46Y46*%
G04 Gerber Fmt 4.6, Leading zero omitted, Abs format (unit mm)*
G04 Created by KiCad (PCBNEW 5.1.4) date 2019-09-30 21:36:49*
%MOMM*%
%LPD*%
G04 APERTURE LIST*
%ADD10C,3.000000*%
%ADD11R,1.600000X1.600000*%
%ADD12C,1.600000*%
%ADD13R,8.000000X1.900000*%
%ADD14R,7.500000X2.000000*%
%ADD15R,1.700000X1.700000*%
%ADD16O,1.700000X1.700000*%
%ADD17C,0.100000*%
%ADD18C,1.524000*%
%ADD19C,1.000000*%
%ADD20C,0.800000*%
%ADD21C,1.000000*%
%ADD22C,0.250000*%
G04 APERTURE END LIST*
D10*
X137625000Y-79285000D03*
X137625000Y-66145000D03*
D11*
X140335000Y-69215000D03*
D12*
X140335000Y-71715000D03*
X140335000Y-73715000D03*
X140335000Y-76215000D03*
D13*
X151310000Y-90170000D03*
X151310000Y-97790000D03*
D14*
X151060000Y-95280000D03*
X151060000Y-92680000D03*
D15*
X160020000Y-83185000D03*
D16*
X157480000Y-83185000D03*
X154940000Y-83185000D03*
X152400000Y-83185000D03*
X149860000Y-83185000D03*
D17*
G36*
X127418345Y-83948835D02*
G01*
X127455329Y-83954321D01*
X127491598Y-83963406D01*
X127526802Y-83976002D01*
X127560602Y-83991988D01*
X127592672Y-84011210D01*
X127622704Y-84033483D01*
X127650408Y-84058592D01*
X127675517Y-84086296D01*
X127697790Y-84116328D01*
X127717012Y-84148398D01*
X127732998Y-84182198D01*
X127745594Y-84217402D01*
X127754679Y-84253671D01*
X127760165Y-84290655D01*
X127762000Y-84328000D01*
X127762000Y-89662000D01*
X127760165Y-89699345D01*
X127754679Y-89736329D01*
X127745594Y-89772598D01*
X127732998Y-89807802D01*
X127717012Y-89841602D01*
X127697790Y-89873672D01*
X127675517Y-89903704D01*
X127650408Y-89931408D01*
X127622704Y-89956517D01*
X127592672Y-89978790D01*
X127560602Y-89998012D01*
X127526802Y-90013998D01*
X127491598Y-90026594D01*
X127455329Y-90035679D01*
X127418345Y-90041165D01*
X127381000Y-90043000D01*
X126619000Y-90043000D01*
X126581655Y-90041165D01*
X126544671Y-90035679D01*
X126508402Y-90026594D01*
X126473198Y-90013998D01*
X126439398Y-89998012D01*
X126407328Y-89978790D01*
X126377296Y-89956517D01*
X126349592Y-89931408D01*
X126324483Y-89903704D01*
X126302210Y-89873672D01*
X126282988Y-89841602D01*
X126267002Y-89807802D01*
X126254406Y-89772598D01*
X126245321Y-89736329D01*
X126239835Y-89699345D01*
X126238000Y-89662000D01*
X126238000Y-84328000D01*
X126239835Y-84290655D01*
X126245321Y-84253671D01*
X126254406Y-84217402D01*
X126267002Y-84182198D01*
X126282988Y-84148398D01*
X126302210Y-84116328D01*
X126324483Y-84086296D01*
X126349592Y-84058592D01*
X126377296Y-84033483D01*
X126407328Y-84011210D01*
X126439398Y-83991988D01*
X126473198Y-83976002D01*
X126508402Y-83963406D01*
X126544671Y-83954321D01*
X126581655Y-83948835D01*
X126619000Y-83947000D01*
X127381000Y-83947000D01*
X127418345Y-83948835D01*
X127418345Y-83948835D01*
G37*
D18*
X127000000Y-86995000D03*
D17*
G36*
X129958345Y-83948835D02*
G01*
X129995329Y-83954321D01*
X130031598Y-83963406D01*
X130066802Y-83976002D01*
X130100602Y-83991988D01*
X130132672Y-84011210D01*
X130162704Y-84033483D01*
X130190408Y-84058592D01*
X130215517Y-84086296D01*
X130237790Y-84116328D01*
X130257012Y-84148398D01*
X130272998Y-84182198D01*
X130285594Y-84217402D01*
X130294679Y-84253671D01*
X130300165Y-84290655D01*
X130302000Y-84328000D01*
X130302000Y-89662000D01*
X130300165Y-89699345D01*
X130294679Y-89736329D01*
X130285594Y-89772598D01*
X130272998Y-89807802D01*
X130257012Y-89841602D01*
X130237790Y-89873672D01*
X130215517Y-89903704D01*
X130190408Y-89931408D01*
X130162704Y-89956517D01*
X130132672Y-89978790D01*
X130100602Y-89998012D01*
X130066802Y-90013998D01*
X130031598Y-90026594D01*
X129995329Y-90035679D01*
X129958345Y-90041165D01*
X129921000Y-90043000D01*
X129159000Y-90043000D01*
X129121655Y-90041165D01*
X129084671Y-90035679D01*
X129048402Y-90026594D01*
X129013198Y-90013998D01*
X128979398Y-89998012D01*
X128947328Y-89978790D01*
X128917296Y-89956517D01*
X128889592Y-89931408D01*
X128864483Y-89903704D01*
X128842210Y-89873672D01*
X128822988Y-89841602D01*
X128807002Y-89807802D01*
X128794406Y-89772598D01*
X128785321Y-89736329D01*
X128779835Y-89699345D01*
X128778000Y-89662000D01*
X128778000Y-84328000D01*
X128779835Y-84290655D01*
X128785321Y-84253671D01*
X128794406Y-84217402D01*
X128807002Y-84182198D01*
X128822988Y-84148398D01*
X128842210Y-84116328D01*
X128864483Y-84086296D01*
X128889592Y-84058592D01*
X128917296Y-84033483D01*
X128947328Y-84011210D01*
X128979398Y-83991988D01*
X129013198Y-83976002D01*
X129048402Y-83963406D01*
X129084671Y-83954321D01*
X129121655Y-83948835D01*
X129159000Y-83947000D01*
X129921000Y-83947000D01*
X129958345Y-83948835D01*
X129958345Y-83948835D01*
G37*
D18*
X129540000Y-86995000D03*
D17*
G36*
X132498345Y-83948835D02*
G01*
X132535329Y-83954321D01*
X132571598Y-83963406D01*
X132606802Y-83976002D01*
X132640602Y-83991988D01*
X132672672Y-84011210D01*
X132702704Y-84033483D01*
X132730408Y-84058592D01*
X132755517Y-84086296D01*
X132777790Y-84116328D01*
X132797012Y-84148398D01*
X132812998Y-84182198D01*
X132825594Y-84217402D01*
X132834679Y-84253671D01*
X132840165Y-84290655D01*
X132842000Y-84328000D01*
X132842000Y-89662000D01*
X132840165Y-89699345D01*
X132834679Y-89736329D01*
X132825594Y-89772598D01*
X132812998Y-89807802D01*
X132797012Y-89841602D01*
X132777790Y-89873672D01*
X132755517Y-89903704D01*
X132730408Y-89931408D01*
X132702704Y-89956517D01*
X132672672Y-89978790D01*
X132640602Y-89998012D01*
X132606802Y-90013998D01*
X132571598Y-90026594D01*
X132535329Y-90035679D01*
X132498345Y-90041165D01*
X132461000Y-90043000D01*
X131699000Y-90043000D01*
X131661655Y-90041165D01*
X131624671Y-90035679D01*
X131588402Y-90026594D01*
X131553198Y-90013998D01*
X131519398Y-89998012D01*
X131487328Y-89978790D01*
X131457296Y-89956517D01*
X131429592Y-89931408D01*
X131404483Y-89903704D01*
X131382210Y-89873672D01*
X131362988Y-89841602D01*
X131347002Y-89807802D01*
X131334406Y-89772598D01*
X131325321Y-89736329D01*
X131319835Y-89699345D01*
X131318000Y-89662000D01*
X131318000Y-84328000D01*
X131319835Y-84290655D01*
X131325321Y-84253671D01*
X131334406Y-84217402D01*
X131347002Y-84182198D01*
X131362988Y-84148398D01*
X131382210Y-84116328D01*
X131404483Y-84086296D01*
X131429592Y-84058592D01*
X131457296Y-84033483D01*
X131487328Y-84011210D01*
X131519398Y-83991988D01*
X131553198Y-83976002D01*
X131588402Y-83963406D01*
X131624671Y-83954321D01*
X131661655Y-83948835D01*
X131699000Y-83947000D01*
X132461000Y-83947000D01*
X132498345Y-83948835D01*
X132498345Y-83948835D01*
G37*
D18*
X132080000Y-86995000D03*
D17*
G36*
X135038345Y-83948835D02*
G01*
X135075329Y-83954321D01*
X135111598Y-83963406D01*
X135146802Y-83976002D01*
X135180602Y-83991988D01*
X135212672Y-84011210D01*
X135242704Y-84033483D01*
X135270408Y-84058592D01*
X135295517Y-84086296D01*
X135317790Y-84116328D01*
X135337012Y-84148398D01*
X135352998Y-84182198D01*
X135365594Y-84217402D01*
X135374679Y-84253671D01*
X135380165Y-84290655D01*
X135382000Y-84328000D01*
X135382000Y-89662000D01*
X135380165Y-89699345D01*
X135374679Y-89736329D01*
X135365594Y-89772598D01*
X135352998Y-89807802D01*
X135337012Y-89841602D01*
X135317790Y-89873672D01*
X135295517Y-89903704D01*
X135270408Y-89931408D01*
X135242704Y-89956517D01*
X135212672Y-89978790D01*
X135180602Y-89998012D01*
X135146802Y-90013998D01*
X135111598Y-90026594D01*
X135075329Y-90035679D01*
X135038345Y-90041165D01*
X135001000Y-90043000D01*
X134239000Y-90043000D01*
X134201655Y-90041165D01*
X134164671Y-90035679D01*
X134128402Y-90026594D01*
X134093198Y-90013998D01*
X134059398Y-89998012D01*
X134027328Y-89978790D01*
X133997296Y-89956517D01*
X133969592Y-89931408D01*
X133944483Y-89903704D01*
X133922210Y-89873672D01*
X133902988Y-89841602D01*
X133887002Y-89807802D01*
X133874406Y-89772598D01*
X133865321Y-89736329D01*
X133859835Y-89699345D01*
X133858000Y-89662000D01*
X133858000Y-84328000D01*
X133859835Y-84290655D01*
X133865321Y-84253671D01*
X133874406Y-84217402D01*
X133887002Y-84182198D01*
X133902988Y-84148398D01*
X133922210Y-84116328D01*
X133944483Y-84086296D01*
X133969592Y-84058592D01*
X133997296Y-84033483D01*
X134027328Y-84011210D01*
X134059398Y-83991988D01*
X134093198Y-83976002D01*
X134128402Y-83963406D01*
X134164671Y-83954321D01*
X134201655Y-83948835D01*
X134239000Y-83947000D01*
X135001000Y-83947000D01*
X135038345Y-83948835D01*
X135038345Y-83948835D01*
G37*
D18*
X134620000Y-86995000D03*
D17*
G36*
X137578345Y-83948835D02*
G01*
X137615329Y-83954321D01*
X137651598Y-83963406D01*
X137686802Y-83976002D01*
X137720602Y-83991988D01*
X137752672Y-84011210D01*
X137782704Y-84033483D01*
X137810408Y-84058592D01*
X137835517Y-84086296D01*
X137857790Y-84116328D01*
X137877012Y-84148398D01*
X137892998Y-84182198D01*
X137905594Y-84217402D01*
X137914679Y-84253671D01*
X137920165Y-84290655D01*
X137922000Y-84328000D01*
X137922000Y-89662000D01*
X137920165Y-89699345D01*
X137914679Y-89736329D01*
X137905594Y-89772598D01*
X137892998Y-89807802D01*
X137877012Y-89841602D01*
X137857790Y-89873672D01*
X137835517Y-89903704D01*
X137810408Y-89931408D01*
X137782704Y-89956517D01*
X137752672Y-89978790D01*
X137720602Y-89998012D01*
X137686802Y-90013998D01*
X137651598Y-90026594D01*
X137615329Y-90035679D01*
X137578345Y-90041165D01*
X137541000Y-90043000D01*
X136779000Y-90043000D01*
X136741655Y-90041165D01*
X136704671Y-90035679D01*
X136668402Y-90026594D01*
X136633198Y-90013998D01*
X136599398Y-89998012D01*
X136567328Y-89978790D01*
X136537296Y-89956517D01*
X136509592Y-89931408D01*
X136484483Y-89903704D01*
X136462210Y-89873672D01*
X136442988Y-89841602D01*
X136427002Y-89807802D01*
X136414406Y-89772598D01*
X136405321Y-89736329D01*
X136399835Y-89699345D01*
X136398000Y-89662000D01*
X136398000Y-84328000D01*
X136399835Y-84290655D01*
X136405321Y-84253671D01*
X136414406Y-84217402D01*
X136427002Y-84182198D01*
X136442988Y-84148398D01*
X136462210Y-84116328D01*
X136484483Y-84086296D01*
X136509592Y-84058592D01*
X136537296Y-84033483D01*
X136567328Y-84011210D01*
X136599398Y-83991988D01*
X136633198Y-83976002D01*
X136668402Y-83963406D01*
X136704671Y-83954321D01*
X136741655Y-83948835D01*
X136779000Y-83947000D01*
X137541000Y-83947000D01*
X137578345Y-83948835D01*
X137578345Y-83948835D01*
G37*
D18*
X137160000Y-86995000D03*
D16*
X143510000Y-68580000D03*
X143510000Y-71120000D03*
X143510000Y-73660000D03*
X143510000Y-76200000D03*
D15*
X143510000Y-78740000D03*
D19*
X152400000Y-53340000D03*
X149860000Y-46990000D03*
X127000000Y-90170000D03*
X129540000Y-90170000D03*
X132080000Y-90170000D03*
X134620000Y-90170000D03*
X137160000Y-90170000D03*
D20*
X142334999Y-92615001D03*
X142240000Y-95250000D03*
D21*
X152400000Y-53340000D02*
X152400000Y-83185000D01*
X149860000Y-46990000D02*
X149860000Y-83185000D01*
X127000000Y-86995000D02*
X127000000Y-90170000D01*
X127000000Y-90170000D02*
X127000000Y-90170000D01*
X129540000Y-86995000D02*
X129540000Y-90170000D01*
X129540000Y-90170000D02*
X129540000Y-90170000D01*
X132080000Y-86995000D02*
X132080000Y-90170000D01*
X132080000Y-90170000D02*
X132080000Y-90170000D01*
X134620000Y-86995000D02*
X134620000Y-90170000D01*
X134620000Y-90170000D02*
X134620000Y-90170000D01*
X137160000Y-86995000D02*
X137160000Y-90170000D01*
X137160000Y-90170000D02*
X137160000Y-90170000D01*
X140970000Y-68580000D02*
X140335000Y-69215000D01*
X143510000Y-68580000D02*
X140970000Y-68580000D01*
X140930000Y-71120000D02*
X140335000Y-71715000D01*
X143510000Y-71120000D02*
X140930000Y-71120000D01*
D22*
X142334999Y-92615001D02*
X150995001Y-92615001D01*
X140390000Y-73660000D02*
X140335000Y-73715000D01*
D21*
X143510000Y-73660000D02*
X140390000Y-73660000D01*
D22*
X142240000Y-95250000D02*
X151030000Y-95250000D01*
D21*
X140350000Y-76200000D02*
X140335000Y-76215000D01*
X143510000Y-76200000D02*
X140350000Y-76200000D01*
X141134999Y-77014999D02*
X141134999Y-97625001D01*
X140335000Y-76215000D02*
X141134999Y-77014999D01*
X141299998Y-97790000D02*
X151310000Y-97790000D01*
X141134999Y-97625001D02*
X141299998Y-97790000D01*
X143510000Y-78740000D02*
X143510000Y-90170000D01*
X143510000Y-90170000D02*
X151310000Y-90170000D01*
M02*
