G04 #@! TF.GenerationSoftware,KiCad,Pcbnew,5.1.4-5.1.4*
G04 #@! TF.CreationDate,2019-09-28T18:39:02+02:00*
G04 #@! TF.ProjectId,Multiboard,4d756c74-6962-46f6-9172-642e6b696361,rev?*
G04 #@! TF.SameCoordinates,Original*
G04 #@! TF.FileFunction,Profile,NP*
%FSLAX46Y46*%
G04 Gerber Fmt 4.6, Leading zero omitted, Abs format (unit mm)*
G04 Created by KiCad (PCBNEW 5.1.4-5.1.4) date 2019-09-28 18:39:02*
%MOMM*%
%LPD*%
G04 APERTURE LIST*
%ADD10C,0.050000*%
G04 APERTURE END LIST*
D10*
X147320000Y-116840000D02*
X148590000Y-116840000D01*
X147320000Y-109220000D02*
X147320000Y-116840000D01*
X144780000Y-109220000D02*
X147320000Y-109220000D01*
X147320000Y-107950000D02*
X144780000Y-107950000D01*
X147320000Y-102870000D02*
X147320000Y-107950000D01*
X148590000Y-102870000D02*
X147320000Y-102870000D01*
X144780000Y-110490000D02*
X144780000Y-109220000D01*
X128270000Y-111760000D02*
X128270000Y-115570000D01*
X127000000Y-111760000D02*
X128270000Y-111760000D01*
X128270000Y-110490000D02*
X128270000Y-102870000D01*
X127000000Y-110490000D02*
X128270000Y-110490000D01*
X127000000Y-101600000D02*
X127000000Y-110490000D01*
X137160000Y-96520000D02*
X139700000Y-96520000D01*
X165100000Y-116840000D02*
X148590000Y-116840000D01*
X165100000Y-95250000D02*
X165100000Y-116840000D01*
X163830000Y-101600000D02*
X163830000Y-102870000D01*
X152400000Y-101600000D02*
X163830000Y-101600000D01*
X149860000Y-102870000D02*
X163830000Y-102870000D01*
X149860000Y-101600000D02*
X149860000Y-102870000D01*
X148590000Y-101600000D02*
X148590000Y-102870000D01*
X148590000Y-101600000D02*
X127000000Y-101600000D01*
X149860000Y-101600000D02*
X152400000Y-101600000D01*
X128270000Y-76200000D02*
X114300000Y-76200000D01*
X128270000Y-96520000D02*
X128270000Y-76200000D01*
X137160000Y-96520000D02*
X128270000Y-96520000D01*
X144780000Y-115570000D02*
X144780000Y-110490000D01*
X128270000Y-115570000D02*
X144780000Y-115570000D01*
X144780000Y-102870000D02*
X128270000Y-102870000D01*
X144780000Y-107950000D02*
X144780000Y-102870000D01*
X152400000Y-96520000D02*
X139700000Y-96520000D01*
X152400000Y-83820000D02*
X152400000Y-96520000D01*
X165100000Y-83820000D02*
X152400000Y-83820000D01*
X165100000Y-95250000D02*
X165100000Y-83820000D01*
X114300000Y-111760000D02*
X127000000Y-111760000D01*
X114300000Y-76200000D02*
X114300000Y-111760000D01*
M02*
