G04 #@! TF.GenerationSoftware,KiCad,Pcbnew,5.1.4*
G04 #@! TF.CreationDate,2019-09-30T21:36:49+02:00*
G04 #@! TF.ProjectId,Multiboard,4d756c74-6962-46f6-9172-642e6b696361,rev?*
G04 #@! TF.SameCoordinates,Original*
G04 #@! TF.FileFunction,Copper,L2,Bot*
G04 #@! TF.FilePolarity,Positive*
%FSLAX46Y46*%
G04 Gerber Fmt 4.6, Leading zero omitted, Abs format (unit mm)*
G04 Created by KiCad (PCBNEW 5.1.4) date 2019-09-30 21:36:49*
%MOMM*%
%LPD*%
G04 APERTURE LIST*
%ADD10C,1.250000*%
%ADD11C,3.000000*%
%ADD12R,1.600000X1.600000*%
%ADD13C,1.600000*%
%ADD14R,1.700000X1.700000*%
%ADD15O,1.700000X1.700000*%
%ADD16C,0.100000*%
%ADD17C,1.524000*%
%ADD18C,1.000000*%
%ADD19C,0.800000*%
%ADD20C,1.000000*%
%ADD21C,0.250000*%
G04 APERTURE END LIST*
D10*
X137640000Y-49050000D03*
X134140000Y-49050000D03*
X135890000Y-50800000D03*
X137640000Y-52550000D03*
X134140000Y-52550000D03*
D11*
X137625000Y-79285000D03*
X137625000Y-66145000D03*
D12*
X140335000Y-69215000D03*
D13*
X140335000Y-71715000D03*
X140335000Y-73715000D03*
X140335000Y-76215000D03*
D14*
X160020000Y-83185000D03*
D15*
X157480000Y-83185000D03*
X154940000Y-83185000D03*
X152400000Y-83185000D03*
X149860000Y-83185000D03*
D16*
G36*
X137578345Y-90933835D02*
G01*
X137615329Y-90939321D01*
X137651598Y-90948406D01*
X137686802Y-90961002D01*
X137720602Y-90976988D01*
X137752672Y-90996210D01*
X137782704Y-91018483D01*
X137810408Y-91043592D01*
X137835517Y-91071296D01*
X137857790Y-91101328D01*
X137877012Y-91133398D01*
X137892998Y-91167198D01*
X137905594Y-91202402D01*
X137914679Y-91238671D01*
X137920165Y-91275655D01*
X137922000Y-91313000D01*
X137922000Y-96647000D01*
X137920165Y-96684345D01*
X137914679Y-96721329D01*
X137905594Y-96757598D01*
X137892998Y-96792802D01*
X137877012Y-96826602D01*
X137857790Y-96858672D01*
X137835517Y-96888704D01*
X137810408Y-96916408D01*
X137782704Y-96941517D01*
X137752672Y-96963790D01*
X137720602Y-96983012D01*
X137686802Y-96998998D01*
X137651598Y-97011594D01*
X137615329Y-97020679D01*
X137578345Y-97026165D01*
X137541000Y-97028000D01*
X136779000Y-97028000D01*
X136741655Y-97026165D01*
X136704671Y-97020679D01*
X136668402Y-97011594D01*
X136633198Y-96998998D01*
X136599398Y-96983012D01*
X136567328Y-96963790D01*
X136537296Y-96941517D01*
X136509592Y-96916408D01*
X136484483Y-96888704D01*
X136462210Y-96858672D01*
X136442988Y-96826602D01*
X136427002Y-96792802D01*
X136414406Y-96757598D01*
X136405321Y-96721329D01*
X136399835Y-96684345D01*
X136398000Y-96647000D01*
X136398000Y-91313000D01*
X136399835Y-91275655D01*
X136405321Y-91238671D01*
X136414406Y-91202402D01*
X136427002Y-91167198D01*
X136442988Y-91133398D01*
X136462210Y-91101328D01*
X136484483Y-91071296D01*
X136509592Y-91043592D01*
X136537296Y-91018483D01*
X136567328Y-90996210D01*
X136599398Y-90976988D01*
X136633198Y-90961002D01*
X136668402Y-90948406D01*
X136704671Y-90939321D01*
X136741655Y-90933835D01*
X136779000Y-90932000D01*
X137541000Y-90932000D01*
X137578345Y-90933835D01*
X137578345Y-90933835D01*
G37*
D17*
X137160000Y-93980000D03*
D16*
G36*
X135038345Y-90933835D02*
G01*
X135075329Y-90939321D01*
X135111598Y-90948406D01*
X135146802Y-90961002D01*
X135180602Y-90976988D01*
X135212672Y-90996210D01*
X135242704Y-91018483D01*
X135270408Y-91043592D01*
X135295517Y-91071296D01*
X135317790Y-91101328D01*
X135337012Y-91133398D01*
X135352998Y-91167198D01*
X135365594Y-91202402D01*
X135374679Y-91238671D01*
X135380165Y-91275655D01*
X135382000Y-91313000D01*
X135382000Y-96647000D01*
X135380165Y-96684345D01*
X135374679Y-96721329D01*
X135365594Y-96757598D01*
X135352998Y-96792802D01*
X135337012Y-96826602D01*
X135317790Y-96858672D01*
X135295517Y-96888704D01*
X135270408Y-96916408D01*
X135242704Y-96941517D01*
X135212672Y-96963790D01*
X135180602Y-96983012D01*
X135146802Y-96998998D01*
X135111598Y-97011594D01*
X135075329Y-97020679D01*
X135038345Y-97026165D01*
X135001000Y-97028000D01*
X134239000Y-97028000D01*
X134201655Y-97026165D01*
X134164671Y-97020679D01*
X134128402Y-97011594D01*
X134093198Y-96998998D01*
X134059398Y-96983012D01*
X134027328Y-96963790D01*
X133997296Y-96941517D01*
X133969592Y-96916408D01*
X133944483Y-96888704D01*
X133922210Y-96858672D01*
X133902988Y-96826602D01*
X133887002Y-96792802D01*
X133874406Y-96757598D01*
X133865321Y-96721329D01*
X133859835Y-96684345D01*
X133858000Y-96647000D01*
X133858000Y-91313000D01*
X133859835Y-91275655D01*
X133865321Y-91238671D01*
X133874406Y-91202402D01*
X133887002Y-91167198D01*
X133902988Y-91133398D01*
X133922210Y-91101328D01*
X133944483Y-91071296D01*
X133969592Y-91043592D01*
X133997296Y-91018483D01*
X134027328Y-90996210D01*
X134059398Y-90976988D01*
X134093198Y-90961002D01*
X134128402Y-90948406D01*
X134164671Y-90939321D01*
X134201655Y-90933835D01*
X134239000Y-90932000D01*
X135001000Y-90932000D01*
X135038345Y-90933835D01*
X135038345Y-90933835D01*
G37*
D17*
X134620000Y-93980000D03*
D16*
G36*
X132498345Y-90933835D02*
G01*
X132535329Y-90939321D01*
X132571598Y-90948406D01*
X132606802Y-90961002D01*
X132640602Y-90976988D01*
X132672672Y-90996210D01*
X132702704Y-91018483D01*
X132730408Y-91043592D01*
X132755517Y-91071296D01*
X132777790Y-91101328D01*
X132797012Y-91133398D01*
X132812998Y-91167198D01*
X132825594Y-91202402D01*
X132834679Y-91238671D01*
X132840165Y-91275655D01*
X132842000Y-91313000D01*
X132842000Y-96647000D01*
X132840165Y-96684345D01*
X132834679Y-96721329D01*
X132825594Y-96757598D01*
X132812998Y-96792802D01*
X132797012Y-96826602D01*
X132777790Y-96858672D01*
X132755517Y-96888704D01*
X132730408Y-96916408D01*
X132702704Y-96941517D01*
X132672672Y-96963790D01*
X132640602Y-96983012D01*
X132606802Y-96998998D01*
X132571598Y-97011594D01*
X132535329Y-97020679D01*
X132498345Y-97026165D01*
X132461000Y-97028000D01*
X131699000Y-97028000D01*
X131661655Y-97026165D01*
X131624671Y-97020679D01*
X131588402Y-97011594D01*
X131553198Y-96998998D01*
X131519398Y-96983012D01*
X131487328Y-96963790D01*
X131457296Y-96941517D01*
X131429592Y-96916408D01*
X131404483Y-96888704D01*
X131382210Y-96858672D01*
X131362988Y-96826602D01*
X131347002Y-96792802D01*
X131334406Y-96757598D01*
X131325321Y-96721329D01*
X131319835Y-96684345D01*
X131318000Y-96647000D01*
X131318000Y-91313000D01*
X131319835Y-91275655D01*
X131325321Y-91238671D01*
X131334406Y-91202402D01*
X131347002Y-91167198D01*
X131362988Y-91133398D01*
X131382210Y-91101328D01*
X131404483Y-91071296D01*
X131429592Y-91043592D01*
X131457296Y-91018483D01*
X131487328Y-90996210D01*
X131519398Y-90976988D01*
X131553198Y-90961002D01*
X131588402Y-90948406D01*
X131624671Y-90939321D01*
X131661655Y-90933835D01*
X131699000Y-90932000D01*
X132461000Y-90932000D01*
X132498345Y-90933835D01*
X132498345Y-90933835D01*
G37*
D17*
X132080000Y-93980000D03*
D16*
G36*
X129958345Y-90933835D02*
G01*
X129995329Y-90939321D01*
X130031598Y-90948406D01*
X130066802Y-90961002D01*
X130100602Y-90976988D01*
X130132672Y-90996210D01*
X130162704Y-91018483D01*
X130190408Y-91043592D01*
X130215517Y-91071296D01*
X130237790Y-91101328D01*
X130257012Y-91133398D01*
X130272998Y-91167198D01*
X130285594Y-91202402D01*
X130294679Y-91238671D01*
X130300165Y-91275655D01*
X130302000Y-91313000D01*
X130302000Y-96647000D01*
X130300165Y-96684345D01*
X130294679Y-96721329D01*
X130285594Y-96757598D01*
X130272998Y-96792802D01*
X130257012Y-96826602D01*
X130237790Y-96858672D01*
X130215517Y-96888704D01*
X130190408Y-96916408D01*
X130162704Y-96941517D01*
X130132672Y-96963790D01*
X130100602Y-96983012D01*
X130066802Y-96998998D01*
X130031598Y-97011594D01*
X129995329Y-97020679D01*
X129958345Y-97026165D01*
X129921000Y-97028000D01*
X129159000Y-97028000D01*
X129121655Y-97026165D01*
X129084671Y-97020679D01*
X129048402Y-97011594D01*
X129013198Y-96998998D01*
X128979398Y-96983012D01*
X128947328Y-96963790D01*
X128917296Y-96941517D01*
X128889592Y-96916408D01*
X128864483Y-96888704D01*
X128842210Y-96858672D01*
X128822988Y-96826602D01*
X128807002Y-96792802D01*
X128794406Y-96757598D01*
X128785321Y-96721329D01*
X128779835Y-96684345D01*
X128778000Y-96647000D01*
X128778000Y-91313000D01*
X128779835Y-91275655D01*
X128785321Y-91238671D01*
X128794406Y-91202402D01*
X128807002Y-91167198D01*
X128822988Y-91133398D01*
X128842210Y-91101328D01*
X128864483Y-91071296D01*
X128889592Y-91043592D01*
X128917296Y-91018483D01*
X128947328Y-90996210D01*
X128979398Y-90976988D01*
X129013198Y-90961002D01*
X129048402Y-90948406D01*
X129084671Y-90939321D01*
X129121655Y-90933835D01*
X129159000Y-90932000D01*
X129921000Y-90932000D01*
X129958345Y-90933835D01*
X129958345Y-90933835D01*
G37*
D17*
X129540000Y-93980000D03*
D16*
G36*
X127418345Y-90933835D02*
G01*
X127455329Y-90939321D01*
X127491598Y-90948406D01*
X127526802Y-90961002D01*
X127560602Y-90976988D01*
X127592672Y-90996210D01*
X127622704Y-91018483D01*
X127650408Y-91043592D01*
X127675517Y-91071296D01*
X127697790Y-91101328D01*
X127717012Y-91133398D01*
X127732998Y-91167198D01*
X127745594Y-91202402D01*
X127754679Y-91238671D01*
X127760165Y-91275655D01*
X127762000Y-91313000D01*
X127762000Y-96647000D01*
X127760165Y-96684345D01*
X127754679Y-96721329D01*
X127745594Y-96757598D01*
X127732998Y-96792802D01*
X127717012Y-96826602D01*
X127697790Y-96858672D01*
X127675517Y-96888704D01*
X127650408Y-96916408D01*
X127622704Y-96941517D01*
X127592672Y-96963790D01*
X127560602Y-96983012D01*
X127526802Y-96998998D01*
X127491598Y-97011594D01*
X127455329Y-97020679D01*
X127418345Y-97026165D01*
X127381000Y-97028000D01*
X126619000Y-97028000D01*
X126581655Y-97026165D01*
X126544671Y-97020679D01*
X126508402Y-97011594D01*
X126473198Y-96998998D01*
X126439398Y-96983012D01*
X126407328Y-96963790D01*
X126377296Y-96941517D01*
X126349592Y-96916408D01*
X126324483Y-96888704D01*
X126302210Y-96858672D01*
X126282988Y-96826602D01*
X126267002Y-96792802D01*
X126254406Y-96757598D01*
X126245321Y-96721329D01*
X126239835Y-96684345D01*
X126238000Y-96647000D01*
X126238000Y-91313000D01*
X126239835Y-91275655D01*
X126245321Y-91238671D01*
X126254406Y-91202402D01*
X126267002Y-91167198D01*
X126282988Y-91133398D01*
X126302210Y-91101328D01*
X126324483Y-91071296D01*
X126349592Y-91043592D01*
X126377296Y-91018483D01*
X126407328Y-90996210D01*
X126439398Y-90976988D01*
X126473198Y-90961002D01*
X126508402Y-90948406D01*
X126544671Y-90939321D01*
X126581655Y-90933835D01*
X126619000Y-90932000D01*
X127381000Y-90932000D01*
X127418345Y-90933835D01*
X127418345Y-90933835D01*
G37*
D17*
X127000000Y-93980000D03*
D15*
X143510000Y-68580000D03*
X143510000Y-71120000D03*
X143510000Y-73660000D03*
X143510000Y-76200000D03*
D14*
X143510000Y-78740000D03*
D18*
X152400000Y-53340000D03*
X149860000Y-46990000D03*
X127000000Y-90170000D03*
X129540000Y-90170000D03*
X132080000Y-90170000D03*
X134620000Y-90170000D03*
X137160000Y-90170000D03*
D19*
X142334999Y-92615001D03*
X142240000Y-95250000D03*
D20*
X137640000Y-49050000D02*
X159540000Y-49050000D01*
X159540000Y-49050000D02*
X160020000Y-49530000D01*
X160020000Y-49530000D02*
X160020000Y-83185000D01*
X135890000Y-50800000D02*
X157480000Y-50800000D01*
X157480000Y-50800000D02*
X157480000Y-83185000D01*
X134140000Y-52550000D02*
X134140000Y-54130000D01*
X134140000Y-54130000D02*
X134620000Y-54610000D01*
X134620000Y-54610000D02*
X154940000Y-54610000D01*
X154940000Y-54610000D02*
X154940000Y-83185000D01*
X137640000Y-52550000D02*
X151610000Y-52550000D01*
X151610000Y-52550000D02*
X152400000Y-53340000D01*
X152400000Y-53340000D02*
X152400000Y-53340000D01*
X134140000Y-47635787D02*
X134785787Y-46990000D01*
X134140000Y-49050000D02*
X134140000Y-47635787D01*
X134785787Y-46990000D02*
X135890000Y-46990000D01*
X135890000Y-46990000D02*
X149860000Y-46990000D01*
X149860000Y-46990000D02*
X149860000Y-46990000D01*
X127000000Y-90170000D02*
X127000000Y-93980000D01*
X129540000Y-90170000D02*
X129540000Y-93980000D01*
X132080000Y-90170000D02*
X132080000Y-93980000D01*
X134620000Y-90170000D02*
X134620000Y-93980000D01*
X137160000Y-90170000D02*
X137160000Y-93980000D01*
D21*
X142334999Y-72295001D02*
X142334999Y-92615001D01*
X143510000Y-71120000D02*
X142334999Y-72295001D01*
X142334999Y-92615001D02*
X142334999Y-92615001D01*
X141460001Y-74840001D02*
X141460001Y-94470001D01*
X140335000Y-73715000D02*
X141460001Y-74840001D01*
X141460001Y-94470001D02*
X142240000Y-95250000D01*
X142240000Y-95250000D02*
X142240000Y-95250000D01*
M02*
