G04 #@! TF.GenerationSoftware,KiCad,Pcbnew,5.1.4-5.1.4*
G04 #@! TF.CreationDate,2019-09-28T18:39:02+02:00*
G04 #@! TF.ProjectId,Multiboard,4d756c74-6962-46f6-9172-642e6b696361,rev?*
G04 #@! TF.SameCoordinates,Original*
G04 #@! TF.FileFunction,Copper,L2,Bot*
G04 #@! TF.FilePolarity,Positive*
%FSLAX46Y46*%
G04 Gerber Fmt 4.6, Leading zero omitted, Abs format (unit mm)*
G04 Created by KiCad (PCBNEW 5.1.4-5.1.4) date 2019-09-28 18:39:02*
%MOMM*%
%LPD*%
G04 APERTURE LIST*
%ADD10O,1.700000X1.700000*%
%ADD11R,1.700000X1.700000*%
%ADD12C,3.000000*%
%ADD13R,1.600000X1.600000*%
%ADD14C,1.600000*%
%ADD15C,2.000000*%
%ADD16C,1.000000*%
%ADD17C,0.800000*%
%ADD18C,1.000000*%
%ADD19C,0.250000*%
G04 APERTURE END LIST*
D10*
X149860000Y-104854999D03*
X149860000Y-107394999D03*
X149860000Y-109934999D03*
X149860000Y-112474999D03*
D11*
X149860000Y-115014999D03*
X162560000Y-115014999D03*
D10*
X162560000Y-112474999D03*
X162560000Y-109934999D03*
X162560000Y-107394999D03*
X162560000Y-104854999D03*
D12*
X117940000Y-108440000D03*
X117940000Y-95300000D03*
D13*
X120650000Y-98370000D03*
D14*
X120650000Y-100870000D03*
X120650000Y-102870000D03*
X120650000Y-105370000D03*
D15*
X135100000Y-112240000D03*
X135100000Y-108740000D03*
X133350000Y-110490000D03*
X131600000Y-112240000D03*
X131600000Y-108740000D03*
D16*
X137160000Y-104140000D03*
X137160000Y-106680000D03*
D17*
X137160000Y-109220000D03*
X137160000Y-111760000D03*
D16*
X137160000Y-114300000D03*
D17*
X119380000Y-85090000D03*
X123190000Y-101600000D03*
D18*
X131600000Y-107325787D02*
X132080000Y-106845787D01*
X131600000Y-108740000D02*
X131600000Y-107325787D01*
X132080000Y-106845787D02*
X132080000Y-104140000D01*
X132080000Y-104140000D02*
X137160000Y-104140000D01*
D19*
X137160000Y-104140000D02*
X137160000Y-104140000D01*
D18*
X133350000Y-110490000D02*
X133350000Y-106680000D01*
X133350000Y-106680000D02*
X137160000Y-106680000D01*
D19*
X137160000Y-106680000D02*
X137160000Y-106680000D01*
X135100000Y-108740000D02*
X136680000Y-108740000D01*
X136680000Y-108740000D02*
X137160000Y-109220000D01*
X137160000Y-109220000D02*
X137160000Y-109220000D01*
X135100000Y-112240000D02*
X136680000Y-112240000D01*
X136680000Y-112240000D02*
X137160000Y-111760000D01*
X137160000Y-111760000D02*
X137160000Y-111760000D01*
D18*
X131600000Y-112240000D02*
X131600000Y-113820000D01*
X131600000Y-113820000D02*
X132080000Y-114300000D01*
X132080000Y-114300000D02*
X137160000Y-114300000D01*
X137160000Y-114300000D02*
X137160000Y-114300000D01*
D19*
X119380000Y-85090000D02*
X123190000Y-85090000D01*
X123190000Y-85090000D02*
X123190000Y-101600000D01*
X123190000Y-101600000D02*
X123190000Y-101600000D01*
M02*
