M48
; DRILL file {KiCad 5.1.4-5.1.4} date Sat 28 Sep 2019 06:38:57 PM CEST
; FORMAT={-:-/ absolute / metric / decimal}
; #@! TF.CreationDate,2019-09-28T18:38:57+02:00
; #@! TF.GenerationSoftware,Kicad,Pcbnew,5.1.4-5.1.4
; #@! TF.FileFunction,Plated,1,2,PTH
FMAT,2
METRIC
T1C0.400
T2C0.920
T3C1.000
T4C2.300
%
G90
G05
T1
X119.38Y-85.09
X123.19Y-101.6
X137.16Y-104.14
X137.16Y-106.68
X137.16Y-109.22
X137.16Y-111.76
X137.16Y-114.3
T2
X120.65Y-98.37
X120.65Y-100.87
X120.65Y-102.87
X120.65Y-105.37
T3
X162.56Y-104.855
X162.56Y-107.395
X162.56Y-109.935
X162.56Y-112.475
X162.56Y-115.015
X149.86Y-104.855
X149.86Y-107.395
X149.86Y-109.935
X149.86Y-112.475
X149.86Y-115.015
T4
X117.94Y-95.3
X117.94Y-108.44
T0
M30
